<?xml version="1.0" encoding="UTF-8"?>
<svg version="1.1" xmlns="http://www.w3.org/2000/svg" width="512" height="512">
<path d="M0 0 C3.04319431 -0.4799991 5.22380123 -0.45130583 7.92480469 1.11914062 C10.13170325 2.76822837 12.25779645 4.48718995 14.375 6.25 C15.96500501 7.53266547 17.55617632 8.81388635 19.1484375 10.09375 C19.95120117 10.74472656 20.75396484 11.39570313 21.58105469 12.06640625 C25.31845247 15.05391033 29.15478762 17.90346366 33 20.75 C39.7412764 25.7412764 39.7412764 25.7412764 42 28 C41.84897798 30.79971594 41.13342225 31.86430673 39.1640625 33.8671875 C38.32617188 34.52976563 37.48828125 35.19234375 36.625 35.875 C35.15546875 37.03708984 35.15546875 37.03708984 33.65625 38.22265625 C26.85660558 43.42887602 19.92806635 48.46516955 13.00366211 53.50341797 C11.3382498 54.74735332 9.7291558 56.06626083 8.13671875 57.40234375 C5.33164053 59.49974227 3.41518992 59.31769209 0 59 C-1.65497356 55.69005287 -1.10084335 52.00877 -1.0625 48.375 C-1.05798828 47.57320312 -1.05347656 46.77140625 -1.04882812 45.9453125 C-1.03703168 43.96350994 -1.01909605 41.98174567 -1 40 C-28.20017708 40.06066575 -55.40026102 40.13825793 -82.60033226 40.23571491 C-95.23126768 40.28058131 -107.86217547 40.32001691 -120.49316406 40.34643555 C-131.50897991 40.36948997 -142.52470767 40.40297055 -153.54045355 40.44870156 C-159.36715517 40.47253371 -165.1937701 40.49132785 -171.02051926 40.49761391 C-176.5182332 40.50371031 -182.01572562 40.52387253 -187.51335716 40.55427551 C-189.51825223 40.56298333 -191.52317634 40.56679361 -193.52808952 40.56500816 C-230.16650375 40.54270594 -261.89937966 51.58470536 -288.47265625 77.40234375 C-311.4515812 101.75919366 -320.80235531 133.02194605 -320.3046875 165.90234375 C-319.3829972 194.5090209 -307.06627471 220.10427764 -288 241 C-287.03513672 242.08861328 -287.03513672 242.08861328 -286.05078125 243.19921875 C-269.5868108 260.80602446 -246.21210482 271.15351658 -223 276 C-223 269.07 -223 262.14 -223 255 C-225.536875 254.443125 -225.536875 254.443125 -228.125 253.875 C-252.6614269 247.66872731 -272.56587035 231.78756413 -286.1875 210.75 C-299.35075525 188.64517097 -303.92186138 161.57285915 -297.96875 136.4375 C-293.33799314 120.0057821 -286.5669717 105.65380126 -275 93 C-274.25234375 92.15953125 -273.5046875 91.3190625 -272.734375 90.453125 C-256.33113465 72.96357735 -231.98407204 61.94209121 -208 61 C-207.14019531 60.9484375 -206.28039062 60.896875 -205.39453125 60.84375 C-179.08141693 59.97269518 -154.42635048 69.62590273 -135 87.125 C-116.88829105 104.1249928 -104.98922243 129.05439092 -104 154 C-103.96003906 154.74765625 -103.92007813 155.4953125 -103.87890625 156.265625 C-103.2424695 178.87784836 -110.43489706 202.52187648 -125 220 C-122.31115099 220.73373168 -119.77855156 221.1686127 -117 221.359375 C-90.85158134 223.37448249 -64.51965708 227.33993796 -41.19921875 239.875 C-36.48338364 241.53331564 -34.00618779 239.93060139 -29.67578125 237.921875 C-28.89589844 237.53515625 -28.11601562 237.1484375 -27.3125 236.75 C2.03320253 223.32463811 35.60605725 220.77709358 67.4375 220.75 C68.36764923 220.74866058 69.29779846 220.74732117 70.25613403 220.74594116 C115.76015152 220.76015152 115.76015152 220.76015152 123 228 C123.07320163 230.5327765 123.09227569 233.03103918 123.0625 235.5625 C123.041875 238.016875 123.02125 240.47125 123 243 C131.25 243 139.5 243 148 243 C148 324.51 148 406.02 148 490 C25.57 490 -96.86 490 -223 490 C-223 426.64 -223 363.28 -223 298 C-226.96 297.34 -230.92 296.68 -235 296 C-237.85571141 295.3055715 -240.63180777 294.5949972 -243.4375 293.75 C-244.15776367 293.53456543 -244.87802734 293.31913086 -245.62011719 293.09716797 C-252.38335131 291.00107481 -258.69598512 288.22310535 -265 285 C-266.09054687 284.4534375 -267.18109375 283.906875 -268.3046875 283.34375 C-279.83472809 277.3752584 -289.60324134 269.91632288 -299 261 C-299.4758252 260.55672363 -299.95165039 260.11344727 -300.44189453 259.65673828 C-308.45115275 252.16386988 -315.04823604 244.21008513 -321 235 C-321.69867188 233.92363281 -322.39734375 232.84726563 -323.1171875 231.73828125 C-336.36920245 209.95238118 -342.22943626 185.4176974 -342.25 160.125 C-342.25067474 159.38290283 -342.25134949 158.64080566 -342.25204468 157.8762207 C-342.23622853 146.9438615 -341.78125669 136.62756621 -339 126 C-338.8443457 125.34322266 -338.68869141 124.68644531 -338.52832031 124.00976562 C-334.30346703 106.25020271 -326.18348035 89.40986495 -315 75 C-314.28199219 74.0615625 -313.56398438 73.123125 -312.82421875 72.15625 C-291.93057803 45.73303119 -262.31069816 27.06149808 -229 21 C-228.10152784 20.83283037 -227.20305569 20.66566074 -226.2773571 20.49342537 C-215.42431482 18.70666324 -204.73748901 18.73149585 -193.76611328 18.77294922 C-191.65570074 18.77351439 -189.5452878 18.7731947 -187.43487549 18.77206421 C-181.74576827 18.77149384 -176.05674656 18.78319666 -170.36765909 18.79721212 C-164.40729113 18.8097725 -158.4469209 18.81089415 -152.48654175 18.81326294 C-141.21762843 18.81946218 -129.94875423 18.83585182 -118.67985809 18.85596192 C-105.84302376 18.87836951 -93.0061875 18.88932654 -80.16933846 18.89935279 C-53.77953735 18.92021951 -27.38977087 18.95536505 -1 19 C-1.01160156 17.79601562 -1.02320313 16.59203125 -1.03515625 15.3515625 C-1.04453434 13.77604321 -1.05363452 12.20052225 -1.0625 10.625 C-1.07087891 9.8309375 -1.07925781 9.036875 -1.08789062 8.21875 C-1.11328125 2.2265625 -1.11328125 2.2265625 0 0 Z " fill="#B5DAFE" transform="translate(353,11)"/>
<path d="M0 0 C3.04319431 -0.4799991 5.22380123 -0.45130583 7.92480469 1.11914062 C10.13170325 2.76822837 12.25779645 4.48718995 14.375 6.25 C15.96500501 7.53266547 17.55617632 8.81388635 19.1484375 10.09375 C19.95120117 10.74472656 20.75396484 11.39570313 21.58105469 12.06640625 C25.31845247 15.05391033 29.15478762 17.90346366 33 20.75 C39.7412764 25.7412764 39.7412764 25.7412764 42 28 C41.84897798 30.79971594 41.13342225 31.86430673 39.1640625 33.8671875 C38.32617188 34.52976563 37.48828125 35.19234375 36.625 35.875 C35.15546875 37.03708984 35.15546875 37.03708984 33.65625 38.22265625 C26.85660558 43.42887602 19.92806635 48.46516955 13.00366211 53.50341797 C11.3382498 54.74735332 9.7291558 56.06626083 8.13671875 57.40234375 C5.33164053 59.49974227 3.41518992 59.31769209 0 59 C-1.65497356 55.69005287 -1.10084335 52.00877 -1.0625 48.375 C-1.05798828 47.57320312 -1.05347656 46.77140625 -1.04882812 45.9453125 C-1.03703168 43.96350994 -1.01909605 41.98174567 -1 40 C-28.20017708 40.06066575 -55.40026102 40.13825793 -82.60033226 40.23571491 C-95.23126768 40.28058131 -107.86217547 40.32001691 -120.49316406 40.34643555 C-131.50897991 40.36948997 -142.52470767 40.40297055 -153.54045355 40.44870156 C-159.36715517 40.47253371 -165.1937701 40.49132785 -171.02051926 40.49761391 C-176.5182332 40.50371031 -182.01572562 40.52387253 -187.51335716 40.55427551 C-189.51825223 40.56298333 -191.52317634 40.56679361 -193.52808952 40.56500816 C-230.16650375 40.54270594 -261.89937966 51.58470536 -288.47265625 77.40234375 C-311.4515812 101.75919366 -320.80235531 133.02194605 -320.3046875 165.90234375 C-319.3829972 194.5090209 -307.06627471 220.10427764 -288 241 C-287.03513672 242.08861328 -287.03513672 242.08861328 -286.05078125 243.19921875 C-269.5868108 260.80602446 -246.21210482 271.15351658 -223 276 C-223 269.07 -223 262.14 -223 255 C-225.536875 254.443125 -225.536875 254.443125 -228.125 253.875 C-252.6614269 247.66872731 -272.56587035 231.78756413 -286.1875 210.75 C-299.35075525 188.64517097 -303.92186138 161.57285915 -297.96875 136.4375 C-293.33799314 120.0057821 -286.5669717 105.65380126 -275 93 C-274.25234375 92.15953125 -273.5046875 91.3190625 -272.734375 90.453125 C-256.33113465 72.96357735 -231.98407204 61.94209121 -208 61 C-207.14019531 60.9484375 -206.28039062 60.896875 -205.39453125 60.84375 C-179.08141693 59.97269518 -154.42635048 69.62590273 -135 87.125 C-116.88829105 104.1249928 -104.98922243 129.05439092 -104 154 C-103.96003906 154.74765625 -103.92007813 155.4953125 -103.87890625 156.265625 C-103.24132505 178.91851006 -110.434399 204.09604826 -126 221 C-126.44972168 221.49064941 -126.89944336 221.98129883 -127.36279297 222.48681641 C-143.52428699 239.91444236 -164.90633615 253.49191096 -189 256 C-191.64 256 -194.28 256 -197 256 C-196.67 324.97 -196.34 393.94 -196 465 C-188.08 463.02 -188.08 463.02 -180 461 C-167.51173081 458.99602405 -155.32026533 458.63922174 -142.6875 458.6875 C-141.23958572 458.68973572 -141.23958572 458.68973572 -139.76242065 458.6920166 C-123.99892609 458.73565979 -108.58863025 459.48690453 -93 462 C-91.57010742 462.22478027 -91.57010742 462.22478027 -90.11132812 462.45410156 C-73.06003428 465.21016175 -55.72919845 469.38899724 -40.5625 477.9375 C-38.08142902 479.29289731 -38.08142902 479.29289731 -35.79296875 478.2734375 C-33.10693671 477.04875716 -30.42156603 475.82270573 -27.73950195 474.58935547 C15.72431319 454.88689711 75.46726346 450.41529533 121 465 C121.66 465.33 122.32 465.66 123 466 C123 392.41 123 318.82 123 243 C131.25 243 139.5 243 148 243 C148 324.51 148 406.02 148 490 C25.57 490 -96.86 490 -223 490 C-223 426.64 -223 363.28 -223 298 C-226.96 297.34 -230.92 296.68 -235 296 C-237.85571141 295.3055715 -240.63180777 294.5949972 -243.4375 293.75 C-244.15776367 293.53456543 -244.87802734 293.31913086 -245.62011719 293.09716797 C-252.38335131 291.00107481 -258.69598512 288.22310535 -265 285 C-266.09054687 284.4534375 -267.18109375 283.906875 -268.3046875 283.34375 C-279.83472809 277.3752584 -289.60324134 269.91632288 -299 261 C-299.4758252 260.55672363 -299.95165039 260.11344727 -300.44189453 259.65673828 C-308.45115275 252.16386988 -315.04823604 244.21008513 -321 235 C-321.69867188 233.92363281 -322.39734375 232.84726563 -323.1171875 231.73828125 C-336.36920245 209.95238118 -342.22943626 185.4176974 -342.25 160.125 C-342.25067474 159.38290283 -342.25134949 158.64080566 -342.25204468 157.8762207 C-342.23622853 146.9438615 -341.78125669 136.62756621 -339 126 C-338.8443457 125.34322266 -338.68869141 124.68644531 -338.52832031 124.00976562 C-334.30346703 106.25020271 -326.18348035 89.40986495 -315 75 C-314.28199219 74.0615625 -313.56398438 73.123125 -312.82421875 72.15625 C-291.93057803 45.73303119 -262.31069816 27.06149808 -229 21 C-228.10152784 20.83283037 -227.20305569 20.66566074 -226.2773571 20.49342537 C-215.42431482 18.70666324 -204.73748901 18.73149585 -193.76611328 18.77294922 C-191.65570074 18.77351439 -189.5452878 18.7731947 -187.43487549 18.77206421 C-181.74576827 18.77149384 -176.05674656 18.78319666 -170.36765909 18.79721212 C-164.40729113 18.8097725 -158.4469209 18.81089415 -152.48654175 18.81326294 C-141.21762843 18.81946218 -129.94875423 18.83585182 -118.67985809 18.85596192 C-105.84302376 18.87836951 -93.0061875 18.88932654 -80.16933846 18.89935279 C-53.77953735 18.92021951 -27.38977087 18.95536505 -1 19 C-1.01160156 17.79601562 -1.02320313 16.59203125 -1.03515625 15.3515625 C-1.04453434 13.77604321 -1.05363452 12.20052225 -1.0625 10.625 C-1.07087891 9.8309375 -1.07925781 9.036875 -1.08789062 8.21875 C-1.11328125 2.2265625 -1.11328125 2.2265625 0 0 Z " fill="#FE8748" transform="translate(353,11)"/>
<path d="M0 0 C1.03560059 0.13696289 2.07120117 0.27392578 3.13818359 0.41503906 C19.7348356 2.62397265 36.00922568 5.45397305 51.875 10.875 C52.52863525 11.09526855 53.18227051 11.31553711 53.85571289 11.54248047 C60.07542838 13.77543858 64.99791241 16.72613404 71 20 C71 98.54 71 177.08 71 258 C63.08 254.535 63.08 254.535 55 251 C37.07267181 244.46716007 18.93297583 241.11114419 0 239 C-0.84755859 238.90211182 -1.69511719 238.80422363 -2.56835938 238.70336914 C-11.96738468 237.76329889 -21.38904678 237.81390591 -30.82519531 237.81469727 C-33.72996785 237.81251505 -36.63435699 237.79431299 -39.5390625 237.77539062 C-56.89254094 237.71892795 -71.79895053 239.95269424 -89 244 C-89 174.7 -89 105.4 -89 34 C-84.05 33.34 -79.1 32.68 -74 32 C-70.36820709 31.05700816 -66.95681637 30.10244361 -63.4375 28.875 C-62.54691895 28.56933105 -61.65633789 28.26366211 -60.73876953 27.94873047 C-47.92022928 23.37646805 -34.44860739 16.35188569 -25.98828125 5.39453125 C-18.85987028 -3.63852391 -10.25722828 -1.4799939 0 0 Z " fill="#E2F0FE" transform="translate(245,233)"/>
<path d="M0 0 C1.5628842 1.35083459 3.10469212 2.72642035 4.625 4.125 C5.45386719 4.86234375 6.28273437 5.5996875 7.13671875 6.359375 C22.2181378 20.49387493 31.99672596 40.86118993 32.86328125 61.5859375 C33.36342176 83.64594673 27.84257778 103.88240567 13.625 121.125 C13.01011719 121.90230469 12.39523438 122.67960938 11.76171875 123.48046875 C3.14474031 133.84581963 -8.02552471 140.94964186 -20.375 146.125 C-21.57898438 146.63417969 -22.78296875 147.14335937 -24.0234375 147.66796875 C-43.16852474 154.85987087 -66.83940729 153.55038646 -85.36376953 145.23193359 C-93.84487408 141.28011289 -101.41620807 136.41074815 -108.375 130.125 C-109.13167969 129.46113281 -109.88835937 128.79726562 -110.66796875 128.11328125 C-125.5878646 114.22057273 -134.94235279 93.64165077 -135.84375 73.328125 C-135.877804 71.01064345 -135.88772133 68.69269683 -135.875 66.375 C-135.86927979 65.15288818 -135.86355957 63.93077637 -135.85766602 62.67163086 C-135.42739878 40.76856601 -125.98649169 22.43935367 -111.125 6.4375 C-80.94556832 -22.01145968 -33.04042874 -25.47509693 0 0 Z " fill="#FEEA86" transform="translate(202.375,102.875)"/>
<path d="M0 0 C3.04319431 -0.4799991 5.22380123 -0.45130583 7.92480469 1.11914062 C10.13170325 2.76822837 12.25779645 4.48718995 14.375 6.25 C15.96500501 7.53266547 17.55617632 8.81388635 19.1484375 10.09375 C19.95120117 10.74472656 20.75396484 11.39570313 21.58105469 12.06640625 C25.31845247 15.05391033 29.15478762 17.90346366 33 20.75 C39.7412764 25.7412764 39.7412764 25.7412764 42 28 C41.84897798 30.79971594 41.13342225 31.86430673 39.1640625 33.8671875 C38.32617188 34.52976563 37.48828125 35.19234375 36.625 35.875 C35.15546875 37.03708984 35.15546875 37.03708984 33.65625 38.22265625 C26.85660558 43.42887602 19.92806635 48.46516955 13.00366211 53.50341797 C11.3382498 54.74735332 9.7291558 56.06626083 8.13671875 57.40234375 C5.33164053 59.49974227 3.41518992 59.31769209 0 59 C-1.65497356 55.69005287 -1.10084335 52.00877 -1.0625 48.375 C-1.05798828 47.57320312 -1.05347656 46.77140625 -1.04882812 45.9453125 C-1.03703168 43.96350994 -1.01909605 41.98174567 -1 40 C-28.20017708 40.06066575 -55.40026102 40.13825793 -82.60033226 40.23571491 C-95.23126768 40.28058131 -107.86217547 40.32001691 -120.49316406 40.34643555 C-131.50897991 40.36948997 -142.52470767 40.40297055 -153.54045355 40.44870156 C-159.36715517 40.47253371 -165.1937701 40.49132785 -171.02051926 40.49761391 C-176.5182332 40.50371031 -182.01572562 40.52387253 -187.51335716 40.55427551 C-189.51825223 40.56298333 -191.52317634 40.56679361 -193.52808952 40.56500816 C-230.16650375 40.54270594 -261.89937966 51.58470536 -288.47265625 77.40234375 C-311.4515812 101.75919366 -320.80235531 133.02194605 -320.3046875 165.90234375 C-319.3829972 194.5090209 -307.06627471 220.10427764 -288 241 C-287.03513672 242.08861328 -287.03513672 242.08861328 -286.05078125 243.19921875 C-270.36568068 259.97308986 -247.7133515 270.84844921 -225.484375 275.421875 C-223 276 -223 276 -222 277 C-221.91314397 278.56172745 -221.89297781 280.12729344 -221.90234375 281.69140625 C-221.90717773 283.10776367 -221.90717773 283.10776367 -221.91210938 284.55273438 C-221.92467773 286.04256836 -221.92467773 286.04256836 -221.9375 287.5625 C-221.94201172 288.55958984 -221.94652344 289.55667969 -221.95117188 290.58398438 C-221.96299993 293.05604849 -221.97948151 295.52799518 -222 298 C-228.68035501 297.4252731 -234.81750269 296.18410567 -241.25 294.3125 C-242.63251953 293.91212524 -242.63251953 293.91212524 -244.04296875 293.50366211 C-251.42004016 291.30049921 -258.1682288 288.57726602 -265 285 C-266.08539063 284.45472656 -267.17078125 283.90945313 -268.2890625 283.34765625 C-279.82905928 277.38847759 -289.60067639 269.91875669 -299 261 C-299.4758252 260.55672363 -299.95165039 260.11344727 -300.44189453 259.65673828 C-308.45115275 252.16386988 -315.04823604 244.21008513 -321 235 C-321.69867188 233.92363281 -322.39734375 232.84726563 -323.1171875 231.73828125 C-336.36920245 209.95238118 -342.22943626 185.4176974 -342.25 160.125 C-342.25067474 159.38290283 -342.25134949 158.64080566 -342.25204468 157.8762207 C-342.23622853 146.9438615 -341.78125669 136.62756621 -339 126 C-338.8443457 125.34322266 -338.68869141 124.68644531 -338.52832031 124.00976562 C-334.30346703 106.25020271 -326.18348035 89.40986495 -315 75 C-314.28199219 74.0615625 -313.56398438 73.123125 -312.82421875 72.15625 C-291.93057803 45.73303119 -262.31069816 27.06149808 -229 21 C-228.10152784 20.83283037 -227.20305569 20.66566074 -226.2773571 20.49342537 C-215.42431482 18.70666324 -204.73748901 18.73149585 -193.76611328 18.77294922 C-191.65570074 18.77351439 -189.5452878 18.7731947 -187.43487549 18.77206421 C-181.74576827 18.77149384 -176.05674656 18.78319666 -170.36765909 18.79721212 C-164.40729113 18.8097725 -158.4469209 18.81089415 -152.48654175 18.81326294 C-141.21762843 18.81946218 -129.94875423 18.83585182 -118.67985809 18.85596192 C-105.84302376 18.87836951 -93.0061875 18.88932654 -80.16933846 18.89935279 C-53.77953735 18.92021951 -27.38977087 18.95536505 -1 19 C-1.01160156 17.79601562 -1.02320313 16.59203125 -1.03515625 15.3515625 C-1.04453434 13.77604321 -1.05363452 12.20052225 -1.0625 10.625 C-1.07087891 9.8309375 -1.07925781 9.036875 -1.08789062 8.21875 C-1.11328125 2.2265625 -1.11328125 2.2265625 0 0 Z " fill="#4DB1FC" transform="translate(353,11)"/>
<path d="M0 0 C26.31311432 -0.87105482 50.96818077 8.78215273 70.39453125 26.28125 C88.5062402 43.2812428 100.40530882 68.21064092 101.39453125 93.15625 C101.43449219 93.90390625 101.47445312 94.6515625 101.515625 95.421875 C102.1532062 118.07476006 94.96013225 143.25229826 79.39453125 160.15625 C78.94480957 160.64689941 78.49508789 161.13754883 78.03173828 161.64306641 C61.94322772 178.9919912 40.44220041 192.80954587 16.39453125 195.15625 C11.83121996 195.31926546 7.27293643 195.34134309 2.70703125 195.34375 C1.50369141 195.35599609 0.30035156 195.36824219 -0.93945312 195.38085938 C-26.73740435 195.42267129 -49.28705328 185.12950862 -67.60546875 167.15625 C-88.02372103 145.44410538 -95.53441943 119.0788122 -94.74169922 89.8515625 C-93.66985203 68.64512347 -83.8033239 47.68813181 -69.60546875 32.15625 C-68.8578125 31.31578125 -68.11015625 30.4753125 -67.33984375 29.609375 C-49.75670907 10.86179431 -25.28488057 1.51633467 0 0 Z M-33.60546875 22.15625 C-34.5284375 22.59839844 -35.45140625 23.04054688 -36.40234375 23.49609375 C-57.19759067 34.09931994 -71.03231208 52.65704089 -78.39233398 74.49047852 C-80.69515525 81.98678035 -81.11120985 89.03227694 -81.04296875 96.84375 C-81.03394531 98.07963867 -81.02492188 99.31552734 -81.015625 100.58886719 C-80.56464343 124.44704494 -70.6124992 145.14369677 -53.4375 161.73828125 C-45.2058415 168.76641451 -35.70347639 174.28771749 -25.60546875 178.15625 C-24.23261719 178.7440625 -24.23261719 178.7440625 -22.83203125 179.34375 C-2.64355481 186.66652231 20.98397126 183.40318766 40.07788086 174.65649414 C46.49624985 171.56418762 52.01670545 167.79122437 57.39453125 163.15625 C58.05710938 162.63675781 58.7196875 162.11726562 59.40234375 161.58203125 C75.09851936 148.87120669 84.83980183 127.94335237 87.39453125 108.15625 C88.62268931 83.64828695 83.46711844 61.76150868 67.01953125 42.90625 C65.49759659 41.30394059 63.95586194 39.72019598 62.39453125 38.15625 C61.63527344 37.38539062 60.87601563 36.61453125 60.09375 35.8203125 C43.56785998 19.97060456 22.31075312 13.67466394 -0.08984375 13.94140625 C-11.98581841 14.27184999 -22.8850944 16.90087096 -33.60546875 22.15625 Z " fill="#FDC72E" transform="translate(147.60546875,71.84375)"/>
<path d="M0 0 C8 1 8 1 12 3 C12 81.54 12 160.08 12 241 C8.04 240.01 4.08 239.02 0 238 C0 159.46 0 80.92 0 0 Z " fill="#7DB5EE" transform="translate(464,236)"/>
<path d="M0 0 C2.64 0 5.28 0 8 0 C8 81.51 8 163.02 8 247 C5.36 247 2.72 247 0 247 C0 165.49 0 83.98 0 0 Z " fill="#F26720" transform="translate(493,254)"/>
<path d="M0 0 C0.93961075 -0.00191345 1.8792215 -0.0038269 2.8473053 -0.00579834 C4.82634755 -0.00715066 6.80539896 -0.00352138 8.78442383 0.00488281 C11.74647038 0.01548651 14.70789522 0.00501119 17.66992188 -0.0078125 C35.04759882 -0.02296946 51.74454772 1.4375892 68.72265625 5.203125 C69.93050781 5.45513672 71.13835937 5.70714844 72.3828125 5.96679688 C84.08880836 8.50677711 84.08880836 8.50677711 87.84765625 12.265625 C88.22265625 15.578125 88.22265625 15.578125 87.84765625 19.265625 C85.84765625 21.765625 85.84765625 21.765625 82.84765625 23.265625 C78.11248071 22.89522015 73.6850991 22.0567615 69.0715332 20.90722656 C49.57157025 16.10765443 30.03048426 14.99261091 10.03515625 15.015625 C9.16815094 15.01630981 8.30114563 15.01699463 7.40786743 15.0177002 C4.92280905 15.02418544 2.4380912 15.04053527 -0.046875 15.0625 C-1.1640239 15.0690863 -1.1640239 15.0690863 -2.30374146 15.07580566 C-6.04729265 15.12661699 -9.50540983 15.43153501 -13.15234375 16.265625 C-19.33839026 16.80826066 -19.33839026 16.80826066 -22.58984375 14.640625 C-24.62395711 11.54877269 -24.75839804 9.90195075 -24.15234375 6.265625 C-22.51614579 3.58821016 -21.08258591 2.53265413 -18.06541443 1.66656494 C-11.9826148 0.43707785 -6.19797038 -0.02873915 0 0 Z " fill="#929ED2" transform="translate(204.15234375,393.734375)"/>
<path d="M0 0 C3.00498674 0.023951 6.00909965 0.02047941 9.01416016 0.01391602 C34.59198098 0.04574166 34.59198098 0.04574166 39.61816406 4.22558594 C41.34619141 6.33618164 41.34619141 6.33618164 41.84619141 9.33618164 C41.34619141 12.33618164 41.34619141 12.33618164 39.84619141 14.71118164 C36.40264653 16.94948581 33.28788097 16.78393409 29.34619141 16.33618164 C28.66927246 16.17190674 27.99235352 16.00763184 27.29492188 15.83837891 C23.21631307 15.14375245 19.20003908 15.11411207 15.06884766 15.06274414 C14.15740494 15.05039734 13.24596222 15.03805054 12.30690002 15.02532959 C9.34079689 14.99298027 6.37494051 14.97423411 3.40869141 14.96118164 C2.40175232 14.95628723 1.39481323 14.95139282 0.35736084 14.9463501 C-18.27006914 14.90890169 -36.65224648 16.08954869 -54.61474609 21.48071289 C-57.50447572 22.29414578 -59.91313419 22.63457469 -62.90380859 22.64868164 C-64.14904297 22.67381836 -64.14904297 22.67381836 -65.41943359 22.69946289 C-68.16610002 22.2528895 -69.03724545 21.57568791 -70.65380859 19.33618164 C-71.30957962 13.21565211 -71.30957962 13.21565211 -69.44213867 10.71118164 C-65.73833013 7.86342059 -60.81383686 7.37266375 -56.34130859 6.33618164 C-54.84954102 5.96493164 -54.84954102 5.96493164 -53.32763672 5.58618164 C-35.7017048 1.40560236 -18.08490922 -0.15392048 0 0 Z " fill="#7A87C0" transform="translate(410.65380859375,393.663818359375)"/>
<path d="M0 0 C1.25881485 0.00515121 1.25881485 0.00515121 2.5430603 0.01040649 C62.48530522 0.29780522 62.48530522 0.29780522 74.4375 12.25 C74.9785628 18.20169082 74.9785628 18.20169082 73.4375 21.1875 C66.9854647 24.61514375 57.38415482 21.22338623 50.6875 19.875 C33.11082601 16.52510378 16.3035685 15.08418184 -1.5625 15.0625 C-2.70720261 15.06073257 -2.70720261 15.06073257 -3.87503052 15.05892944 C-6.06262308 15.0593128 -8.24995227 15.06855244 -10.4375 15.08203125 C-11.71367187 15.08952393 -12.98984375 15.0970166 -14.3046875 15.10473633 C-16.95963513 15.22311866 -19.03900782 15.5259348 -21.5625 16.25 C-23.74698835 16.39181447 -25.93611724 16.47011764 -28.125 16.5 C-29.82849609 16.53867187 -29.82849609 16.53867187 -31.56640625 16.578125 C-34.5625 16.25 -34.5625 16.25 -36.43359375 14.94921875 C-38.38783113 12.00771958 -38.04015534 9.65329431 -37.5625 6.25 C-28.88129943 -2.42626414 -11.52397992 -0.07711828 0 0 Z " fill="#919DD1" transform="translate(217.5625,327.75)"/>
<path d="M0 0 C1.08627182 -0.00551376 1.08627182 -0.00551376 2.19448853 -0.01113892 C10.28695946 -0.03263363 18.27145085 0.30113566 26.31640625 1.20703125 C27.01942368 1.28426926 27.7224411 1.36150726 28.44676208 1.44108582 C33.38215566 2.05436845 37.47878715 2.72878715 41.0625 6.3125 C41.62759482 12.52854305 41.62759482 12.52854305 39.83203125 15.01953125 C37.54481412 16.69076496 36.24879213 16.65174737 33.4375 16.5625 C32.64085937 16.54703125 31.84421875 16.5315625 31.0234375 16.515625 C28.78995879 16.36240482 26.5628194 16.11243757 24.34375 15.81640625 C16.66311492 14.94320918 8.90857827 15.02388089 1.1875 15 C0.34945831 14.99704926 -0.48858337 14.99409851 -1.35202026 14.99105835 C-20.04275964 14.97615186 -37.83638993 17.248555 -56.01293945 21.6965332 C-60.18541642 22.57533439 -63.68789287 22.7237523 -67.9375 22.3125 C-70.71429466 20.18869587 -70.91136617 19.49217009 -71.4375 15.875 C-70.9375 12.3125 -70.9375 12.3125 -69.08203125 10.25 C-64.63993229 7.51300486 -60.21179959 6.72097992 -55.125 5.75 C-53.52265503 5.43639526 -53.52265503 5.43639526 -51.88793945 5.11645508 C-48.57554172 4.48685389 -45.25901084 3.89197222 -41.9375 3.3125 C-40.9784375 3.14298828 -40.019375 2.97347656 -39.03125 2.79882812 C-26.03854806 0.59992281 -13.14804732 0.03172174 0 0 Z " fill="#7A87C0" transform="translate(410.9375,327.6875)"/>
<path d="M0 0 C0.89001709 0.22051025 1.78003418 0.44102051 2.69702148 0.66821289 C4.87890625 1.52734375 4.87890625 1.52734375 6.87890625 4.52734375 C7.32889214 8.05223322 7.25829036 9.88404026 5.44140625 12.96484375 C-0.3989242 16.52602086 -9.96142452 12.86694055 -16.37109375 11.58984375 C-34.28022244 8.11836751 -51.50271532 6.45120683 -69.74609375 6.40234375 C-71.59763062 6.39533447 -71.59763062 6.39533447 -73.48657227 6.38818359 C-75.24312134 6.39132568 -75.24312134 6.39132568 -77.03515625 6.39453125 C-78.08654785 6.39565918 -79.13793945 6.39678711 -80.22119141 6.39794922 C-82.96908433 6.52056104 -85.43898549 6.94795901 -88.12109375 7.52734375 C-90.49343583 7.66720972 -92.86982501 7.74707281 -95.24609375 7.77734375 C-96.46554688 7.803125 -97.685 7.82890625 -98.94140625 7.85546875 C-102.12109375 7.52734375 -102.12109375 7.52734375 -104.02734375 6.23046875 C-105.87388747 3.35513639 -105.47491272 0.82965412 -105.12109375 -2.47265625 C-103.42973643 -4.88398324 -102.313735 -5.42267062 -99.44140625 -6.16796875 C-96.00340315 -6.63029191 -92.5677 -7.07875839 -89.12109375 -7.47265625 C-87.70183594 -7.6428125 -87.70183594 -7.6428125 -86.25390625 -7.81640625 C-57.03301948 -10.66722447 -28.35199061 -7.08223036 0 0 Z " fill="#919DD1" transform="translate(285.12109375,368.47265625)"/>
<path d="M0 0 C0.95393646 -0.00367584 1.90787292 -0.00735168 2.89071655 -0.01113892 C33.90819493 -0.07349868 33.90819493 -0.07349868 40.4375 6.3125 C40.99858733 9.67902398 40.89353634 11.48806949 39.23828125 14.48046875 C37.4375 16.3125 37.4375 16.3125 34.94921875 16.73828125 C34.01722656 16.70089844 33.08523438 16.66351563 32.125 16.625 C31.20074219 16.60050781 30.27648437 16.57601563 29.32421875 16.55078125 C26.4375 16.3125 26.4375 16.3125 23.79931641 15.81030273 C19.76066631 15.2122775 15.83835713 15.13213275 11.76171875 15.109375 C10.92743851 15.10240601 10.09315826 15.09543701 9.2335968 15.08825684 C6.53068004 15.07084503 3.82797063 15.06452908 1.125 15.0625 C0.20388428 15.06149292 -0.71723145 15.06048584 -1.66625977 15.05944824 C-21.2889388 15.07396838 -40.20172449 16.46825476 -59.234375 21.54296875 C-62.19624797 22.22781497 -64.54849727 22.60261791 -67.5625 22.3125 C-69.875 20.75 -69.875 20.75 -71.5625 18.3125 C-72.30278652 12.28445265 -72.30278652 12.28445265 -70.31738281 9.67773438 C-68.22286917 8.04827969 -66.63543542 7.59538339 -64.046875 7.03125 C-62.68526245 6.72997192 -62.68526245 6.72997192 -61.29614258 6.42260742 C-60.31154053 6.22127197 -59.32693848 6.01993652 -58.3125 5.8125 C-57.27311279 5.59891846 -56.23372559 5.38533691 -55.1628418 5.1652832 C-51.96649511 4.52611053 -48.76584942 3.91548935 -45.5625 3.3125 C-44.69641113 3.14153809 -43.83032227 2.97057617 -42.93798828 2.79443359 C-28.71395445 0.08147171 -14.42844547 0.02690903 0 0 Z " fill="#7A87C0" transform="translate(411.5625,294.6875)"/>
<path d="M0 0 C1.3929126 -0.00309677 1.3929126 -0.00309677 2.81396484 -0.0062561 C15.72045956 -0.00114981 28.31310872 0.71297844 41.0625 2.75 C42.06384476 2.90989914 42.06384476 2.90989914 43.0854187 3.07302856 C65.57856673 6.76682243 65.57856673 6.76682243 70.5625 11.4375 C71.13741549 15.39004396 71.17622366 17.51691451 68.9375 20.875 C65.887346 22.88168027 64.17500705 22.6413961 60.5625 22.4375 C58.7776348 22.06131765 57.00551423 21.62040561 55.25 21.125 C50.23407933 19.81189918 45.22445451 18.73239482 40.125 17.8125 C39.47039795 17.68963623 38.8157959 17.56677246 38.14135742 17.44018555 C25.45487564 15.20700769 12.63861133 15.27838252 -0.19775391 15.30712891 C-3.09152305 15.31255442 -5.98514142 15.30711974 -8.87890625 15.30078125 C-10.72395867 15.30144098 -12.56901101 15.30271994 -14.4140625 15.3046875 C-15.27649567 15.30266327 -16.13892883 15.30063904 -17.02749634 15.29855347 C-20.41072374 15.31190601 -23.20571543 15.36023848 -26.4375 16.4375 C-28.43403512 16.5816942 -30.43598106 16.6580659 -32.4375 16.6875 C-34.0153125 16.72617187 -34.0153125 16.72617187 -35.625 16.765625 C-38.4375 16.4375 -38.4375 16.4375 -40.28125 15.13671875 C-42.27586525 12.20544296 -41.916615 9.85119437 -41.4375 6.4375 C-32.58237865 -2.64915481 -11.90887578 0.00066432 0 0 Z " fill="#919DD2" transform="translate(221.4375,294.5625)"/>
<path d="M0 0 C0.77162476 0.00310181 1.54324951 0.00620361 2.33825684 0.00939941 C14.30039948 0.06570495 26.09298931 0.45306619 37.9375 2.25 C38.86981445 2.38954102 39.80212891 2.52908203 40.76269531 2.67285156 C72.30347455 7.51657736 72.30347455 7.51657736 76.80078125 12.18359375 C77.9375 14.25 77.9375 14.25 77.875 17.3125 C76.9375 20.25 76.9375 20.25 75.4375 22.1875 C68.98944625 24.92792284 60.26756018 21.471681 53.72265625 20.01171875 C48.51368529 18.96347382 43.29323915 18.30921912 38.01953125 17.6796875 C34.9375 17.25 34.9375 17.25 31.9375 16.25 C23.13393295 15.07065423 14.24953827 15.09397395 5.38476562 15.11962891 C3.20435525 15.1249588 1.02415392 15.11966532 -1.15625 15.11328125 C-2.59895892 15.11332186 -4.04166837 15.11461925 -5.484375 15.1171875 C-6.54440735 15.11836578 -6.54440735 15.11836578 -7.62585449 15.11956787 C-11.2927333 15.14731077 -14.91155759 15.29288611 -18.56445312 15.62207031 C-19.29094055 15.68476105 -20.01742798 15.74745178 -20.76593018 15.81204224 C-22.77199375 15.99688177 -24.77532863 16.21067497 -26.77832031 16.42626953 C-30.0625 16.25 -30.0625 16.25 -32.47949219 14.45263672 C-34.0625 12.25 -34.0625 12.25 -34.5625 9.25 C-33.94167807 5.5250684 -32.96050794 4.60640103 -30.0625 2.25 C-20.58183422 -0.69848618 -9.84844951 -0.07051649 0 0 Z " fill="#919DD1" transform="translate(214.0625,425.75)"/>
<path d="M0 0 C0.84723633 0.06977051 1.69447266 0.13954102 2.56738281 0.21142578 C7.70137568 0.73481419 11.78237021 1.79475193 16.375 4.1875 C17.81235246 7.06220493 17.75672649 9.00644588 17.375 12.1875 C15.34375 14.4296875 15.34375 14.4296875 12.375 16.1875 C9.56886922 16.15049608 7.23478953 15.90871981 4.5 15.4375 C-23.90762781 11.61974039 -53.74224553 13.969254 -81.375 21.453125 C-84.61063099 22.18425316 -87.32196639 22.44450838 -90.625 22.1875 C-93 20.5625 -93 20.5625 -94.625 18.1875 C-95.125 15.1875 -95.125 15.1875 -94.625 12.1875 C-91.29927605 7.64845419 -87.1624534 6.86256378 -81.9375 5.6875 C-81.03612305 5.4810083 -80.13474609 5.2745166 -79.20605469 5.06176758 C-53.11957774 -0.55808625 -26.57476676 -2.25281333 0 0 Z " fill="#7A87C0" transform="translate(434.625,360.8125)"/>
<path d="M0 0 C1.12426392 0.09220825 1.12426392 0.09220825 2.27124023 0.1862793 C5.57258552 0.56441558 7.54961462 1.09556286 10.203125 3.140625 C11.75 5.25 11.75 5.25 12.25 8.25 C11.75 11.25 11.75 11.25 10.25 13.625 C6.08447511 16.33259118 1.79243564 15.63976622 -2.8815918 14.74780273 C-6.7140539 14.18141945 -10.47519157 14.07023567 -14.33984375 14.046875 C-15.11259644 14.03986069 -15.88534912 14.03284637 -16.68151855 14.02561951 C-19.18357162 14.00810589 -21.68538775 14.00176026 -24.1875 14 C-25.04280304 13.99932526 -25.89810608 13.99865051 -26.77932739 13.99795532 C-45.98110672 14.02201855 -64.01692659 16.20723394 -82.71850586 20.6237793 C-91.77746083 22.74617231 -91.77746083 22.74617231 -96.25 22.25 C-98.6875 20.125 -98.6875 20.125 -100.25 17.25 C-100.25 14.125 -100.25 14.125 -99.25 11.25 C-96.3941537 8.6466352 -93.81221387 7.64382749 -90.0859375 6.75 C-89.06032715 6.5039502 -88.0347168 6.25790039 -86.97802734 6.00439453 C-58.22544871 -0.46462163 -29.39632328 -2.67292416 0 0 Z " fill="#7987BF" transform="translate(440.25,426.75)"/>
<path d="M0 0 C3.67125 -0.020625 7.3425 -0.04125 11.125 -0.0625 C12.2711377 -0.071604 13.41727539 -0.08070801 14.59814453 -0.09008789 C15.97655518 -0.09383423 15.97655518 -0.09383423 17.3828125 -0.09765625 C18.31496582 -0.10289307 19.24711914 -0.10812988 20.20751953 -0.11352539 C23 0 23 0 29 1 C29 16.51 29 32.02 29 48 C22.47674419 45.8255814 22.47674419 45.8255814 19.5625 43.8125 C15.24813673 41.61747308 13.64086416 41.87979141 9 43 C6.03 43.66 3.06 44.32 0 45 C0 30.15 0 15.3 0 0 Z " fill="#FD5673" transform="translate(419,232)"/>
<path d="M0 0 C3.43088926 1.19335279 4.18852232 1.81270609 5.875 5 C5.91417334 7.84795788 5.79627927 10.47533352 5.54296875 13.296875 C3.70718836 34.35884497 3.70718836 34.35884497 12.23828125 52.73828125 C17.15310224 57.95979868 22.7600192 62.45871394 28.57421875 66.63696289 C31.55675081 69.70019802 31.78707413 71.78658024 31.875 76 C29.92357958 79.04421586 28.61654902 79.81461275 25.125 80.6875 C16.44855619 78.85209843 8.96993879 68.2450217 2.9375 62.1875 C1.97087098 61.22444087 1.0040751 60.26154919 0.03710938 59.29882812 C-0.87103516 58.38939453 -1.77917969 57.47996094 -2.71484375 56.54296875 C-3.53847412 55.71821045 -4.36210449 54.89345215 -5.21069336 54.04370117 C-7.9432351 51.1264576 -8.25535678 49.50586091 -8.31787109 45.61376953 C-8.34196548 44.25193039 -8.34196548 44.25193039 -8.36654663 42.86257935 C-8.41095129 38.71356929 -8.45205005 34.56471929 -8.47509766 30.41552734 C-8.49167294 28.22531521 -8.51898341 26.03515751 -8.55712891 23.84521484 C-8.61180235 20.69079472 -8.63375598 17.53764214 -8.6484375 14.3828125 C-8.67110687 13.4035379 -8.69377625 12.42426331 -8.71713257 11.41531372 C-8.69603258 4.64713845 -8.69603258 4.64713845 -5.78759766 1.35107422 C-3.125 0 -3.125 0 0 0 Z " fill="#F26921" transform="translate(152.125,123)"/>
<path d="M0 0 C1.9375 2.875 1.9375 2.875 2 6 C0.76253596 9.34843211 -0.04764694 10.06519601 -3.0625 11.875 C-5.86474609 12.53515625 -5.86474609 12.53515625 -9.0859375 12.9375 C-10.85578003 13.17098145 -10.85578003 13.17098145 -12.66137695 13.40917969 C-13.90749756 13.56290039 -15.15361816 13.71662109 -16.4375 13.875 C-25.17315379 15.02455979 -33.74846972 16.21273339 -42.30078125 18.359375 C-46.5192585 19.1469832 -50.51634721 19.54896404 -54.5 17.8125 C-56.0625 15.875 -56.0625 15.875 -56.5625 12.4375 C-55.97009344 8.21660329 -55.3723656 7.44290845 -52.0625 4.875 C-49.40359651 3.9985357 -46.97592435 3.35135246 -44.25 2.8125 C-43.4760791 2.65040039 -42.7021582 2.48830078 -41.90478516 2.32128906 C-6.79919303 -4.71780741 -6.79919303 -4.71780741 0 0 Z " fill="#7A88C0" transform="translate(396.0625,265.125)"/>
<path d="M0 0 C6.72441752 0.85191809 13.41255082 1.94420152 20.09765625 3.05859375 C21.99439087 3.37171509 21.99439087 3.37171509 23.92944336 3.69116211 C35.69506486 5.74671994 35.69506486 5.74671994 41.09765625 8.68359375 C42.51807446 11.52443016 42.41217897 13.53836653 42.09765625 16.68359375 C40.53515625 19.05859375 40.53515625 19.05859375 38.09765625 20.68359375 C33.43315877 20.94086819 29.32624941 20.45601952 24.78515625 19.43359375 C19.69248054 18.33718268 14.64530332 17.4580784 9.48046875 16.76953125 C8.31684814 16.61000977 7.15322754 16.45048828 5.9543457 16.28613281 C3.61662479 15.97115161 1.27653312 15.67323101 -1.06567383 15.39355469 C-9.25691312 14.26641484 -9.25691312 14.26641484 -12.640625 11.2109375 C-14.08528378 8.31714731 -14.55412178 6.86101167 -13.90234375 3.68359375 C-9.79633523 -1.63006433 -6.23859716 -0.59620091 0 0 Z " fill="#929ED2" transform="translate(249.90234375,263.31640625)"/>
<path d="M0 0 C2.84197088 2.1527552 3.88449254 3.33578996 4.50170898 6.88500977 C4.49985596 7.97612061 4.49800293 9.06723145 4.49609375 10.19140625 C4.49673828 11.38314453 4.49738281 12.57488281 4.49804688 13.80273438 C4.47806641 15.04345703 4.45808594 16.28417969 4.4375 17.5625 C4.44458984 18.80708984 4.45167969 20.05167969 4.45898438 21.33398438 C4.39473064 30.46295687 4.39473064 30.46295687 2.65649414 32.82788086 C0.16165007 34.59320826 -1.98063963 34.8151412 -5 35 C-7.77178813 34.23005885 -8.67610431 33.57144453 -10.09375 31.0703125 C-11.42812652 26.54953688 -11.28868738 22.18762129 -11.25 17.5 C-11.26160156 16.09427734 -11.26160156 16.09427734 -11.2734375 14.66015625 C-11.24823717 5.77703844 -11.24823717 5.77703844 -9 2 C-5.50875983 -0.32749345 -4.10777749 -0.50299316 0 0 Z " fill="#FCDB35" transform="translate(319,198)"/>
<path d="M0 0 C2.32592485 2.04227547 3.4140297 3.42518677 5 6 C5.61359375 6.93199219 6.2271875 7.86398438 6.859375 8.82421875 C12.44784145 17.73223427 12.44784145 17.73223427 12.6875 22 C11.84940071 25.65716055 11.16844489 26.96894558 8 29 C4.5625 29.625 4.5625 29.625 1 29 C-1.24253468 26.98171879 -2.41480949 25.50097505 -4 23 C-4.61488281 22.07960937 -5.22976563 21.15921875 -5.86328125 20.2109375 C-9.58806703 14.31398205 -12.27824556 10.0303506 -11 3 C-8.90122771 -1.19754459 -4.13902832 -0.95516038 0 0 Z " fill="#FCDB34" transform="translate(286,201)"/>
<path d="M0 0 C2.5667407 2.08547682 2.92250539 3.38460166 3.33203125 6.63671875 C2.88110769 11.20430916 1.00457571 14.28978349 -1.3125 18.1875 C-1.71662109 18.89841797 -2.12074219 19.60933594 -2.53710938 20.34179688 C-6.20839607 26.68745176 -6.20839607 26.68745176 -9 29 C-12.89504791 29.49573337 -15.09493717 29.58016848 -18.4375 27.4375 C-20.63830476 24.00424458 -20.41835946 22.05768056 -20 18 C-18.66410572 14.85476164 -16.93533857 12.01755199 -15.125 9.125 C-14.66480469 8.35414063 -14.20460938 7.58328125 -13.73046875 6.7890625 C-10.0349533 0.70485156 -7.5275011 -1.09295006 0 0 Z " fill="#FCDB34" transform="translate(354,201)"/>
<path d="M0 0 C2.97 0.33 5.94 0.66 9 1 C9 16.51 9 32.02 9 48 C3 46 3 46 0 44 C-0.36076355 42.08908081 -0.36076355 42.08908081 -0.34057617 39.73388672 C-0.34034958 38.85312469 -0.34012299 37.97236267 -0.33988953 37.06491089 C-0.32440567 36.11278717 -0.30892181 35.16066345 -0.29296875 34.1796875 C-0.28872391 33.20589142 -0.28447906 32.23209534 -0.28010559 31.22879028 C-0.26327786 28.11058195 -0.22561811 24.99301383 -0.1875 21.875 C-0.17245846 19.76433223 -0.15876914 17.65365436 -0.14648438 15.54296875 C-0.11336091 10.36173151 -0.06155051 5.18097439 0 0 Z " fill="#F03959" transform="translate(439,232)"/>
<path d="M0 0 C3.22931321 2.3066523 4.70711744 3.66575724 5.5625 7.5625 C4.75432336 11.06459879 4.0867508 12.06180764 1 14 C-3.92631721 14.7400689 -8.35168903 14.99665314 -12.6875 12.375 C-14.41943247 9.24102696 -14.6612339 7.5265808 -14 4 C-10.23739517 -0.61222528 -5.59530054 -1.17369776 0 0 Z " fill="#735F55" transform="translate(88,163)"/>
<path d="M0 0 C2.35565478 1.82373274 2.86435649 3.18461484 3.34765625 6.08984375 C3.62982893 10.43819716 3.40386435 12.4345899 0.8125 16.0625 C-2 18 -2 18 -4.5625 18.5625 C-8.06459879 17.75432336 -9.06180764 17.0867508 -11 14 C-11.7417378 9.06257362 -11.93991467 4.65424982 -9.4375 0.25 C-5.89097406 -1.56873125 -3.77175426 -1.0972376 0 0 Z " fill="#735F55" transform="translate(155,229)"/>
<path d="M0 0 C4.31023698 2.48565814 6.62961333 4.86934596 8.1875 9.625 C8 13 8 13 6.4375 15.4375 C3.24404588 17.48458598 1.73673498 17.6726123 -2 17 C-4.92081544 15.163478 -7.43218787 13.13562425 -9 10 C-9.4524237 3.77917415 -9.4524237 3.77917415 -7.875 1.0625 C-4.94344371 -0.59871523 -3.33317216 -0.57689518 0 0 Z " fill="#725E55" transform="translate(104,114)"/>
<path d="M0 0 C4.71928993 1.54597429 7.32333466 3.76725634 9.625 8.1875 C9.625 12 9.625 12 8.625 15.1875 C6.625 17.1875 6.625 17.1875 3.375 17.625 C-1.5395115 17.05164033 -2.92402506 15.63847494 -6.375 12.1875 C-7.79541821 9.34666359 -7.68952272 7.33272722 -7.375 4.1875 C-5.1725479 0.75167472 -4.09475798 0.22748655 0 0 Z " fill="#725E55" transform="translate(197.375,208.8125)"/>
<path d="M0 0 C2.625 1.5625 2.625 1.5625 4 4 C4.5 7.5625 4.5 7.5625 4 11 C1.13443774 13.81346113 -1.03457503 14.43145514 -5 14.4375 C-8.34170863 14.3241382 -9.7347052 14.16423011 -12.625 12.375 C-14.42208081 9.27095134 -14.58890625 7.53343747 -14 4 C-10.91308926 -1.33193673 -5.50286164 -0.88667372 0 0 Z " fill="#725E55" transform="translate(223,163)"/>
<path d="M0 0 C2.4375 1.4375 2.4375 1.4375 4 4 C4.8270352 8.57000897 4.55952672 11.94550733 2.375 16.0625 C0 18 0 18 -3 18.5625 C-6 18 -6 18 -8.375 16.6875 C-10.93102252 12.46023198 -10.8161173 7.81582729 -10 3 C-7.24893129 -0.79909488 -4.49774979 -0.55235524 0 0 Z " fill="#725E55" transform="translate(154,94)"/>
<path d="M0 0 C3.49373651 1.27655757 4.67602146 1.85436897 6.25 5.1875 C6.875 7.5 6.875 7.5 6.25 10.1875 C4.25606497 13.01077083 2.09259035 15.21700533 -0.75 17.1875 C-4.41360087 17.79810014 -6.42306463 17.91517424 -9.6875 16.125 C-11.47767424 12.86056463 -11.36060014 10.85110087 -10.75 7.1875 C-7.8752804 2.74398062 -5.37892318 0.26894616 0 0 Z " fill="#715D55" transform="translate(105.75,208.8125)"/>
<path d="M0 0 C3.499767 0.8554986 4.7772586 1.71291642 6.8125 4.6875 C7.5 7.5 7.5 7.5 6.8125 10.6875 C4.04488867 14.62876885 1.39401849 17.34638817 -3.375 18.375 C-6.874767 17.5195014 -8.1522586 16.66208358 -10.1875 13.6875 C-10.875 10.875 -10.875 10.875 -10.1875 7.6875 C-7.41988867 3.74623115 -4.76901849 1.02861183 0 0 Z " fill="#705C54" transform="translate(200.1875,113.3125)"/>
</svg>
