<?xml version="1.0" encoding="UTF-8"?>
<svg version="1.1" xmlns="http://www.w3.org/2000/svg" width="256" height="256">
<path d="M0 0 C15.54978307 12.02696064 23.6128187 27.2957958 27.6875 46.1875 C28.09099247 49.81893225 28.06298738 53.34673192 28 57 C28.66 56.67 29.32 56.34 30 56 C42.62290551 54.83020488 54.04634394 58.64175502 63.75 66.6875 C72.8611252 75.29960597 76.94512317 86.05148336 77.375 98.5 C76.89375571 112.45608433 71.22654774 125.42710789 61 135 C47.16360855 146.47142867 31.36403382 147.16022127 14.24609375 147.09765625 C12.73438057 147.09578775 11.22266677 147.09436589 9.71095276 147.09336853 C5.76055181 147.08957732 1.81018848 147.07977661 -2.14019775 147.06866455 C-6.1826527 147.05837685 -10.22511382 147.05385524 -14.26757812 147.04882812 C-22.17840255 147.0381508 -30.08919658 147.02111591 -38 147 C-38 150.3 -38 153.6 -38 157 C-36.76958984 156.98428955 -35.53917969 156.9685791 -34.27148438 156.95239258 C-29.67942933 156.89783738 -25.08740259 156.86355719 -20.49511719 156.83520508 C-18.5126462 156.82017656 -16.53020814 156.79974802 -14.54785156 156.77368164 C-11.68806807 156.73703617 -8.82872656 156.72021396 -5.96875 156.70703125 C-5.09134155 156.69154739 -4.21393311 156.67606354 -3.30993652 156.66011047 C2.47546737 156.65855034 6.73395013 157.55020854 12 160 C17.80217082 166.09971804 17.24451029 171.17282251 17.3125 179.25 C17.34150391 180.38308594 17.37050781 181.51617187 17.40039062 182.68359375 C17.4492562 189.09626098 17.39949946 193.16869782 13 198 C9.39865569 201.16481773 6.36799666 202.12712893 1.62036133 202.11352539 C0.73967484 202.11344986 -0.14101166 202.11337433 -1.04838562 202.11329651 C-1.99534805 202.10813522 -2.94231049 202.10297394 -3.91796875 202.09765625 C-4.89034988 202.0962413 -5.86273102 202.09482635 -6.86457825 202.09336853 C-9.97225004 202.08776817 -13.07984996 202.07521562 -16.1875 202.0625 C-18.29361875 202.05748505 -20.39973863 202.05292213 -22.50585938 202.04882812 C-27.67060064 202.03779862 -32.83528813 202.02053375 -38 202 C-38 207.94 -38 213.88 -38 220 C-36.02 220.99 -36.02 220.99 -34 222 C-33.51587646 222.52875732 -33.03175293 223.05751465 -32.53295898 223.60229492 C-30.47149813 225.48187183 -29.22988946 225.37359752 -26.47265625 225.36328125 C-25.59802734 225.36263672 -24.72339844 225.36199219 -23.82226562 225.36132812 C-22.91154297 225.34521484 -22.00082031 225.32910156 -21.0625 225.3125 C-20.15564453 225.31572266 -19.24878906 225.31894531 -18.31445312 225.32226562 C-13.83955665 225.28604498 -11.00024241 225.04920551 -7 223 C-3.57091775 223.13996254 -1.70124565 223.36887891 0.875 225.6875 C2.35810604 228.73610685 2.48891657 230.64742924 2 234 C0.2018428 236.3761363 -1.22813948 237.65141783 -3.9375 238.875 C-6.70885068 239.04296065 -8.52813645 238.20252821 -11 237 C-11.33 236.67 -11.66 236.34 -12 236 C-15.07192444 235.63941579 -18.15977765 235.62849149 -21.25 235.5625 C-22.10980469 235.51673828 -22.96960938 235.47097656 -23.85546875 235.42382812 C-28.58907363 235.24775815 -28.58907363 235.24775815 -32.65429688 237.33154297 C-34.17361207 239.14326189 -34.17361207 239.14326189 -36 242 C-39.72754354 243.86377177 -43.94165706 243.56469298 -48 243 C-50.7132114 241.62211421 -51.93248622 240.33955506 -54 238 C-54 237.01 -54 236.02 -54 235 C-57.23016726 235.08125925 -60.45849888 235.19406605 -63.6875 235.3125 C-64.59951172 235.33505859 -65.51152344 235.35761719 -66.45117188 235.38085938 C-71.57111595 235.58565714 -74.67917297 236.04662572 -79 239 C-82.6875 238.5 -82.6875 238.5 -86 237 C-87.80075884 234.22383013 -88.04692942 232.65701181 -87.8125 229.375 C-86.90645253 226.72655355 -86.27102425 225.62216018 -84 224 C-81.18012437 223.0353057 -79.71562121 222.66364419 -76.98046875 223.94921875 C-72.60486453 225.49186296 -68.29652594 225.46865142 -63.6875 225.625 C-62.29047852 225.68300781 -62.29047852 225.68300781 -60.86523438 225.7421875 C-58.57701593 225.83606313 -56.28879705 225.92174509 -54 226 C-53.7525 225.38125 -53.505 224.7625 -53.25 224.125 C-52 222 -52 222 -48 220 C-48 214.06 -48 208.12 -48 202 C-49.93649414 202.03927612 -49.93649414 202.03927612 -51.91210938 202.0793457 C-56.72768647 202.17023187 -61.5431886 202.22738879 -66.359375 202.2746582 C-68.43893202 202.29971505 -70.51840174 202.33377021 -72.59765625 202.37719727 C-75.59657394 202.43823845 -78.59432178 202.46629842 -81.59375 202.48828125 C-82.97548401 202.52699089 -82.97548401 202.52699089 -84.38513184 202.56648254 C-90.78585486 202.56922847 -95.06843416 201.15931003 -100 197 C-103.97852453 191.76883112 -103.48134741 185.80605431 -103.4375 179.5 C-103.45748047 178.48035156 -103.47746094 177.46070313 -103.49804688 176.41015625 C-103.4940554 170.27127187 -103.08822353 166.66688753 -99 162 C-93.10303758 156.40544591 -87.23844925 156.8567436 -79.54296875 156.90234375 C-78.18852409 156.90446617 -78.18852409 156.90446617 -76.80671692 156.90663147 C-73.93361037 156.91221177 -71.06058284 156.92476066 -68.1875 156.9375 C-66.23502717 156.94251755 -64.28255311 156.94708001 -62.33007812 156.95117188 C-57.55335515 156.96217475 -52.77669096 156.97942582 -48 157 C-48 153.7 -48 150.4 -48 147 C-48.81051315 147.00444122 -49.62102631 147.00888245 -50.45610046 147.01345825 C-58.14858735 147.0537734 -65.84102195 147.08410436 -73.53358746 147.10362434 C-77.48703764 147.11399756 -81.44039947 147.1280364 -85.39379883 147.15087891 C-89.21934166 147.17284069 -93.0448003 147.18461701 -96.87040138 147.18975449 C-98.31940852 147.19340887 -99.76841181 147.20054288 -101.21738243 147.21146011 C-119.98048803 147.34702139 -135.58097694 144.92642264 -149.6875 131.75 C-159.45310126 121.44060656 -163 108.96310099 -163 95 C-161.66093217 77.15273655 -154.15096764 62.11845365 -141 50 C-131.36325435 42.86211271 -121.02281611 37.90738235 -109 37 C-108.85304687 36.40574219 -108.70609375 35.81148437 -108.5546875 35.19921875 C-103.92455009 18.08899832 -92.48259135 4.3647289 -77.265625 -4.61328125 C-52.40182986 -17.86739427 -22.82125213 -16.81886673 0 0 Z " fill="#FDDB41" transform="translate(171,13)"/>
<path d="M0 0 C0.89496185 -0.0049649 1.78992371 -0.00992981 2.71200562 -0.01504517 C5.66567765 -0.02962136 8.61929599 -0.03646106 11.57299805 -0.04199219 C13.63176982 -0.04774717 15.69054159 -0.05350486 17.74931335 -0.05926514 C22.06416065 -0.06976206 26.37898939 -0.07561336 30.69384766 -0.07910156 C36.21172112 -0.08458491 41.72934767 -0.10861521 47.24714375 -0.13707352 C51.49975798 -0.1557337 55.75231312 -0.16090729 60.00496483 -0.16243744 C62.0386509 -0.16545661 64.07233611 -0.17346022 66.10598183 -0.18662262 C68.95626033 -0.20375451 71.80594033 -0.20178548 74.65625 -0.1953125 C75.48925125 -0.20452728 76.3222525 -0.21374207 77.18049622 -0.22323608 C82.76923365 -0.18365194 86.92485981 0.82053307 92.0222168 3.16113281 C97.82438762 9.26085085 97.26672709 14.33395533 97.3347168 22.41113281 C97.37822266 24.11076172 97.37822266 24.11076172 97.42260742 25.84472656 C97.471473 32.25739379 97.42171625 36.32983063 93.0222168 41.16113281 C89.42087249 44.32595054 86.39021346 45.28826174 81.64257812 45.2746582 C80.76189163 45.27458267 79.88120514 45.27450714 78.97383118 45.27442932 C78.02686874 45.26926804 77.07990631 45.26410675 76.10424805 45.25878906 C75.13186691 45.25737411 74.15948578 45.25595917 73.15763855 45.25450134 C70.04996676 45.24890098 66.94236684 45.23634843 63.8347168 45.22363281 C61.72859805 45.21861786 59.62247817 45.21405494 57.51635742 45.20996094 C52.35161616 45.19893143 47.18692867 45.18166656 42.0222168 45.16113281 C42.0222168 51.10113281 42.0222168 57.04113281 42.0222168 63.16113281 C44.0022168 64.15113281 44.0022168 64.15113281 46.0222168 65.16113281 C46.50634033 65.68989014 46.99046387 66.21864746 47.48925781 66.76342773 C49.55071866 68.64300464 50.79232734 68.53473034 53.54956055 68.52441406 C54.42418945 68.52376953 55.29881836 68.523125 56.19995117 68.52246094 C57.11067383 68.50634766 58.02139648 68.49023438 58.9597168 68.47363281 C59.86657227 68.47685547 60.77342773 68.48007813 61.70776367 68.48339844 C66.18266014 68.44717779 69.02197439 68.21033832 73.0222168 66.16113281 C76.45129905 66.30109535 78.32097114 66.53001172 80.8972168 68.84863281 C82.38032283 71.89723967 82.51113337 73.80856205 82.0222168 77.16113281 C80.2240596 79.53726911 78.79407732 80.81255064 76.0847168 82.03613281 C73.31336612 82.20409346 71.49408035 81.36366103 69.0222168 80.16113281 C68.6922168 79.83113281 68.3622168 79.50113281 68.0222168 79.16113281 C64.95029236 78.8005486 61.86243915 78.78962431 58.7722168 78.72363281 C57.48250977 78.65499023 57.48250977 78.65499023 56.16674805 78.58496094 C51.43314317 78.40889097 51.43314317 78.40889097 47.36791992 80.49267578 C45.84860472 82.3043947 45.84860472 82.3043947 44.0222168 85.16113281 C40.29467325 87.02490458 36.08055974 86.72582579 32.0222168 86.16113281 C29.30900539 84.78324702 28.08973057 83.50068788 26.0222168 81.16113281 C26.0222168 80.17113281 26.0222168 79.18113281 26.0222168 78.16113281 C22.79204954 78.24239206 19.56371791 78.35519886 16.3347168 78.47363281 C15.42270508 78.49619141 14.51069336 78.51875 13.57104492 78.54199219 C8.45110085 78.74678995 5.34304383 79.20775853 1.0222168 82.16113281 C-2.6652832 81.66113281 -2.6652832 81.66113281 -5.9777832 80.16113281 C-7.77854204 77.38496294 -8.02471262 75.81814463 -7.7902832 72.53613281 C-6.88423573 69.88768636 -6.24880745 68.78329299 -3.9777832 67.16113281 C-1.15790757 66.19643852 0.30659558 65.824777 3.04174805 67.11035156 C7.41735226 68.65299578 11.72569085 68.62978423 16.3347168 68.78613281 C17.26606445 68.82480469 18.19741211 68.86347656 19.15698242 68.90332031 C21.44520087 68.99719594 23.73341975 69.0828779 26.0222168 69.16113281 C26.3934668 68.23300781 26.3934668 68.23300781 26.7722168 67.28613281 C28.0222168 65.16113281 28.0222168 65.16113281 32.0222168 63.16113281 C32.0222168 57.22113281 32.0222168 51.28113281 32.0222168 45.16113281 C30.08572266 45.20040894 30.08572266 45.20040894 28.11010742 45.24047852 C23.29453033 45.33136468 18.47902819 45.3885216 13.6628418 45.43579102 C11.58328478 45.46084787 9.50381506 45.49490303 7.42456055 45.53833008 C4.42564285 45.59937127 1.42789502 45.62743123 -1.5715332 45.64941406 C-2.95326721 45.6881237 -2.95326721 45.6881237 -4.36291504 45.72761536 C-10.76363806 45.73036129 -15.04621736 44.32044285 -19.9777832 40.16113281 C-23.95630773 34.92996393 -23.45913061 28.96718712 -23.4152832 22.66113281 C-23.43526367 21.64148438 -23.45524414 20.62183594 -23.47583008 19.57128906 C-23.47183861 13.43240468 -23.06600674 9.82802034 -18.9777832 5.16113281 C-13.2136467 -0.30740694 -7.52653793 0.01002725 0 0 Z " fill="#01EED0" transform="translate(90.977783203125,169.8388671875)"/>
<path d="M0 0 C0.94708832 -0.00525696 1.89417664 -0.01051392 2.8699646 -0.01593018 C5.99030205 -0.02909829 9.1101264 -0.02040322 12.23046875 -0.01025391 C14.40470477 -0.01227555 16.57894013 -0.01518775 18.75317383 -0.01895142 C23.30589261 -0.02337046 27.8584346 -0.01695709 32.41113281 -0.00292969 C38.24196954 0.01416178 44.07239197 0.00431838 49.9032135 -0.01364708 C54.39167391 -0.02449616 58.88003637 -0.02103338 63.36849976 -0.0132637 C65.51826018 -0.01126481 67.66802955 -0.01371002 69.81777954 -0.02070236 C72.82407128 -0.02833516 75.82969538 -0.0166866 78.8359375 0 C79.72131195 -0.00607269 80.6066864 -0.01214539 81.51889038 -0.0184021 C86.56576098 0.03340052 90.04756363 0.58636914 94.41796875 3.38818359 C99.81206379 9.21963769 99.62695007 14.14811967 99.66796875 21.70068359 C99.68859375 22.63847656 99.70921875 23.57626953 99.73046875 24.54248047 C99.76527319 30.71591795 99.25800584 35.2744971 94.91796875 40.03271484 C89.41917395 44.3143285 85.33967934 44.54047895 78.57543945 44.54931641 C77.2188044 44.55676376 77.2188044 44.55676376 75.83476257 44.56436157 C72.83775067 44.57898517 69.84079175 44.58578649 66.84375 44.59130859 C64.75969949 44.59706107 62.67564899 44.60281879 60.59159851 44.60858154 C56.21772007 44.6190929 51.84386 44.6249343 47.4699707 44.62841797 C41.8758127 44.63389478 36.28189907 44.65790495 30.68781757 44.68638992 C26.38029786 44.70505241 22.07283649 44.71022389 17.76527977 44.71175385 C15.70368302 44.7147741 13.64208714 44.72278137 11.58053017 44.73593903 C8.68932388 44.75307049 5.79870771 44.7511016 2.9074707 44.74462891 C2.06197662 44.75384369 1.21648254 44.76305847 0.34536743 44.77255249 C-5.53837555 44.73146952 -11.58111227 44.1057997 -16.14628124 39.97160721 C-21.03468804 34.33503796 -20.85035418 29.27531313 -20.95703125 22.20068359 C-20.99441406 21.27964844 -21.03179687 20.35861328 -21.0703125 19.40966797 C-21.14326711 13.69894357 -20.3394529 9.87334102 -17.24853516 5.05102539 C-12.21067367 0.02423451 -6.66518196 -0.0457158 0 0 Z " fill="#03EECF" transform="translate(88.58203125,103.61181640625)"/>
<path d="M0 0 C2.97 0 5.94 0 9 0 C9 6.27 9 12.54 9 19 C10.32 19.66 11.64 20.32 13 21 C13.48412354 21.52875732 13.96824707 22.05751465 14.46704102 22.60229492 C16.52850187 24.48187183 17.77011054 24.37359752 20.52734375 24.36328125 C21.40197266 24.36263672 22.27660156 24.36199219 23.17773438 24.36132812 C24.08845703 24.34521484 24.99917969 24.32910156 25.9375 24.3125 C26.84435547 24.31572266 27.75121094 24.31894531 28.68554688 24.32226562 C33.16044335 24.28604498 35.99975759 24.04920551 40 22 C43.42908225 22.13996254 45.29875435 22.36887891 47.875 24.6875 C49.35810604 27.73610685 49.48891657 29.64742924 49 33 C47.2018428 35.3761363 45.77186052 36.65141783 43.0625 37.875 C40.29114932 38.04296065 38.47186355 37.20252821 36 36 C35.67 35.67 35.34 35.34 35 35 C31.92807556 34.63941579 28.84022235 34.62849149 25.75 34.5625 C24.46029297 34.49385742 24.46029297 34.49385742 23.14453125 34.42382812 C18.41092637 34.24775815 18.41092637 34.24775815 14.34570312 36.33154297 C12.82638793 38.14326189 12.82638793 38.14326189 11 41 C7.27245646 42.86377177 3.05834294 42.56469298 -1 42 C-3.7132114 40.62211421 -4.93248622 39.33955506 -7 37 C-7 36.01 -7 35.02 -7 34 C-10.23016726 34.08125925 -13.45849888 34.19406605 -16.6875 34.3125 C-17.59951172 34.33505859 -18.51152344 34.35761719 -19.45117188 34.38085938 C-24.57111595 34.58565714 -27.67917297 35.04662572 -32 38 C-35.6875 37.5 -35.6875 37.5 -39 36 C-40.80075884 33.22383013 -41.04692942 31.65701181 -40.8125 28.375 C-39.90645253 25.72655355 -39.27102425 24.62216018 -37 23 C-34.18012437 22.0353057 -32.71562121 21.66364419 -29.98046875 22.94921875 C-25.60486453 24.49186296 -21.29652594 24.46865142 -16.6875 24.625 C-15.75615234 24.66367188 -14.82480469 24.70234375 -13.86523438 24.7421875 C-11.57701593 24.83606313 -9.28879705 24.92174509 -7 25 C-6.71382812 24.36578125 -6.42765625 23.7315625 -6.1328125 23.078125 C-4.77344458 20.58438799 -3.58919691 20.03567876 -1 19 C-1.01160156 17.71222656 -1.02320313 16.42445313 -1.03515625 15.09765625 C-1.0445327 13.41927228 -1.05363305 11.74088674 -1.0625 10.0625 C-1.07087891 9.21236328 -1.07925781 8.36222656 -1.08789062 7.48632812 C-1.09111328 6.67744141 -1.09433594 5.86855469 -1.09765625 5.03515625 C-1.10289307 4.2862915 -1.10812988 3.53742676 -1.11352539 2.76586914 C-1 1 -1 1 0 0 Z " fill="#02ACE8" transform="translate(124,214)"/>
<path d="M0 0 C2.97 0 5.94 0 9 0 C9 7.92 9 15.84 9 24 C6.03 24 3.06 24 0 24 C-1 23 -1 23 -1.1328125 21.171875 C-1.10993828 14.08086548 -0.61988854 7.06230155 0 0 Z " fill="#F0B945" transform="translate(124,147)"/>
<path d="M0 0 C2.375 1.625 2.375 1.625 4 4 C4.5625 7.4375 4.5625 7.4375 4 11 C1.55401113 14.38121991 0.10703441 15.76936783 -4 16.625 C-8.10703441 15.76936783 -9.55401113 14.38121991 -12 11 C-12.5625 7.4375 -12.5625 7.4375 -12 4 C-8.27771943 -0.71488872 -5.77958862 -1.50269304 0 0 Z " fill="#00ADE9" transform="translate(95,185)"/>
<path d="M0 0 C2.375 1.625 2.375 1.625 4 4 C4.5625 7.4375 4.5625 7.4375 4 11 C1.55401113 14.38121991 0.10703441 15.76936783 -4 16.625 C-8.10703441 15.76936783 -9.55401113 14.38121991 -12 11 C-12.5625 7.4375 -12.5625 7.4375 -12 4 C-8.27771943 -0.71488872 -5.77958862 -1.50269304 0 0 Z " fill="#00ADE9" transform="translate(95,118)"/>
<path d="M0 0 C2.52224843 2.27002359 2.94705668 3.63696007 3.4375 7 C2.89789419 10.70015415 1.95976712 11.78017466 -1 14 C-3.66294512 15.20262038 -4.77429061 15.05911436 -7.625 14.3125 C-10 13 -10 13 -11.375 11.3125 C-12.30901131 7.85665814 -11.93697066 5.43555907 -11 2 C-7.37154796 -1.31744186 -4.6081237 -1.50264903 0 0 Z " fill="#04EECD" transform="translate(170,237)"/>
<path d="M0 0 C0.66 0.33 1.32 0.66 2 1 C3.0708593 4.96942581 3.57869435 8.71401256 1.875 12.5 C-0.50480672 14.40384538 -1.95450782 14.85497656 -5 15 C-7.6875 14.375 -7.6875 14.375 -10 13 C-11.64520744 10.23306021 -12.04174772 8.58446803 -11.8125 5.375 C-9.68533422 -0.84286921 -5.87754576 -1.2244887 0 0 Z " fill="#02EED0" transform="translate(95,237)"/>
<path d="M0 0 C2.97 0 5.94 0 9 0 C9 6.27 9 12.54 9 19 C5.7 18.67 2.4 18.34 -1 18 C-1.02684312 15.18743719 -1.04676188 12.37512759 -1.0625 9.5625 C-1.07087891 8.76005859 -1.07925781 7.95761719 -1.08789062 7.13085938 C-1.0965143 5.08704779 -1.0522815 3.04316098 -1 1 C-0.67 0.67 -0.34 0.34 0 0 Z " fill="#EDB947" transform="translate(124,214)"/>
<path d="M0 0 C6.6 0 13.2 0 20 0 C20 2.97 20 5.94 20 9 C13.73 9 7.46 9 1 9 C0.67 6.03 0.34 3.06 0 0 Z " fill="#F2B745" transform="translate(139,239)"/>
<path d="M0 0 C6.6 0 13.2 0 20 0 C20 2.97 20 5.94 20 9 C13.4 9 6.8 9 0 9 C0 6.03 0 3.06 0 0 Z " fill="#F3B744" transform="translate(97,239)"/>
<path d="M0 0 C3.0625 0.25 3.0625 0.25 6 1 C7.47694068 3.95388136 7.20930797 6.65161882 7.25 9.9375 C7.27578125 11.18402344 7.3015625 12.43054688 7.328125 13.71484375 C7 17 7 17 5.6484375 18.95703125 C4 20 4 20 1.375 19.75 C-1 19 -1 19 -2 18 C-2.12658222 15.34177343 -2.18520214 12.72112576 -2.1875 10.0625 C-2.19974609 9.32064453 -2.21199219 8.57878906 -2.22460938 7.81445312 C-2.22988478 5.87486371 -2.12188902 3.9357629 -2 2 C-1.34 1.34 -0.68 0.68 0 0 Z " fill="#E4BB4C" transform="translate(154,114)"/>
<path d="M0 0 C2.9375 0.375 2.9375 0.375 6 1 C7.47694068 3.95388136 7.20930797 6.65161882 7.25 9.9375 C7.27578125 11.18402344 7.3015625 12.43054688 7.328125 13.71484375 C7 17 7 17 5.6484375 18.953125 C4 20 4 20 1.375 19.8125 C-1 19 -1 19 -2 17 C-2.1230891 14.68993256 -2.1755634 12.37581364 -2.1875 10.0625 C-2.20167969 8.81597656 -2.21585938 7.56945312 -2.23046875 6.28515625 C-2 3 -2 3 0 0 Z " fill="#E5BB4C" transform="translate(143,114)"/>
<path d="M0 0 C2.5 0.25 2.5 0.25 4.5 2.25 C4.69849071 4.79535141 4.77851775 7.20716759 4.75 9.75 C4.75773438 10.43964844 4.76546875 11.12929687 4.7734375 11.83984375 C4.75333293 16.99666707 4.75333293 16.99666707 2.5 19.25 C-0.625 19.375 -0.625 19.375 -3.5 19.25 C-5.0171199 16.21576019 -4.68439257 13.07495206 -4.6875 9.75 C-4.69974609 9.06035156 -4.71199219 8.37070313 -4.72460938 7.66015625 C-4.72988695 5.85522506 -4.62184458 4.05082158 -4.5 2.25 C-2.5 0.25 -2.5 0.25 0 0 Z " fill="#E5BB4C" transform="translate(156.5,182.75)"/>
<path d="M0 0 C2.5 0.25 2.5 0.25 4.5 2.25 C4.69849071 4.79535141 4.77851775 7.20716759 4.75 9.75 C4.75773438 10.43964844 4.76546875 11.12929687 4.7734375 11.83984375 C4.75333293 16.99666707 4.75333293 16.99666707 2.5 19.25 C0 19.5 0 19.5 -2.5 19.25 C-4.99210439 16.75789561 -4.76015661 15.24639212 -4.7734375 11.83984375 C-4.76570312 11.15019531 -4.75796875 10.46054688 -4.75 9.75 C-4.75773438 9.06035156 -4.76546875 8.37070313 -4.7734375 7.66015625 C-4.74542341 0.47454234 -4.74542341 0.47454234 0 0 Z " fill="#E8BA4A" transform="translate(145.5,182.75)"/>
<path d="M0 0 C4.55555556 0.55555556 4.55555556 0.55555556 6 2 C6.12658222 4.65822657 6.18520214 7.27887424 6.1875 9.9375 C6.19974609 10.67935547 6.21199219 11.42121094 6.22460938 12.18554688 C6.22988478 14.12513629 6.12188902 16.0642371 6 18 C5.34 18.66 4.68 19.32 4 20 C-0.55555556 19.44444444 -0.55555556 19.44444444 -2 18 C-2.12658222 15.34177343 -2.18520214 12.72112576 -2.1875 10.0625 C-2.19974609 9.32064453 -2.21199219 8.57878906 -2.22460938 7.81445312 C-2.22988478 5.87486371 -2.12188902 3.9357629 -2 2 C-1.34 1.34 -0.68 0.68 0 0 Z " fill="#EFB846" transform="translate(165,114)"/>
<path d="M0 0 C4.55555556 0.55555556 4.55555556 0.55555556 6 2 C6.09981214 4.6773138 6.13879875 7.32304175 6.125 10 C6.12886719 10.75023437 6.13273438 11.50046875 6.13671875 12.2734375 C6.12661053 17.87338947 6.12661053 17.87338947 5 19 C2 19.125 2 19.125 -1 19 C-3.04266429 16.95733571 -2.18507944 12.86308566 -2.1875 10.0625 C-2.19974609 9.32064453 -2.21199219 8.57878906 -2.22460938 7.81445312 C-2.22988478 5.87486371 -2.12188902 3.9357629 -2 2 C-1.34 1.34 -0.68 0.68 0 0 Z " fill="#F1B845" transform="translate(165,183)"/>
</svg>
