<?xml version="1.0" encoding="UTF-8"?>
<svg version="1.1" xmlns="http://www.w3.org/2000/svg" width="512" height="512">
<path d="M0 0 C1.96646484 -0.01836914 1.96646484 -0.01836914 3.97265625 -0.03710938 C23.61999712 -0.06666907 23.61999712 -0.06666907 31.125 6.1875 C36.13648817 11.47740417 37.29175983 16.93348276 37.8359375 24.0546875 C37.94679688 25.35277344 38.05765625 26.65085937 38.171875 27.98828125 C38.33836233 30.02383373 38.49977471 32.05947318 38.65136719 34.09619141 C39.50425421 47.2209444 39.50425421 47.2209444 46.875 57.625 C52.39629531 60.2794689 56.18420765 60.7657769 61.953125 59.046875 C66.37475173 57.2920579 69.52565069 54.69013876 73 51.5 C74.21523875 50.42475519 75.43138991 49.35054073 76.6484375 48.27734375 C77.2372168 47.75253418 77.82599609 47.22772461 78.43261719 46.68701172 C80.79140685 44.59703969 83.1920172 42.56548433 85.625 40.5625 C86.72328125 39.64597656 86.72328125 39.64597656 87.84375 38.7109375 C93.18493752 35.14404857 98.87406442 34.29013894 105.125 35.1875 C115.6958454 37.99163351 123.67563289 47.68938049 131.125 55.1875 C131.66318359 55.72842285 132.20136719 56.2693457 132.75585938 56.82666016 C140.65165048 64.86586887 145.51814183 70.81827229 145.65625 82.28125 C144.28318152 89.79274225 139.78655059 95.13891201 134.75 100.625 C124.37139199 111.70311656 124.37139199 111.70311656 120.84765625 125.8046875 C121.43256077 130.82992354 123.89465352 133.98953106 127.5 137.5 C134.64206637 140.82475503 142.65076365 141.02253296 150.42578125 141.57421875 C151.34673584 141.64560059 152.26769043 141.71698242 153.21655273 141.79052734 C155.0310544 141.92708049 156.84715098 142.04424778 158.66430664 142.13916016 C166.17189535 142.70086061 171.30813458 145.22237851 176.5 150.6875 C182.38126478 159.73559967 181.30742003 170.66889124 181.3125 181.0625 C181.32474609 182.37347656 181.33699219 183.68445313 181.34960938 185.03515625 C181.37916907 204.68249712 181.37916907 204.68249712 175.125 212.1875 C169.83509583 217.19898817 164.37901724 218.35425983 157.2578125 218.8984375 C155.95972656 219.00929688 154.66164063 219.12015625 153.32421875 219.234375 C151.28866627 219.40086233 149.25302682 219.56227471 147.21630859 219.71386719 C134.0915556 220.56675421 134.0915556 220.56675421 123.6875 227.9375 C121.0330311 233.45879531 120.5467231 237.24670765 122.265625 243.015625 C124.02039234 247.43712637 126.62216328 250.58843374 129.8125 254.0625 C130.88782691 255.27636296 131.96204093 256.49121269 133.03515625 257.70703125 C133.55996582 258.29564941 134.08477539 258.88426758 134.62548828 259.49072266 C136.72394386 261.86523686 138.74865556 264.29330379 140.75 266.75 C141.66652344 267.86568359 141.66652344 267.86568359 142.6015625 269.00390625 C146.41506434 274.46992555 146.96570668 279.70068366 146.125 286.1875 C143.41081338 296.74068614 133.58935493 304.77167793 126.125 312.1875 C125.58407715 312.72568359 125.0431543 313.26386719 124.48583984 313.81835938 C116.44663113 321.71415048 110.49422771 326.58064183 99.03125 326.71875 C91.51975775 325.34568152 86.17358799 320.84905059 80.6875 315.8125 C69.60938344 305.43389199 69.60938344 305.43389199 55.5078125 301.91015625 C51.48952701 302.37785833 49.38522829 303.7583103 46.125 306.1875 C42.85003383 310.39387857 41.56001852 313.53402761 41 318.8125 C40.84917969 320.11574219 40.69835937 321.41898437 40.54296875 322.76171875 C40.22491327 325.94882393 39.97402837 329.13786564 39.73828125 332.33203125 C39.6312085 333.64856689 39.6312085 333.64856689 39.52197266 334.99169922 C39.38575595 336.70409249 39.26849694 338.41813582 39.17333984 340.13330078 C38.59358552 347.4235279 35.92462651 352.52785482 30.625 357.5625 C21.57690033 363.44376478 10.64360876 362.36992003 0.25 362.375 C-1.06097656 362.38724609 -2.37195313 362.39949219 -3.72265625 362.41210938 C-23.36999712 362.44166907 -23.36999712 362.44166907 -30.875 356.1875 C-35.88648817 350.89759583 -37.04175983 345.44151724 -37.5859375 338.3203125 C-37.69679687 337.02222656 -37.80765625 335.72414063 -37.921875 334.38671875 C-38.08836233 332.35116627 -38.24977471 330.31552682 -38.40136719 328.27880859 C-39.26760623 315.18873519 -39.26760623 315.18873519 -46.5625 304.75 C-52.24940553 302.06749739 -56.60642188 301.43130729 -62.625 303.4375 C-68.38509703 306.7420975 -73.29261417 311.4539433 -78.28076172 315.80224609 C-80.59915481 317.81672732 -82.94341011 319.79541151 -85.3125 321.75 C-86.05371094 322.37003906 -86.79492188 322.99007813 -87.55859375 323.62890625 C-92.9056138 327.22664824 -98.60261122 328.0879408 -104.875 327.1875 C-115.4458454 324.38336649 -123.42563289 314.68561951 -130.875 307.1875 C-131.41318359 306.64657715 -131.95136719 306.1056543 -132.50585938 305.54833984 C-140.40165048 297.50913113 -145.26814183 291.55672771 -145.40625 280.09375 C-144.03318152 272.58225775 -139.53655059 267.23608799 -134.5 261.75 C-124.12139199 250.67188344 -124.12139199 250.67188344 -120.59765625 236.5703125 C-121.18256077 231.54507646 -123.64465352 228.38546894 -127.25 224.875 C-134.39206637 221.55024497 -142.40076365 221.35246704 -150.17578125 220.80078125 C-151.09673584 220.72939941 -152.01769043 220.65801758 -152.96655273 220.58447266 C-154.7810544 220.44791951 -156.59715098 220.33075222 -158.41430664 220.23583984 C-165.92189535 219.67413939 -171.05813458 217.15262149 -176.25 211.6875 C-182.13126478 202.63940033 -181.05742003 191.70610876 -181.0625 181.3125 C-181.08086914 179.34603516 -181.08086914 179.34603516 -181.09960938 177.33984375 C-181.12916907 157.69250288 -181.12916907 157.69250288 -174.875 150.1875 C-169.58509583 145.17601183 -164.12901724 144.02074017 -157.0078125 143.4765625 C-155.70972656 143.36570313 -154.41164063 143.25484375 -153.07421875 143.140625 C-151.03866627 142.97413767 -149.00302682 142.81272529 -146.96630859 142.66113281 C-133.8415556 141.80824579 -133.8415556 141.80824579 -123.4375 134.4375 C-120.7830311 128.91620469 -120.2967231 125.12829235 -122.015625 119.359375 C-123.7704421 114.93774827 -126.37236124 111.78684931 -129.5625 108.3125 C-130.63774481 107.09726125 -131.71195927 105.88111009 -132.78515625 104.6640625 C-133.57237061 103.78089355 -133.57237061 103.78089355 -134.37548828 102.87988281 C-136.46546031 100.52109315 -138.49701567 98.1204828 -140.5 95.6875 C-141.11101562 94.9553125 -141.72203125 94.223125 -142.3515625 93.46875 C-145.91845143 88.12756248 -146.77236106 82.43843558 -145.875 76.1875 C-143.07086649 65.6166546 -133.37311951 57.63686711 -125.875 50.1875 C-125.06361572 49.38022461 -125.06361572 49.38022461 -124.23583984 48.55664062 C-116.19663113 40.66084952 -110.24422771 35.79435817 -98.78125 35.65625 C-91.26975775 37.02931848 -85.92358799 41.52594941 -80.4375 46.5625 C-69.35938344 56.94110801 -69.35938344 56.94110801 -55.2578125 60.46484375 C-51.23952701 59.99714167 -49.13522829 58.6166897 -45.875 56.1875 C-42.60003383 51.98112143 -41.31001852 48.84097239 -40.75 43.5625 C-40.59917969 42.25925781 -40.44835937 40.95601562 -40.29296875 39.61328125 C-39.97491327 36.42617607 -39.72402837 33.23713436 -39.48828125 30.04296875 C-39.3812085 28.72643311 -39.3812085 28.72643311 -39.27197266 27.38330078 C-39.13575595 25.67090751 -39.01849694 23.95686418 -38.92333984 22.24169922 C-38.34358552 14.9514721 -35.67462651 9.84714518 -30.375 4.8125 C-21.32690033 -1.06876478 -10.39360876 0.00507997 0 0 Z M-53.41308594 128.71826172 C-67.54560883 142.92158883 -74.08381922 161.29104866 -74.3125 181 C-74.18250177 201.96341774 -66.87504975 219.66342284 -52.328125 234.7578125 C-38.17121423 248.686386 -18.63922925 256.1875 1.125 256.1875 C23.4087834 254.77964004 42.68813552 245.96633618 57.6953125 229.33984375 C71.95290817 211.38493937 75.75049198 191.70154309 74.125 169.1875 C71.86951842 150.33215132 59.98765028 132.93977011 45.375 121.3125 C14.17196432 99.32486864 -25.77728436 102.40052901 -53.41308594 128.71826172 Z " fill="#F2616A" transform="translate(255.875,74.8125)"/>
<path d="M0 0 C5.48249944 5.53027722 7.5356244 11.94842856 8.04296875 19.55859375 C7.93772358 25.75636503 6.32410131 31.42875734 2.04296875 35.99609375 C-0.53867488 38.57162626 -0.53867488 38.57162626 -0.01171875 41.58203125 C0.84054547 44.99936254 2.02027154 48.0134518 3.41796875 51.24609375 C9.00975344 64.74095705 13.20269576 78.87221491 16.10546875 93.18359375 C16.25258301 93.90571045 16.39969727 94.62782715 16.55126953 95.37182617 C19.44710875 110.7028393 20.16775879 125.86624689 20.10546875 141.43359375 C20.10223602 142.88942368 20.10223602 142.88942368 20.09893799 144.37466431 C20.04790215 158.70290273 19.70055313 172.73045157 16.79296875 186.80859375 C16.59429199 187.79166504 16.39561523 188.77473633 16.19091797 189.78759766 C10.14242102 218.87022082 -0.4321532 246.56808116 -16.20703125 271.80859375 C-15.36140625 271.59203125 -14.51578125 271.37546875 -13.64453125 271.15234375 C-1.29024502 268.11992804 -1.29024502 268.11992804 4.79296875 268.80859375 C6.94059059 272.03002651 7.35403675 273.06814045 6.79296875 276.80859375 C3.65898175 279.79597807 0.45486176 280.63068519 -3.6953125 281.6328125 C-4.95923828 281.93896484 -6.22316406 282.24511719 -7.52539062 282.56054688 C-8.18176514 282.71402588 -8.83813965 282.86750488 -9.5144043 283.02563477 C-11.5058515 283.4928841 -13.49210645 283.97862617 -15.47851562 284.46679688 C-27.99528809 287.45122305 -27.99528809 287.45122305 -33.20703125 286.80859375 C-36.09823877 283.47919546 -36.97400876 279.62938403 -38.03125 275.40625 C-38.49047852 273.57610352 -38.49047852 273.57610352 -38.95898438 271.70898438 C-39.26771484 270.44248047 -39.57644531 269.17597656 -39.89453125 267.87109375 C-40.21486328 266.60845703 -40.53519531 265.34582031 -40.86523438 264.04492188 C-44.36225343 249.91517537 -44.36225343 249.91517537 -42.14453125 245.87109375 C-40.20703125 244.80859375 -40.20703125 244.80859375 -33.20703125 245.80859375 C-30.23703125 256.20359375 -30.23703125 256.20359375 -27.20703125 266.80859375 C-12.31885803 240.54751043 -1.26005508 214.53370264 4.79296875 184.80859375 C4.97230957 183.96055176 5.15165039 183.11250977 5.33642578 182.23876953 C11.0392051 154.09864001 9.81636725 121.76085528 3.79296875 93.80859375 C3.58397949 92.83019531 3.37499023 91.85179687 3.15966797 90.84375 C-0.05012022 76.3600316 -4.98136439 62.63406904 -10.47607422 48.8737793 C-11.20703125 46.80859375 -11.20703125 46.80859375 -11.20703125 44.80859375 C-12.19703125 45.13859375 -13.18703125 45.46859375 -14.20703125 45.80859375 C-21.53977121 46.57426138 -28.23212526 45.47262649 -34.41015625 41.33203125 C-40.24075361 36.60276895 -43.68597661 31.17220408 -45.20703125 23.80859375 C-46.04802936 15.35009354 -44.418239 8.15203481 -39.01953125 1.49609375 C-28.17341677 -10.01500449 -11.9887651 -9.59579802 0 0 Z M-31.64453125 10.49609375 C-33.84291198 15.15666089 -35.22842081 19.74442507 -33.54296875 24.80078125 C-30.92611496 29.75791078 -27.50328238 33.04317671 -22.20703125 34.80859375 C-16.40170072 35.36679861 -12.69447557 34.39409517 -8.20703125 30.80859375 C-5.00951604 27.10620772 -3.42627742 23.72497176 -3.046875 18.89453125 C-3.45653091 13.55901287 -6.04431401 9.83918403 -9.95703125 6.37109375 C-18.4210263 2.30186536 -25.23797583 3.43245572 -31.64453125 10.49609375 Z " fill="#F2616A" transform="translate(481.20703125,114.19140625)"/>
<path d="M0 0 C2.83217559 3.69192017 3.72992768 7.36395604 4.640625 11.875 C4.7719281 12.52194824 4.9032312 13.16889648 5.03851318 13.83544922 C5.31197707 15.19599872 5.58064034 16.55752109 5.84472656 17.91992188 C6.24934535 19.99663998 6.67436033 22.06844894 7.1015625 24.140625 C7.36581704 25.46850508 7.62887854 26.79662326 7.890625 28.125 C8.24688965 29.92324219 8.24688965 29.92324219 8.61035156 31.7578125 C8.9875501 34.89640683 8.94817127 37.00212517 8 40 C6 42 6 42 3.0625 42.4375 C0 42 0 42 -1.5859375 39.9609375 C-3.26241553 36.45052218 -4.02194667 32.98806412 -4.6875 29.1875 C-4.81705078 28.49462891 -4.94660156 27.80175781 -5.08007812 27.08789062 C-5.39557559 25.39355236 -5.69902647 23.69697842 -6 22 C-23.22496679 41.43434495 -31.68448356 72.11502248 -37 97 C-37.21027832 97.97582031 -37.42055664 98.95164062 -37.63720703 99.95703125 C-43.36190129 127.91420796 -43.91537821 160.02818015 -38 188 C-37.80132324 188.97565918 -37.60264648 189.95131836 -37.39794922 190.95654297 C-34.57560594 204.52281776 -30.7130106 217.45643704 -25.734375 230.3828125 C-24.25997748 234.21341672 -23.0533451 238.03383324 -22 242 C-21.01 241.67 -20.02 241.34 -19 241 C-11.66726004 240.23433237 -4.97490599 241.33596726 1.203125 245.4765625 C7.03372236 250.2058248 10.47894536 255.63638967 12 263 C12.79557527 271.00165131 11.38150724 278.32498238 6.375 284.75 C0.72934345 290.80394593 -6.11245957 293.62403535 -14.25 294.25 C-22.32478111 293.71168126 -29.26221715 290.78778532 -35 285 C-39.84194923 278.18762975 -41.82710336 271.39133951 -41 263 C-39.97209148 258.22467695 -38.61680323 254.40438199 -35.25 250.8125 C-32.66835637 248.23696749 -32.66835637 248.23696749 -33.1953125 245.2265625 C-34.04757672 241.80923121 -35.22730279 238.79514195 -36.625 235.5625 C-42.21678469 222.0676367 -46.40972701 207.93637884 -49.3125 193.625 C-49.45961426 192.9028833 -49.60672852 192.1807666 -49.75830078 191.43676758 C-52.65414 176.10575445 -53.37479004 160.94234686 -53.3125 145.375 C-53.31034485 144.40444672 -53.3081897 143.43389343 -53.30596924 142.43392944 C-53.2549334 128.10569102 -52.90758438 114.07814218 -50 100 C-49.80132324 99.01692871 -49.60264648 98.03385742 -49.39794922 97.02099609 C-44.99834677 75.86665295 -38.22561459 56.06703057 -28.875 36.625 C-28.57940186 36.00830444 -28.28380371 35.39160889 -27.97924805 34.75622559 C-24.46535174 27.47144945 -20.72452498 20.57297114 -16 14 C-17.61068359 14.34224609 -17.61068359 14.34224609 -19.25390625 14.69140625 C-20.68998173 14.98237579 -22.12618676 15.2727064 -23.5625 15.5625 C-24.61920898 15.78969727 -24.61920898 15.78969727 -25.69726562 16.02148438 C-30.38213571 16.94982269 -34.26761559 17.11457702 -39 16 C-40.35439668 13.29120665 -40.06501451 10.99066732 -40 8 C-33.7376918 4.93623085 -27.38050226 3.63766662 -20.5625 2.3125 C-19.46873047 2.08755859 -18.37496094 1.86261719 -17.24804688 1.63085938 C-5.37157358 -0.72155466 -5.37157358 -0.72155466 0 0 Z M-27.375 258.75 C-29.65473167 263.30946334 -30.83856315 267.13534326 -29.37109375 272.1484375 C-27.24553402 276.93317029 -24.81319597 279.68596348 -20 282 C-15.5082287 283.42581122 -12.07607275 283.35930555 -7.75 281.4375 C-3.29754523 278.86574813 -0.80894585 275.89740081 0.59765625 270.859375 C1.30517903 266.82031292 1.31179842 263.85639456 -0.625 260.1875 C-3.635016 256.14774168 -6.19512545 253.60162485 -11 252 C-18.32455365 251.29571599 -22.65986329 253.29036802 -27.375 258.75 Z " fill="#F2616A" transform="translate(64,111)"/>
<path d="M0 0 C6.0765933 4.73500776 9.85611385 11.18620674 11.0546875 18.78125 C11.70757932 27.26884362 9.14621916 34.38790247 3.86328125 40.98828125 C-1.66699597 46.47078069 -8.08514731 48.52390565 -15.6953125 49.03125 C-21.89308378 48.92600483 -27.56547609 47.31238256 -32.1328125 43.03125 C-34.70834501 40.44960637 -34.70834501 40.44960637 -37.71875 40.9765625 C-41.13608129 41.82882672 -44.15017055 43.00855279 -47.3828125 44.40625 C-60.8776758 49.99803469 -75.00893366 54.19097701 -89.3203125 57.09375 C-90.0424292 57.24086426 -90.7645459 57.38797852 -91.50854492 57.53955078 C-106.83955805 60.43539 -122.00296564 61.15604004 -137.5703125 61.09375 C-138.54086578 61.09159485 -139.51141907 61.0894397 -140.51138306 61.08721924 C-154.83962148 61.0361834 -168.86717032 60.68883438 -182.9453125 57.78125 C-183.92838379 57.58257324 -184.91145508 57.38389648 -185.92431641 57.17919922 C-215.00693957 51.13070227 -242.70479991 40.55612805 -267.9453125 24.78125 C-267.72875 25.63847656 -267.5121875 26.49570312 -267.2890625 27.37890625 C-264.28467546 39.716366 -264.28467546 39.716366 -264.9453125 44.78125 C-266.1328125 46.71875 -266.1328125 46.71875 -267.9453125 47.78125 C-270.4453125 48.21875 -270.4453125 48.21875 -272.9453125 47.78125 C-275.92969563 44.64285248 -276.76687234 41.44534456 -277.76953125 37.29296875 C-278.07568359 36.02904297 -278.38183594 34.76511719 -278.69726562 33.46289062 C-278.92748413 32.47832886 -278.92748413 32.47832886 -279.16235352 31.47387695 C-279.62960285 29.48242975 -280.11534492 27.4961748 -280.60351562 25.50976562 C-283.5879418 12.99299316 -283.5879418 12.99299316 -282.9453125 7.78125 C-279.55795484 4.81731204 -275.60484887 3.99239922 -271.2890625 2.95703125 C-270.01933594 2.65087891 -268.74960937 2.34472656 -267.44140625 2.02929688 C-266.7851123 1.87581787 -266.12881836 1.72233887 -265.45263672 1.56420898 C-263.44876585 1.09455937 -261.4489826 0.60985411 -259.44921875 0.12304688 C-245.62192658 -3.16883131 -245.62192658 -3.16883131 -242.0703125 -1.15625 C-240.29749067 1.89694315 -241.25295944 4.44536708 -241.9453125 7.78125 C-248.91171906 9.91197305 -255.90885673 11.89505178 -262.9453125 13.78125 C-204.83574221 46.94788193 -140.9275822 58.62913776 -75.53515625 41.3581543 C-65.11783245 38.43828464 -55.04969645 34.52102394 -45.01049805 30.51220703 C-42.9453125 29.78125 -42.9453125 29.78125 -40.9453125 29.78125 C-41.2753125 28.79125 -41.6053125 27.80125 -41.9453125 26.78125 C-42.71098013 19.44851004 -41.60934524 12.75615599 -37.46875 6.578125 C-28.16985922 -4.88626089 -12.74894263 -7.98728936 0 0 Z M-28.3203125 13.34375 C-31.0972037 17.50908681 -31.35605248 20.85237021 -30.9453125 25.78125 C-29.01393515 31.06770571 -26.01588816 34.24596217 -20.9453125 36.78125 C-16.45885302 38.21468311 -13.01642332 38.13835127 -8.6953125 36.21875 C-4.34201592 33.71282486 -1.88917903 30.75473803 -0.34765625 25.8984375 C0.61741761 21.11991645 -0.23242913 17.73931169 -2.65625 13.54296875 C-5.73285335 9.33827751 -9.38477581 7.65675643 -14.3828125 6.78125 C-20.55561449 6.34478925 -24.14372492 8.83743182 -28.3203125 13.34375 Z " fill="#F2616A" transform="translate(393.9453125,440.21875)"/>
<path d="M0 0 C0.97055328 0.00215515 1.94110657 0.0043103 2.94107056 0.00653076 C17.26930898 0.0575666 31.29685782 0.40491562 45.375 3.3125 C46.35807129 3.51117676 47.34114258 3.70985352 48.35400391 3.91455078 C77.77075149 10.0325377 106.27925884 20.58722113 131.375 37.3125 C131.14683594 36.23871094 130.91867187 35.16492187 130.68359375 34.05859375 C130.39262421 32.62251827 130.1022936 31.18631324 129.8125 29.75 C129.66103516 29.04552734 129.50957031 28.34105469 129.35351562 27.61523438 C128.42517731 22.93036429 128.26042298 19.04488441 129.375 14.3125 C132.13750036 12.93124982 134.32231099 13.12170694 137.375 13.3125 C140.04815462 15.98565462 140.13776074 18.09171202 140.8828125 21.7890625 C141.01315887 22.43314056 141.14350525 23.07721863 141.27780151 23.74081421 C141.55210605 25.1068908 141.82252315 26.47375284 142.08935547 27.84130859 C142.4948071 29.91099214 142.91635371 31.97691057 143.33984375 34.04296875 C146.17050901 48.09749646 146.17050901 48.09749646 145.375 53.3125 C140.06039618 57.37832732 133.43718989 57.9932501 127.02783203 59.2121582 C124.87793033 59.62443806 122.73427586 60.06221441 120.58984375 60.50195312 C119.21644943 60.76979065 117.84275962 61.03611834 116.46875 61.30078125 C115.22802734 61.54352783 113.98730469 61.78627441 112.70898438 62.03637695 C109.2037321 62.32668453 107.44757418 61.94471654 104.375 60.3125 C103.375 59.3125 103.375 59.3125 103 56.4375 C103.185625 54.890625 103.185625 54.890625 103.375 53.3125 C107.25053589 50.28497004 111.44813223 49.45495627 116.1875 48.625 C116.88037109 48.49544922 117.57324219 48.36589844 118.28710938 48.23242188 C119.98144764 47.91692441 121.67802158 47.61347353 123.375 47.3125 C89.43861897 17.23414966 29.18901337 9.19907732 -14.21972656 11.70507812 C-38.61904575 13.42647282 -62.19416335 18.79221529 -85.0078125 27.578125 C-88.83841672 29.05252252 -92.65883324 30.2591549 -96.625 31.3125 C-96.13 32.7975 -96.13 32.7975 -95.625 34.3125 C-94.85933237 41.64523996 -95.96096726 48.33759401 -100.1015625 54.515625 C-104.8308248 60.34622236 -110.26138967 63.79144536 -117.625 65.3125 C-125.62665131 66.10807527 -132.94998238 64.69400724 -139.375 59.6875 C-145.42894593 54.04184345 -148.24903535 47.20004043 -148.875 39.0625 C-148.33668126 30.98771889 -145.41278532 24.05028285 -139.625 18.3125 C-132.81262975 13.47055077 -126.01633951 11.48539664 -117.625 12.3125 C-112.84967695 13.34040852 -109.02938199 14.69569677 -105.4375 18.0625 C-102.86196749 20.64414363 -102.86196749 20.64414363 -99.8515625 20.1171875 C-96.43423121 19.26492328 -93.42014195 18.08519721 -90.1875 16.6875 C-76.6926367 11.09571531 -62.56137884 6.90277299 -48.25 4 C-47.5278833 3.85288574 -46.8057666 3.70577148 -46.06176758 3.55419922 C-30.73075445 0.65836 -15.56734686 -0.06229004 0 0 Z M-135.0625 30.0625 C-137.26186067 34.63717018 -138.45809716 38.4665159 -136.99609375 43.4609375 C-134.87088931 48.24487051 -132.45630607 51.03358204 -127.625 53.3125 C-122.99445716 54.60533404 -119.15089846 54.97772751 -114.8125 52.6875 C-110.77274168 49.677484 -108.22662485 47.11737455 -106.625 42.3125 C-106.06679514 36.50716947 -107.03949858 32.79994432 -110.625 28.3125 C-114.32738603 25.11498479 -117.70862199 23.53174617 -122.5390625 23.15234375 C-127.87458088 23.56199966 -131.59440972 26.14978276 -135.0625 30.0625 Z " fill="#F2616A" transform="translate(255.625,10.6875)"/>
<path d="M0 0 C3.04516602 1.34179688 3.04516602 1.34179688 6.25390625 3.21875 C7.12715797 3.722995 7.12715797 3.722995 8.01805115 4.23742676 C9.87348401 5.31297895 11.71778468 6.40619005 13.5625 7.5 C14.77341994 8.20427584 15.98500434 8.90741052 17.19726562 9.609375 C20.21059128 11.36036085 23.20821632 13.13617037 26.19903564 14.92529297 C27.41445798 15.6505838 28.63208993 16.37218282 29.85174561 17.09033203 C31.64430626 18.14602958 33.43018743 19.21225763 35.21484375 20.28125 C36.25632568 20.90064453 37.29780762 21.52003906 38.37084961 22.15820312 C40.91451793 23.94011731 42.41658377 25.34980889 44 28 C44.54695073 31.67238345 44.43469454 33.35118101 42.35351562 36.45751953 C39.73587951 39.28532685 37.2679836 40.86845911 33.90625 42.7421875 C33.31888062 43.07364777 32.73151123 43.40510803 32.12634277 43.74661255 C30.25621239 44.79924912 28.37853384 45.83744896 26.5 46.875 C24.65907296 47.90469574 22.81980331 48.93730416 20.98071289 49.97027588 C19.76676962 50.65022544 18.55111094 51.32712163 17.33374023 52.00091553 C12.35740074 54.76130766 7.51405997 57.71704437 2.70117188 60.75439453 C-0.4650178 62.21443608 -2.5498328 62.37034014 -6 62 C-8.69990662 60.20006226 -10.5418865 58.916227 -12 56 C-12.11021356 54.42356325 -12.1590956 52.84263445 -12.17700195 51.26245117 C-12.19625481 49.78532906 -12.19625481 49.78532906 -12.21589661 48.27836609 C-12.22328354 47.21068497 -12.23067047 46.14300385 -12.23828125 45.04296875 C-12.246353 43.94785477 -12.25442474 42.85274078 -12.26274109 41.72444153 C-12.27658904 39.4034687 -12.287308 37.08247545 -12.29516602 34.76147461 C-12.31237955 31.21233517 -12.3562606 27.66412684 -12.40039062 24.11523438 C-12.41051725 21.86198603 -12.41903344 19.60872975 -12.42578125 17.35546875 C-12.44328934 16.29386032 -12.46079742 15.23225189 -12.47883606 14.13847351 C-12.45711381 6.75653539 -12.45711381 6.75653539 -10.09838867 2.8527832 C-6.67126242 -0.17321576 -4.5382832 -0.36640098 0 0 Z " fill="#F2616A" transform="translate(240,225)"/>
</svg>
