<?xml version="1.0" encoding="UTF-8"?>
<svg version="1.1" xmlns="http://www.w3.org/2000/svg" width="512" height="512">
<path d="M0 0 C1.15977688 -0.00507454 2.31955377 -0.01014909 3.51447541 -0.0153774 C4.79460147 -0.01587516 6.07472753 -0.01637292 7.39364529 -0.01688576 C8.76266732 -0.02090033 10.13168816 -0.02533855 11.50070757 -0.03016531 C15.27134661 -0.04213746 19.04197286 -0.04778076 22.8126272 -0.05234647 C26.87620692 -0.05830022 30.93977133 -0.06991072 35.00334072 -0.08063698 C44.82201793 -0.10516747 54.64070022 -0.11978974 64.45939866 -0.13269705 C67.23260677 -0.13640872 70.00581437 -0.14038198 72.77902198 -0.14444971 C89.99931067 -0.16968762 107.21960015 -0.19174134 124.43990326 -0.20417786 C128.429321 -0.20710757 132.41873872 -0.21006923 136.40815639 -0.21308327 C137.89548906 -0.21420234 137.89548906 -0.21420234 139.41286885 -0.21534403 C155.47206164 -0.22799506 171.53114364 -0.26121419 187.59028465 -0.3028851 C204.07730958 -0.34531559 220.56427782 -0.36887424 237.05135721 -0.37409842 C246.30843312 -0.37751143 255.56533597 -0.38925356 264.82235813 -0.42220116 C272.70705014 -0.45021824 280.5915336 -0.46119377 288.47627152 -0.4500057 C292.49785209 -0.44482312 296.51899605 -0.44767925 300.54051304 -0.47247124 C304.22658749 -0.49500509 307.91191276 -0.49419265 311.5980007 -0.47526737 C313.5539471 -0.47115536 315.50989834 -0.49158268 317.4657312 -0.51305425 C325.95665953 -0.43685457 332.95687021 0.99753284 339.36709458 6.89245188 C346.80847027 14.77658712 346.89458198 22.84079141 346.84588528 33.20558739 C346.85006058 34.64889888 346.85553918 36.09220709 346.86220509 37.53550923 C346.87665278 41.49293473 346.87241712 45.45015185 346.86503828 49.40758872 C346.8603072 53.67899958 346.87281595 57.95036532 346.88305569 62.2217617 C346.90025046 70.58656657 346.90108226 78.95129634 346.89584278 87.31611429 C346.89180096 94.11555421 346.89324479 100.91497193 346.89859104 107.71441078 C346.89933946 108.68224028 346.90008789 109.65006978 346.90085899 110.64722744 C346.90239047 112.61339513 346.90392882 114.57956281 346.90547395 116.54573049 C346.91920156 134.98368591 346.91375957 153.4215989 346.90228874 171.85955335 C346.89235702 188.72423798 346.90529552 205.58881288 346.92922293 222.45348059 C346.95361103 239.77345714 346.96322246 257.09338259 346.95657021 274.41337597 C346.95307723 284.13589234 346.95531523 293.85832433 346.97282124 303.58082771 C346.98753962 311.85777445 346.98818345 320.13457739 346.97075032 328.4115213 C346.96223478 332.63343052 346.96010421 336.85508283 346.97540188 341.07697868 C346.98924264 344.94472248 346.98449401 348.81198913 346.96516264 352.67970528 C346.9614004 354.07601162 346.96433116 355.47235613 346.97477429 356.86862849 C347.04406195 366.84496744 345.97786019 374.23337591 339.39570522 381.94951439 C331.99558801 388.74787324 322.5153064 389.72784732 312.88398647 389.52763939 C311.83414074 389.5219796 310.78429501 389.51631981 309.70263577 389.51048851 C306.39150291 389.48832653 303.08150388 389.43816877 299.77070522 389.38701439 C297.5083512 389.3669233 295.24598 389.34867714 292.98359585 389.33232689 C287.47475382 389.28852842 281.96656056 389.22182267 276.45820522 389.13701439 C276.47391567 390.02372826 276.48962612 390.91044212 276.50581264 391.82402611 C276.55738931 395.16018761 276.59477014 398.49591647 276.62300014 401.83232689 C276.63795108 403.26761689 276.65831946 404.7028623 276.68452358 406.13799095 C276.91577788 419.14264441 275.6542944 430.35668827 266.48554897 440.26982689 C257.52121226 448.83891066 247.93528354 451.32564971 235.78027248 451.20775414 C234.90680308 451.20351976 234.03333367 451.19928538 233.13339549 451.19492269 C231.22048798 451.18506659 229.30759146 451.17286866 227.39471149 451.158638 C224.28062197 451.13551134 221.16654902 451.11832933 218.05241299 451.10275841 C214.69500477 451.08596933 211.33760233 451.06885135 207.98020494 451.05000734 C199.63455691 451.00377269 191.28903043 450.97851565 182.94326687 450.96593285 C181.73007627 450.96409831 180.51688567 450.96226377 179.26693171 450.96037364 C174.26003684 450.95327724 169.25314145 450.94697253 164.24624479 450.94127607 C150.06594626 450.92449995 135.88645489 450.8870106 121.70649624 450.78398705 C110.43516644 450.70222783 99.16475477 450.66718395 87.89312869 450.68550134 C81.93807008 450.69348515 75.98509776 450.67904474 70.03041553 450.60789299 C35.9647129 449.49603435 35.9647129 449.49603435 5.82437325 463.42265415 C1.53491062 466.53049945 -3.15145979 468.9727657 -7.79179478 471.51201439 C-8.83649937 472.1065139 -9.88120396 472.70101341 -10.95756626 473.31352806 C-18.5241991 477.6078655 -26.17711596 481.73269543 -33.85429478 485.82451439 C-41.69512756 490.00368671 -49.52813079 494.19074594 -57.29179478 498.51201439 C-57.99465611 498.9007473 -58.69751743 499.28948021 -59.42167759 499.6899929 C-62.94506454 501.64830767 -66.42555033 503.65840007 -69.87382603 505.74638939 C-70.58506626 506.16871849 -71.2963065 506.59104759 -72.02909946 507.02617455 C-73.35620585 507.81650543 -74.67438953 508.62214452 -75.98027134 509.44707298 C-80.70688633 512.24007275 -85.07643314 513.03138359 -90.54179478 512.13701439 C-93.04340295 510.26080826 -94.16125129 508.89810136 -95.54179478 506.13701439 C-95.64016446 504.55489158 -95.67731344 502.96876176 -95.68364048 501.38359642 C-95.69419216 499.90163277 -95.69419216 499.90163277 -95.70495701 498.38973045 C-95.70912128 497.31891228 -95.71328556 496.2480941 -95.71757603 495.14482689 C-95.74077144 492.89091127 -95.76488866 490.63700498 -95.78984165 488.38310814 C-95.8249952 484.81907956 -95.85431967 481.25539466 -95.86772251 477.69121361 C-95.88316734 474.25865885 -95.92335466 470.82711556 -95.96757603 467.39482689 C-95.96566761 466.32805717 -95.96375919 465.26128746 -95.96179295 464.16219139 C-96.01154222 458.54596554 -96.01154222 458.54596554 -98.11699009 453.46269798 C-101.38685174 451.67500681 -104.28062634 451.60800235 -107.91288853 451.66826439 C-108.63106251 451.66121483 -109.34923649 451.65416527 -110.08917332 451.64690208 C-113.14445588 451.61763229 -116.19909055 451.63383296 -119.25444126 451.64629173 C-133.25072319 451.66145071 -146.0671082 450.50589605 -156.54179478 440.13701439 C-163.57321227 432.56471863 -166.0073101 424.31631358 -165.92947483 414.11163902 C-165.93486037 413.24937531 -165.94024591 412.3871116 -165.94579464 411.49871868 C-165.96000494 408.63394253 -165.95298773 405.76963299 -165.94584751 402.90483665 C-165.95155468 400.84093927 -165.95852029 398.77704503 -165.96664524 396.71315575 C-165.98455284 391.12430681 -165.9834128 385.53561509 -165.97770286 379.94674611 C-165.9746077 375.27480855 -165.98070707 370.60290103 -165.9867416 365.93096775 C-166.00077721 354.9067696 -165.9992334 343.88264897 -165.9878397 332.85844994 C-165.97635789 321.49819546 -165.99043753 310.13817706 -166.01723617 298.77795368 C-166.03941026 289.01122553 -166.04602673 279.24457139 -166.04015976 269.47781986 C-166.03679329 263.65034482 -166.03918493 257.82302111 -166.05641079 251.99556732 C-166.07190509 246.51497573 -166.06789656 241.03473327 -166.04910564 235.55415535 C-166.04542675 233.54748983 -166.04850773 231.5407983 -166.05899143 229.5341568 C-166.12910629 214.9996864 -165.26324982 205.17442865 -154.76445103 194.26592064 C-146.24413636 186.10498655 -136.53194025 184.67478637 -125.12529087 184.79643822 C-124.0314307 184.79600014 -122.93757053 184.79556206 -121.81056309 184.7951107 C-118.22859863 184.79718513 -114.64711403 184.82045283 -111.06523228 184.84404564 C-108.56845957 184.84964637 -106.07168354 184.85391421 -103.57490635 184.8569088 C-97.02857835 184.86831991 -90.48245252 184.89775505 -83.93620396 184.93102074 C-77.24618043 184.96344177 -70.55609372 184.97543138 -63.86601353 184.99053001 C-50.75785475 185.02262825 -37.64983556 185.07319626 -24.54179478 185.13701439 C-24.54548195 184.2949447 -24.54916912 183.452875 -24.55296803 182.58528805 C-24.64137806 162.07801068 -24.70753312 141.57076624 -24.74904346 121.06333828 C-24.7696521 111.14601412 -24.79774023 101.22881733 -24.84355259 91.31157494 C-24.88347235 82.66579855 -24.90923993 74.02011443 -24.91814876 65.37424845 C-24.9233548 60.79802014 -24.93555544 56.22205574 -24.964715 51.64591217 C-24.99196538 47.33425087 -25.00022043 43.02296094 -24.9942255 38.71122169 C-24.99532145 37.13306278 -25.003218 35.55489081 -25.01861668 33.97680664 C-25.11073123 24.04544146 -24.16663765 16.83319605 -18.79179478 8.38701439 C-13.39217717 2.98739678 -7.65592849 0.0177542 0 0 Z " fill="#FEC306" transform="translate(165.5417947769165,-0.13701438903808594)"/>
<path d="M0 0 C1.15977688 -0.00507454 2.31955377 -0.01014909 3.51447541 -0.0153774 C4.79460147 -0.01587516 6.07472753 -0.01637292 7.39364529 -0.01688576 C8.76266732 -0.02090033 10.13168816 -0.02533855 11.50070757 -0.03016531 C15.27134661 -0.04213746 19.04197286 -0.04778076 22.8126272 -0.05234647 C26.87620692 -0.05830022 30.93977133 -0.06991072 35.00334072 -0.08063698 C44.82201793 -0.10516747 54.64070022 -0.11978974 64.45939866 -0.13269705 C67.23260677 -0.13640872 70.00581437 -0.14038198 72.77902198 -0.14444971 C89.99931067 -0.16968762 107.21960015 -0.19174134 124.43990326 -0.20417786 C128.429321 -0.20710757 132.41873872 -0.21006923 136.40815639 -0.21308327 C137.89548906 -0.21420234 137.89548906 -0.21420234 139.41286885 -0.21534403 C155.47206164 -0.22799506 171.53114364 -0.26121419 187.59028465 -0.3028851 C204.07730958 -0.34531559 220.56427782 -0.36887424 237.05135721 -0.37409842 C246.30843312 -0.37751143 255.56533597 -0.38925356 264.82235813 -0.42220116 C272.70705014 -0.45021824 280.5915336 -0.46119377 288.47627152 -0.4500057 C292.49785209 -0.44482312 296.51899605 -0.44767925 300.54051304 -0.47247124 C304.22658749 -0.49500509 307.91191276 -0.49419265 311.5980007 -0.47526737 C313.5539471 -0.47115536 315.50989834 -0.49158268 317.4657312 -0.51305425 C325.95665953 -0.43685457 332.95687021 0.99753284 339.36709458 6.89245188 C346.80847027 14.77658712 346.89458198 22.84079141 346.84588528 33.20558739 C346.85006058 34.64889888 346.85553918 36.09220709 346.86220509 37.53550923 C346.87665278 41.49293473 346.87241712 45.45015185 346.86503828 49.40758872 C346.8603072 53.67899958 346.87281595 57.95036532 346.88305569 62.2217617 C346.90025046 70.58656657 346.90108226 78.95129634 346.89584278 87.31611429 C346.89180096 94.11555421 346.89324479 100.91497193 346.89859104 107.71441078 C346.89933946 108.68224028 346.90008789 109.65006978 346.90085899 110.64722744 C346.90239047 112.61339513 346.90392882 114.57956281 346.90547395 116.54573049 C346.91920156 134.98368591 346.91375957 153.4215989 346.90228874 171.85955335 C346.89235702 188.72423798 346.90529552 205.58881288 346.92922293 222.45348059 C346.95361103 239.77345714 346.96322246 257.09338259 346.95657021 274.41337597 C346.95307723 284.13589234 346.95531523 293.85832433 346.97282124 303.58082771 C346.98753962 311.85777445 346.98818345 320.13457739 346.97075032 328.4115213 C346.96223478 332.63343052 346.96010421 336.85508283 346.97540188 341.07697868 C346.98924264 344.94472248 346.98449401 348.81198913 346.96516264 352.67970528 C346.9614004 354.07601162 346.96433116 355.47235613 346.97477429 356.86862849 C347.04406106 366.84483938 345.97795822 374.23353359 339.39570522 381.94951439 C331.92529603 388.80927436 322.37712212 389.72517155 312.66523647 389.52763939 C311.59319469 389.5219796 310.52115292 389.51631981 309.41662502 389.51048851 C306.03417334 389.48831953 302.65282998 389.43816001 299.27070522 389.38701439 C296.96017378 389.36692422 294.64962553 389.3486779 292.3390646 389.33232689 C286.71174125 389.28851905 281.08505245 389.22180572 275.45820522 389.13701439 C275.45950404 388.23770887 275.46080286 387.33840336 275.46214104 386.41184616 C275.4914001 364.48397523 275.48188768 342.55641609 275.429739 320.628582 C275.40544518 310.02420722 275.39405632 299.42011752 275.41352749 288.81572533 C275.43047431 279.5680286 275.42271878 270.32073081 275.38585764 261.07308638 C275.36720486 256.18080288 275.36054371 251.28919337 275.38351154 246.39691353 C275.40478559 241.78202354 275.39276705 237.16836138 275.35636044 232.55357742 C275.34873356 230.86950905 275.35276474 229.18533621 275.37001896 227.50133896 C275.48355289 215.48993177 273.81396813 205.44990911 265.62011528 196.02212143 C256.61321383 187.51812007 245.16292501 185.83608338 233.28388882 185.85854149 C232.17857783 185.85274909 231.07326685 185.84695668 229.93446159 185.84098876 C226.24182548 185.82402395 222.54931462 185.82111523 218.85664272 185.81816673 C216.20524293 185.80886613 213.55385681 185.79878398 210.90246487 185.78772545 C205.19986911 185.76549512 199.49729117 185.75045648 193.79466152 185.74035835 C185.54971145 185.72574784 177.30482348 185.70020441 169.05990994 185.67202707 C155.68178656 185.62660212 142.30365421 185.58996958 128.92549038 185.55888939 C115.93296136 185.52868623 102.94045424 185.49432785 89.94795132 185.4543972 C89.14655129 185.45193565 88.34515127 185.4494741 87.5194664 185.44693796 C83.4989161 185.43456302 79.47836605 185.42210655 75.45781612 185.40960956 C42.12464227 185.30610612 8.79144405 185.21688167 -24.54179478 185.13701439 C-24.63531442 163.77916552 -24.7058114 142.4213505 -24.74904346 121.06333828 C-24.7696521 111.14601412 -24.79774023 101.22881733 -24.84355259 91.31157494 C-24.88347235 82.66579855 -24.90923993 74.02011443 -24.91814876 65.37424845 C-24.9233548 60.79802014 -24.93555544 56.22205574 -24.964715 51.64591217 C-24.99196538 47.33425087 -25.00022043 43.02296094 -24.9942255 38.71122169 C-24.99532145 37.13306278 -25.003218 35.55489081 -25.01861668 33.97680664 C-25.11073123 24.04544146 -24.16663765 16.83319605 -18.79179478 8.38701439 C-13.39217717 2.98739678 -7.65592849 0.0177542 0 0 Z " fill="#CED1DB" transform="translate(165.5417947769165,-0.13701438903808594)"/>
<path d="M0 0 C1.15977688 -0.00507454 2.31955377 -0.01014909 3.51447541 -0.0153774 C4.79460147 -0.01587516 6.07472753 -0.01637292 7.39364529 -0.01688576 C8.76266732 -0.02090033 10.13168816 -0.02533855 11.50070757 -0.03016531 C15.27134661 -0.04213746 19.04197286 -0.04778076 22.8126272 -0.05234647 C26.87620692 -0.05830022 30.93977133 -0.06991072 35.00334072 -0.08063698 C44.82201793 -0.10516747 54.64070022 -0.11978974 64.45939866 -0.13269705 C67.23260677 -0.13640872 70.00581437 -0.14038198 72.77902198 -0.14444971 C89.99931067 -0.16968762 107.21960015 -0.19174134 124.43990326 -0.20417786 C128.429321 -0.20710757 132.41873872 -0.21006923 136.40815639 -0.21308327 C137.89548906 -0.21420234 137.89548906 -0.21420234 139.41286885 -0.21534403 C155.47206164 -0.22799506 171.53114364 -0.26121419 187.59028465 -0.3028851 C204.07730958 -0.34531559 220.56427782 -0.36887424 237.05135721 -0.37409842 C246.30843312 -0.37751143 255.56533597 -0.38925356 264.82235813 -0.42220116 C272.70705014 -0.45021824 280.5915336 -0.46119377 288.47627152 -0.4500057 C292.49785209 -0.44482312 296.51899605 -0.44767925 300.54051304 -0.47247124 C304.22658749 -0.49500509 307.91191276 -0.49419265 311.5980007 -0.47526737 C313.5539471 -0.47115536 315.50989834 -0.49158268 317.4657312 -0.51305425 C325.95665953 -0.43685457 332.95687021 0.99753284 339.36709458 6.89245188 C355.00435938 23.4601291 346.45820522 52.24285696 346.45820522 71.13701439 C224.02820522 71.13701439 101.59820522 71.13701439 -24.54179478 71.13701439 C-24.54179478 17.42272867 -24.54179478 17.42272867 -18.79179478 8.38701439 C-13.39217717 2.98739678 -7.65592849 0.0177542 0 0 Z " fill="#01A5DB" transform="translate(165.5417947769165,-0.13701438903808594)"/>
<path d="M0 0 C1.87062328 -0.00958323 1.87062328 -0.00958323 3.77903694 -0.01936007 C7.23356242 -0.03633842 10.68736217 -0.02218047 14.1418494 -0.00284529 C17.86991908 0.01258814 21.5979002 -0.00082173 25.32597351 -0.0105896 C32.62618239 -0.02511521 39.92611313 -0.01288349 47.22629566 0.00852364 C55.7263802 0.03253462 64.22640102 0.03081924 72.72651195 0.02821773 C87.89145779 0.0245276 103.05627257 0.04535329 118.22117615 0.07946777 C132.9393088 0.11256496 147.65730391 0.12672507 162.37547302 0.1204834 C178.40089314 0.11372078 194.42625564 0.11617553 210.45166725 0.1358428 C211.29890938 0.13688229 212.14615152 0.13792177 213.01906766 0.13899276 C214.72073994 0.14108366 216.4224122 0.14319463 218.12408443 0.14532593 C224.05043576 0.15222376 229.97676935 0.15289048 235.90312386 0.15144348 C243.1236316 0.15000442 250.34402715 0.15968299 257.56449766 0.18338984 C261.2491647 0.19525709 264.93367526 0.20237019 268.61836052 0.19655228 C272.6101054 0.1904357 276.60155533 0.20752973 280.59326172 0.22705078 C281.76134402 0.22172286 282.92942633 0.21639493 284.13290507 0.21090555 C285.73594112 0.22449051 285.73594112 0.22449051 287.37136173 0.23834991 C288.2927283 0.23992112 289.21409487 0.24149232 290.16338164 0.24311113 C293.28684497 0.70298283 295.18346244 1.78874273 297.73313904 3.62145996 C299.32565547 6.80649283 299.12443664 10.15470047 298.73313904 13.62145996 C296.99060559 16.8575935 296.2612796 17.44541311 292.73313904 18.62145996 C291.02384669 18.71768147 289.31103698 18.75595489 287.59904671 18.76126766 C286.53023801 18.7669589 285.46142931 18.77265015 284.36023247 18.77851385 C283.18175142 18.77969373 282.00327036 18.7808736 280.78907776 18.78208923 C279.54047529 18.78717705 278.29187282 18.79226487 277.00543392 18.79750687 C273.53298689 18.81142033 270.06055036 18.81899858 266.58808255 18.82547987 C263.61143137 18.83184916 260.63479744 18.84191938 257.65815701 18.85204052 C247.85239633 18.88536591 238.04662517 18.90688354 228.24082643 18.92524037 C225.68849507 18.93003484 223.13616413 18.93501821 220.58383322 18.9400456 C204.74038685 18.97101048 188.89693685 18.99770043 173.0534687 19.01446438 C169.3837038 19.01841398 165.71393896 19.02241696 162.04417419 19.02648926 C161.13205413 19.02749762 160.21993407 19.02850598 159.280174 19.0295449 C144.49471366 19.04656254 129.70942037 19.08768464 114.92404164 19.13851225 C99.75124651 19.19024369 84.5785374 19.21940049 69.40565479 19.22666126 C60.88366484 19.23132858 52.36194869 19.24613291 43.84004593 19.28640556 C36.58466503 19.32065115 29.32960733 19.33466716 22.07415022 19.32198142 C18.37106056 19.31614194 14.6686549 19.32010728 10.96566772 19.35015106 C6.9536942 19.38243687 2.94322683 19.36840946 -1.0688324 19.34971619 C-2.82986182 19.37490858 -2.82986182 19.37490858 -4.62646759 19.40060991 C-12.26153804 19.31130158 -12.26153804 19.31130158 -15.1018889 17.36228383 C-17.45549051 14.70384608 -18.28366762 12.5343709 -18.95436096 9.05895996 C-18.21761051 5.3752077 -17.27581807 3.94375514 -14.32942402 1.65518475 C-9.88714973 -0.5712146 -4.85948248 -0.05217668 0 0 Z " fill="#FFFDFA" transform="translate(80.26686096191406,343.3785400390625)"/>
<path d="M0 0 C1.61207785 -0.01064158 1.61207785 -0.01064158 3.25672293 -0.02149814 C6.86442222 -0.03912546 10.47105095 -0.02094796 14.07873535 -0.00291443 C16.66246533 -0.00805139 19.24619181 -0.01533097 21.82991028 -0.02459717 C28.12293792 -0.04297951 34.41565514 -0.03445771 40.70867312 -0.01650894 C45.82295017 -0.00248512 50.93714294 0.00141034 56.05143738 -0.00195122 C56.77923632 -0.00242866 57.50703526 -0.0029061 58.25688872 -0.00339801 C59.73538341 -0.00442434 61.21387809 -0.0054797 62.69237274 -0.00656378 C75.76702318 -0.01513203 88.84152373 0.00154816 101.9161377 0.03126526 C114.60402727 0.06010301 127.2917009 0.0671864 139.97961426 0.05177307 C153.79481545 0.0350133 167.60991411 0.03097439 181.42511797 0.04848343 C182.89818349 0.05032783 184.37124903 0.05216255 185.84431458 0.0539875 C186.56909708 0.05489959 187.29387958 0.05581168 188.04062518 0.05675141 C193.14894247 0.06235821 198.25720972 0.0590483 203.36552429 0.05244255 C210.24054711 0.04390519 217.11525291 0.05686183 223.99022484 0.08429146 C226.51660931 0.09119061 229.04302282 0.09125699 231.56940651 0.08407593 C235.01187221 0.07541698 238.45336758 0.09127847 241.89575195 0.11352539 C243.40376885 0.10116424 243.40376885 0.10116424 244.94225073 0.08855337 C249.23152706 0.13989285 251.79033586 0.2518279 255.56832123 2.41426182 C257.81529138 5.06096764 258.04361254 7.09373804 258.11193848 10.53053284 C257.00897271 14.01460705 255.33744793 15.39606805 252.44787598 17.62818909 C248.93537749 18.37569937 245.47589128 18.30282649 241.89575195 18.2631073 C240.82103339 18.27090725 239.74631482 18.27870721 238.63902903 18.28674352 C235.03134471 18.30671573 231.42470909 18.2908774 227.8170166 18.27516174 C225.23328535 18.28193548 222.64955892 18.29083723 220.06584167 18.30171204 C213.77282526 18.32394912 207.48010695 18.31914135 201.18707883 18.30464883 C196.07279919 18.29335836 190.95860311 18.29182484 185.84431458 18.29726791 C185.11651563 18.29803408 184.38871669 18.29880024 183.63886324 18.29958963 C182.16036854 18.30118825 180.68187386 18.30280931 179.20337921 18.30445258 C165.33843119 18.31871145 151.47364844 18.30231527 137.60872751 18.27545075 C125.7111148 18.25311179 113.81374601 18.25699188 101.9161377 18.28004456 C88.10092893 18.30680021 74.28586504 18.31733814 60.47063398 18.30198324 C58.99756847 18.30039049 57.52450294 18.29881863 56.05143738 18.29726791 C55.32665488 18.29649654 54.60187238 18.29572516 53.85512677 18.29493041 C48.7467917 18.29061268 43.6385485 18.29790148 38.53022766 18.30966568 C31.65515601 18.32515053 24.78055322 18.31413122 17.90552711 18.2851944 C15.37914103 18.278571 12.85271624 18.28050247 10.32634544 18.29150772 C6.88370209 18.30512414 3.44254786 18.28809218 0 18.2631073 C-1.0053446 18.27426091 -2.01068919 18.28541452 -3.04649878 18.29690611 C-7.68525851 18.23137713 -9.8604459 18.14264713 -13.67256927 15.3072567 C-15.55212402 12.62818909 -15.55212402 12.62818909 -16.17712402 9.12818909 C-14.53116062 -0.08920595 -7.82305084 -0.09209927 0 0 Z " fill="#FFFEFE" transform="translate(77.5521240234375,379.37181091308594)"/>
<path d="M0 0 C2.34765625 -0.203125 2.34765625 -0.203125 5 0 C6.37109375 1.328125 6.37109375 1.328125 7.4375 3.25 C7.86804688 3.97058594 8.29859375 4.69117188 8.7421875 5.43359375 C10 8 10 8 10.9453125 11.09765625 C12.24439623 14.83592865 13.23970374 17.12668374 16 20 C21.74329573 22.08323954 27.97317537 22.3898602 34.03222656 22.68798828 C36 23 36 23 38 25 C37.7072592 28.96175881 36.47444411 31.06401067 33.8125 33.9375 C33.18988281 34.63101563 32.56726563 35.32453125 31.92578125 36.0390625 C30 38 30 38 28.16796875 39.4609375 C26.39668505 40.89621657 25.16464646 42.03382879 24 44 C23.7075725 47.75800444 24.39204569 51.29615528 25 55 C25.25492112 57.35151723 25.48417033 59.7059612 25.6875 62.0625 C25.79449219 63.14660156 25.90148437 64.23070312 26.01171875 65.34765625 C26 68 26 68 24 70 C17.83422567 69.66384588 13.46388205 66.53276091 8.31640625 63.3984375 C4.24126299 61.68006142 2.24351519 61.85916746 -2 63 C-5.16534477 64.58341226 -5.16534477 64.58341226 -8.125 66.5625 C-11.94763186 69.02983511 -14.38539613 70.58298376 -19 70 C-20.8742222 68.1257778 -20.1873322 65.42743741 -20.1953125 62.93359375 C-20 60 -20 60 -19.3046875 56.34765625 C-17.70980511 49.30693953 -17.70980511 49.30693953 -19.1796875 42.50390625 C-20.99276465 40.4369983 -22.86619078 38.7317295 -25 37 C-31.85176471 30.74117647 -31.85176471 30.74117647 -32.5625 27.1875 C-32 25 -32 25 -30 23 C-27.84521484 22.49755859 -27.84521484 22.49755859 -25.2109375 22.1484375 C-24.26992187 22.01953125 -23.32890625 21.890625 -22.359375 21.7578125 C-21.37453125 21.63148438 -20.3896875 21.50515625 -19.375 21.375 C-18.38242188 21.2409375 -17.38984375 21.106875 -16.3671875 20.96875 C-13.91236225 20.63829276 -11.45675748 20.31571516 -9 20 C-8.74476562 19.16210938 -8.48953125 18.32421875 -8.2265625 17.4609375 C-6.88231082 13.66792162 -5.20985807 10.19775209 -3.375 6.625 C-3.05015625 5.98433594 -2.7253125 5.34367188 -2.390625 4.68359375 C-1.59742593 3.12052499 -0.79922969 1.55999378 0 0 Z " fill="#FFFEFB" transform="translate(112,230)"/>
<path d="M0 0 C2.3125 -0.25 2.3125 -0.25 5 0 C7.43151679 2.23326363 8.2986685 4.73594708 9.33984375 7.78515625 C10.95463624 12.29673785 12.5179497 16.59305076 16 20 C21.65929564 22.47045162 27.96081929 22.64634738 34.06396484 22.75146484 C36 23 36 23 38 25 C38.04885852 27.77027834 37.49924581 29.42588571 35.67480469 31.52392578 C34.53846292 32.62834784 33.39180186 33.7222191 32.23681641 34.80712891 C26.40064302 40.13828721 26.40064302 40.13828721 23.328125 47.16015625 C23.63414373 50.21631698 24.24442622 53.02468356 25 56 C25.27031066 58.20367548 25.50050767 60.41269637 25.6875 62.625 C25.79449219 63.60726562 25.90148437 64.58953125 26.01171875 65.6015625 C26 68 26 68 24 70 C17.83422567 69.66384588 13.46388205 66.53276091 8.31640625 63.3984375 C4.23167715 61.67601934 2.25618393 61.86122169 -2 63 C-5.4259878 64.70101492 -8.63666583 66.63201058 -11.9140625 68.6015625 C-15.26954468 70.1221481 -16.57328901 70.15922193 -20 69 C-20.11022145 62.80310537 -20.05171845 56.94210552 -18.44140625 50.90625 C-17.94728524 47.76832689 -17.98886698 46.0537848 -19 43 C-21.69924911 39.63066419 -24.85469069 36.73714209 -28.10766602 33.91015625 C-29.88092493 32.33612224 -31.53376894 30.86436606 -33 29 C-32.93359375 26.08203125 -32.93359375 26.08203125 -32 24 C-19.32899291 20.92882603 -19.32899291 20.92882603 -14.4375 20.6875 C-10.82376958 20.35723207 -10.82376958 20.35723207 -9.01953125 17.41796875 C-6.93096565 13.88316236 -5.04473267 10.31460064 -3.25 6.625 C-2.93417969 5.98433594 -2.61835938 5.34367188 -2.29296875 4.68359375 C-1.52492134 3.12422477 -0.76192315 1.5623705 0 0 Z " fill="#FFFEFB" transform="translate(324,230)"/>
<path d="M0 0 C2.25 -0.375 2.25 -0.375 5 0 C7.57258404 3.04329235 8.92356782 5.77780772 10.21875 9.54296875 C12.20837522 15.32947006 12.20837522 15.32947006 16 20 C21.69797242 22.28191586 27.97033047 22.51707184 34.0480957 22.71972656 C36 23 36 23 38 25 C37.92148047 29.99907647 34.85782555 32.80005608 31.5625 36.1875 C31.05912109 36.72052734 30.55574219 37.25355469 30.03710938 37.80273438 C28.0531432 39.89736002 26.04001903 41.95998097 24 44 C23.94243338 46.7626001 23.94243338 46.7626001 24.3125 49.9375 C24.41820312 51.09765625 24.52390625 52.2578125 24.6328125 53.453125 C24.86693735 55.71467138 25.1107172 57.97525361 25.3671875 60.234375 C25.47289062 61.20890625 25.57859375 62.1834375 25.6875 63.1875 C25.79449219 64.06792969 25.90148437 64.94835937 26.01171875 65.85546875 C26 68 26 68 24 70 C17.83422567 69.66384588 13.46388205 66.53276091 8.31640625 63.3984375 C4.24126299 61.68006142 2.24351519 61.85916746 -2 63 C-5.16534477 64.58341226 -5.16534477 64.58341226 -8.125 66.5625 C-11.94763186 69.02983511 -14.38539613 70.58298376 -19 70 C-21.04918592 67.95081408 -20.18820214 63.9800261 -20.1953125 61.24609375 C-19.98837433 57.80678136 -19.3074928 54.67280965 -18.5625 51.3125 C-17.77449872 46.82689171 -17.77449872 46.82689171 -19.1796875 42.64453125 C-20.99706597 40.55656531 -22.88653099 38.78619676 -25 37 C-31.8582195 30.7089025 -31.8582195 30.7089025 -32.5625 27.1875 C-32 25 -32 25 -30 23 C-27.84521484 22.49755859 -27.84521484 22.49755859 -25.2109375 22.1484375 C-24.26992187 22.01953125 -23.32890625 21.890625 -22.359375 21.7578125 C-21.37453125 21.63148438 -20.3896875 21.50515625 -19.375 21.375 C-18.38242188 21.2409375 -17.38984375 21.106875 -16.3671875 20.96875 C-13.91236225 20.63829276 -11.45675748 20.31571516 -9 20 C-8.74476563 19.16210938 -8.48953125 18.32421875 -8.2265625 17.4609375 C-6.88231082 13.66792162 -5.20985807 10.19775209 -3.375 6.625 C-3.05015625 5.98433594 -2.7253125 5.34367188 -2.390625 4.68359375 C-1.59742593 3.12052499 -0.79922969 1.55999378 0 0 Z " fill="#FFFEFB" transform="translate(218,230)"/>
<path d="M0 0 C0.75474609 -0.01095703 1.50949219 -0.02191406 2.28710938 -0.03320312 C5.82540119 0.01355844 8.02618176 0.26722766 10.9296875 2.3515625 C12.74513141 5.01358648 12.9585878 7.27468598 13.06640625 10.46484375 C12.03212681 13.91458326 10.26387999 15.39065011 7.4375 17.5625 C4.5077022 18.04138066 2.27645587 18.22339951 -0.625 18.125 C-1.33205078 18.13595703 -2.03910156 18.14691406 -2.76757812 18.15820312 C-6.27083788 18.10886144 -8.21091167 17.8384658 -10.99609375 15.65234375 C-13.62018664 12.15137194 -14.07881515 9.95117882 -13.5625 5.5625 C-9.54357357 0.17761233 -6.27726355 -0.19936374 0 0 Z " fill="#FBCC56" transform="translate(225.5625,26.4375)"/>
<path d="M0 0 C0.75474609 -0.01095703 1.50949219 -0.02191406 2.28710938 -0.03320312 C5.80229964 0.01325313 8.02723601 0.27377189 10.9296875 2.31640625 C12.59829321 4.80202356 13.00508483 6.09295785 13 9.0625 C13.02191406 9.8153125 13.04382813 10.568125 13.06640625 11.34375 C12.09384546 14.77489614 10.46909194 15.76511347 7.4375 17.5625 C4.59595274 18.01085889 2.26600135 18.21359319 -0.5625 18.1875 C-1.26117188 18.21972656 -1.95984375 18.25195312 -2.6796875 18.28515625 C-5.55335698 18.29057827 -7.862389 18.1222236 -10.15380859 16.2902832 C-12.35318526 13.76041197 -13.51531648 11.79369924 -14.1875 8.5 C-12.52331823 0.67834566 -6.86442525 -0.21801179 0 0 Z " fill="#FFFEFB" transform="translate(366.5625,379.4375)"/>
<path d="M0 0 C0.75474609 -0.01095703 1.50949219 -0.02191406 2.28710938 -0.03320312 C5.82540119 0.01355844 8.02618176 0.26722766 10.9296875 2.3515625 C12.74513141 5.01358648 12.9585878 7.27468598 13.06640625 10.46484375 C12.03375518 13.90915199 10.25407014 15.38791489 7.4375 17.5625 C4.51903066 18.09775206 2.33446584 18.31146699 -0.5625 18.25 C-1.26117188 18.27771484 -1.95984375 18.30542969 -2.6796875 18.33398438 C-5.55452991 18.3204238 -7.86641266 18.12092908 -10.15380859 16.28588867 C-12.35327287 13.75670079 -13.51535681 11.79350164 -14.1875 8.5 C-12.52331823 0.67834566 -6.86442525 -0.21801179 0 0 Z " fill="#EEF2F6" transform="translate(472.5625,26.4375)"/>
<path d="M0 0 C0.75474609 -0.01095703 1.50949219 -0.02191406 2.28710938 -0.03320312 C5.82540119 0.01355844 8.02618176 0.26722766 10.9296875 2.3515625 C12.74513141 5.01358648 12.9585878 7.27468598 13.06640625 10.46484375 C12.03375518 13.90915199 10.25407014 15.38791489 7.4375 17.5625 C4.51903066 18.09775206 2.33446584 18.31146699 -0.5625 18.25 C-1.26117188 18.27771484 -1.95984375 18.30542969 -2.6796875 18.33398438 C-5.55452991 18.3204238 -7.86641266 18.12092908 -10.15380859 16.28588867 C-12.35327287 13.75670079 -13.51535681 11.79350164 -14.1875 8.5 C-12.52331823 0.67834566 -6.86442525 -0.21801179 0 0 Z " fill="#A8DD63" transform="translate(269.5625,26.4375)"/>
<path d="M0 0 C0.75087891 -0.01933594 1.50175781 -0.03867187 2.27539062 -0.05859375 C6.46365868 -0.02175762 8.14286617 0.30098586 11.5625 2.94140625 C13.5625 5.625 13.5625 5.625 14.125 9.1875 C13.48378811 13.10601711 12.66750781 14.25058226 9.5625 16.625 C6.5754054 18.1185473 3.5251552 17.93131228 0.25 18 C-1.72419922 18.07347656 -1.72419922 18.07347656 -3.73828125 18.1484375 C-8.29087714 17.50424758 -9.68511088 16.23554846 -12.4375 12.625 C-13.0851529 8.59515971 -12.93483212 6.50885967 -10.9296875 2.9453125 C-7.49685675 -0.2507713 -4.456145 -0.11416255 0 0 Z " fill="#D72A38" transform="translate(180.4375,26.375)"/>
</svg>
