<?xml version="1.0" encoding="UTF-8"?>
<svg version="1.1" xmlns="http://www.w3.org/2000/svg" width="512" height="512">
<path d="M0 0 C0.89115509 -0.00974854 1.78231018 -0.01949707 2.70046997 -0.02954102 C22.63293108 -0.20264286 41.86559565 0.06369901 61.4453125 4.23828125 C62.77079102 4.51115967 62.77079102 4.51115967 64.12304688 4.78955078 C105.34784078 13.49342708 143.65278781 33.55407357 174.4453125 62.23828125 C175.83675916 63.45166344 177.23239889 64.66025928 178.6328125 65.86328125 C185.12642006 71.55168147 190.72060083 77.62806502 196.12890625 84.36328125 C197.62026628 86.21427785 199.13192996 88.04918974 200.66796875 89.86328125 C211.37655764 102.55494215 219.73850793 116.5738543 227.4453125 131.23828125 C227.79303711 131.88893555 228.14076172 132.53958984 228.49902344 133.20996094 C239.66788692 154.35997462 246.75126165 178.69014258 250.4453125 202.23828125 C250.62787598 203.39384521 250.81043945 204.54940918 250.99853516 205.73999023 C252.59886637 217.00999862 252.84447883 228.17905615 252.8203125 239.55078125 C252.81949677 240.99969254 252.81949677 240.99969254 252.81866455 242.47787476 C252.75654087 266.55129834 249.41615617 289.15610162 242.4453125 312.23828125 C242.19442871 313.07343262 241.94354492 313.90858398 241.68505859 314.76904297 C231.64027637 347.38390177 213.65619439 377.32137709 190.4453125 402.23828125 C189.23193031 403.62972791 188.02333447 405.02536764 186.8203125 406.42578125 C181.13191228 412.91938881 175.05552873 418.51356958 168.3203125 423.921875 C166.4693159 425.41323503 164.63440401 426.92489871 162.8203125 428.4609375 C150.1286516 439.16952639 136.10973945 447.53147668 121.4453125 455.23828125 C120.7946582 455.58600586 120.14400391 455.93373047 119.47363281 456.29199219 C98.32361913 467.46085567 73.99345117 474.5442304 50.4453125 478.23828125 C49.28974854 478.42084473 48.13418457 478.6034082 46.94360352 478.79150391 C35.67359513 480.39183512 24.5045376 480.63744758 13.1328125 480.61328125 C12.16687164 480.61273743 11.20093079 480.6121936 10.20571899 480.6116333 C-5.69146444 480.57060916 -20.9742443 479.64585488 -36.5546875 476.23828125 C-37.54082031 476.02397461 -38.52695313 475.80966797 -39.54296875 475.58886719 C-62.70147661 470.37592653 -87.4329494 462.36856322 -107.45703125 449.3515625 C-109.4642716 448.04471629 -109.4642716 448.04471629 -111.61328125 448.40625 C-113.73064532 449.31369174 -115.64465967 450.35989062 -117.6171875 451.55078125 C-131.43113794 459.42815795 -147.31589645 461.56463211 -162.8671875 458.17578125 C-178.72901984 453.45891548 -191.47409113 442.92994719 -199.98828125 428.87109375 C-207.59308816 414.74465718 -209.11258698 397.48029575 -204.61328125 382.06640625 C-199.96528353 369.64887728 -199.96528353 369.64887728 -195.5546875 365.23828125 C-195.91170802 361.67915221 -197.03876541 358.98749085 -198.77734375 355.89453125 C-199.45555176 354.66029419 -199.45555176 354.66029419 -200.14746094 353.40112305 C-200.87497559 352.08301636 -200.87497559 352.08301636 -201.6171875 350.73828125 C-217.47441548 321.13589281 -227.48531125 286.39202077 -227.79296875 252.68359375 C-227.8027626 251.79257462 -227.81255646 250.90155548 -227.82264709 249.98353577 C-228.06977464 221.65429212 -225.7888597 195.50365266 -217.5546875 168.23828125 C-217.17836182 166.9855542 -217.17836182 166.9855542 -216.79443359 165.70751953 C-203.42490392 122.29738749 -175.36083111 81.26686088 -139.5546875 53.23828125 C-138.56984375 52.44808594 -137.585 51.65789062 -136.5703125 50.84375 C-98.53859031 20.59941859 -48.96468094 0.44659656 0 0 Z " fill="#EBF1FE" transform="translate(243.5546875,15.76171875)"/>
<path d="M0 0 C1.03253906 0.00902344 2.06507813 0.01804687 3.12890625 0.02734375 C4.27166016 0.04474609 4.27166016 0.04474609 5.4375 0.0625 C5.7675 1.3825 6.0975 2.7025 6.4375 4.0625 C5.86902344 4.5471875 5.30054688 5.031875 4.71484375 5.53125 C0.25944609 9.39904096 -3.83505303 13.3185629 -7.63671875 17.828125 C-9.92752042 20.48601254 -12.34055547 23.01172897 -14.75 25.5625 C-21.30602702 32.58508667 -26.91944492 40.30206824 -32.5625 48.0625 C-31.87285156 48.53558594 -31.18320313 49.00867188 -30.47265625 49.49609375 C-15.78708506 59.83038459 -4.76644334 71.75125461 -1.3125 89.8125 C1.11333855 106.83707863 -1.52542115 122.6274795 -11.78320312 136.7421875 C-21.26823017 148.70219143 -34.44920141 157.27289192 -49.5625 160.0625 C-52.67269816 160.34868553 -55.75295761 160.39586631 -58.875 160.375 C-60.12349731 160.37089111 -60.12349731 160.37089111 -61.3972168 160.36669922 C-67.82284083 160.25790691 -73.51178857 159.27939932 -79.5625 157.0625 C-81.56178737 156.39369924 -83.56163551 155.72656758 -85.5625 155.0625 C-85.67207031 155.83851563 -85.78164062 156.61453125 -85.89453125 157.4140625 C-86.74153642 163.18471563 -87.70424105 168.87480017 -89 174.5625 C-93.33606333 194.47788635 -94.66171069 214.78741406 -96.5625 235.0625 C-138.8025 235.0625 -181.0425 235.0625 -224.5625 235.0625 C-224.5625 224.54236441 -224.55996595 215.14509305 -222.9375 204.9375 C-222.76001221 203.79079834 -222.58252441 202.64409668 -222.3996582 201.46264648 C-220.55257633 190.10979323 -217.88637268 179.06866078 -214.5625 168.0625 C-214.18617432 166.80977295 -214.18617432 166.80977295 -213.80224609 165.53173828 C-200.43271642 122.12160624 -172.36864361 81.09107963 -136.5625 53.0625 C-135.57765625 52.27230469 -134.5928125 51.48210937 -133.578125 50.66796875 C-97.18010598 21.72282279 -47.26223106 -0.54324404 0 0 Z " fill="#95C0E6" transform="translate(240.5625,15.9375)"/>
<path d="M0 0 C1.05445313 0.51949219 2.10890625 1.03898438 3.1953125 1.57421875 C18.02981313 9.54915706 27.40058948 22.32120691 32.30859375 38.34375 C33.53221024 43.04464952 34.15783376 47.31630262 34.1875 52.1875 C34.20167969 53.23292969 34.21585937 54.27835938 34.23046875 55.35546875 C33.93961971 59.95482722 32.90381013 64.48094935 32 69 C60.71 69 89.42 69 119 69 C119 79.52013559 118.99746595 88.91740695 117.375 99.125 C117.19751221 100.27170166 117.02002441 101.41840332 116.8371582 102.59985352 C114.99007633 113.95270677 112.32387268 124.99383922 109 136 C108.74911621 136.83515137 108.49823242 137.67030273 108.23974609 138.53076172 C98.56710886 169.93728608 81.44196102 199.73840123 59.03515625 223.8125 C56.43837571 226.60366527 53.97375086 229.49954005 51.5078125 232.40625 C50 234 50 234 47 236 C46.47921875 235.42378906 45.9584375 234.84757813 45.421875 234.25390625 C42.606556 231.63384325 39.59171372 229.78889302 36.25 227.9375 C35.560271 227.55464844 34.87054199 227.17179688 34.15991211 226.77734375 C11.2895201 214.3446968 -13.09013141 205.38757653 -38 198 C-36.04737039 191.95780002 -33.89929702 186.02835193 -31.5625 180.125 C-30.94197808 178.53934808 -30.32218302 176.95341152 -29.703125 175.3671875 C-29.40857422 174.61276367 -29.11402344 173.85833984 -28.81054688 173.08105469 C-22.5478199 157.00169183 -18.82282561 140.85272728 -15.56933594 123.94335938 C-14.73396918 119.62467085 -13.86888215 115.3120524 -13 111 C-14.485 111.495 -14.485 111.495 -16 112 C-34.81600483 113.12306878 -50.69720159 109.75557839 -65.1875 96.9375 C-76.10580025 86.78622389 -83.29426772 72.63101082 -84.203125 57.65234375 C-84.4220967 40.29883628 -79.60192364 24.84226449 -67.30859375 12.17578125 C-49.09575627 -4.98927877 -23.09295244 -11.60523691 0 0 Z " fill="#A6D5FE" transform="translate(377,192)"/>
<path d="M0 0 C43.57308928 35.22930622 66.00812558 96.0731302 72 150 C72 158.91 72 167.82 72 177 C43.29 177 14.58 177 -15 177 C-14.67 173.7 -14.34 170.4 -14 167 C-12.74285979 149.62673454 -18.09890698 134.93316326 -29.25 121.6875 C-37.7228346 112.75667434 -49.13056353 106.69704019 -61.24609375 104.37890625 C-64 103 -64 103 -65.328125 99.484375 C-65.65617877 97.91043491 -65.96161541 96.33168929 -66.25 94.75 C-68.10473464 86.16593848 -70.50506204 77.84380099 -73.28381348 69.52087402 C-73.91980569 67.61551023 -74.54550273 65.70671969 -75.17089844 63.79785156 C-77.6403609 56.44038094 -80.47585628 49.50240261 -83.86547852 42.52709961 C-85 40 -85 40 -85 38 C-84.05084717 37.69932617 -83.10169434 37.39865234 -82.1237793 37.08886719 C-39.70435802 23.62337202 -39.70435802 23.62337202 -1 2 C-0.67 1.34 -0.34 0.68 0 0 Z " fill="#A6D5FE" transform="translate(424,84)"/>
<path d="M0 0 C2.47802071 2.17709166 4.81213843 4.41928784 7.10546875 6.7890625 C7.96398437 7.65144531 7.96398437 7.65144531 8.83984375 8.53125 C20.45646067 21.04605895 22.93557647 36.51077343 22.44921875 52.9765625 C21.58058325 68.835365 13.47654621 81.26592389 2.10546875 91.7890625 C1.34234375 92.6759375 0.57921875 93.5628125 -0.20703125 94.4765625 C-12.17893674 104.77796955 -27.63592168 106.74320516 -42.81005859 105.94873047 C-58.53723097 104.74404896 -71.57459381 96.05333726 -81.890625 84.56640625 C-93.21269189 70.76078921 -96.26514285 55.23988521 -94.89453125 37.7890625 C-92.69728181 21.85900407 -84.24681127 9.22465762 -71.64453125 -0.4609375 C-49.43937739 -15.8241672 -22.02811209 -16.82579142 0 0 Z " fill="#6593A6" transform="translate(131.89453125,369.2109375)"/>
<path d="M0 0 C1.05445313 0.51949219 2.10890625 1.03898438 3.1953125 1.57421875 C18.02981313 9.54915706 27.40058948 22.32120691 32.30859375 38.34375 C36.51966781 54.52188765 33.32446765 70.74695401 24.9609375 85.0390625 C15.85769765 98.78459199 2.33225631 108.17282514 -13.8125 111.63671875 C-29.88693968 114.30622391 -45.46411431 111.20286845 -59 102 C-72.46415645 91.58497822 -81.25848009 78.03841812 -84 61 C-85.04636748 43.755059 -81.15945094 27.85131673 -69.625 14.5625 C-51.37413903 -4.24235001 -24.30775703 -12.21573031 0 0 Z " fill="#6593A6" transform="translate(377,192)"/>
<path d="M0 0 C13.65422956 9.36696403 23.31077823 22.21235075 26.4375 38.5625 C28.86333855 55.58707863 26.22457885 71.3774795 15.96679688 85.4921875 C6.48176983 97.45219143 -6.69920141 106.02289192 -21.8125 108.8125 C-24.92265625 109.09868168 -28.00297452 109.14711738 -31.125 109.125 C-31.96168213 109.11936035 -32.79836426 109.1137207 -33.66040039 109.10791016 C-49.4749203 108.79833239 -63.63769591 101.98730409 -74.8125 90.8125 C-81.38300254 82.93402806 -85.62863583 74.56308401 -88.8125 64.8125 C-89.1425 63.8225 -89.4725 62.8325 -89.8125 61.8125 C-90.74250581 49.93023272 -91.03908341 37.73587848 -85.8125 26.8125 C-85.51214844 26.09578125 -85.21179688 25.3790625 -84.90234375 24.640625 C-78.02793703 9.28480739 -64.88206124 0.06166111 -49.8125 -6.1875 C-33.47246268 -12.06149468 -14.60474205 -8.58384561 0 0 Z " fill="#6593A6" transform="translate(212.8125,67.1875)"/>
<path d="M0 0 C31.68 0 63.36 0 96 0 C96 38.94 96 77.88 96 118 C81.645 118.99 81.645 118.99 67 120 C59.31415155 121.09797835 51.68689352 122.19241082 44.04296875 123.4921875 C38.70394273 124.38316745 33.35161053 125.18862679 28 126 C24.63365688 117.67969342 21.29914032 109.34718992 18 101 C17.71366699 100.278125 17.42733398 99.55625 17.13232422 98.8125 C10.35931724 81.54630192 6.71372694 63.47964084 3.6875 45.25 C3.55844269 44.47541443 3.42938538 43.70082886 3.29641724 42.902771 C0.89697266 28.37512316 0 14.89576971 0 0 Z " fill="#A6D5FF" transform="translate(155,261)"/>
<path d="M0 0 C11.55 0 23.1 0 35 0 C37.475 6.435 37.475 6.435 40 13 C48.96899143 26.90193671 60.90041105 36.92133327 77.12109375 41.1875 C81.3251852 42.06811533 85.40233074 42.50517481 89.67578125 42.82568359 C90.82626953 42.91197021 90.82626953 42.91197021 92 43 C90.06600439 71.90702427 79.09382676 99.5313262 68 126 C66.97044189 125.82871582 65.94088379 125.65743164 64.88012695 125.48095703 C60.89904702 124.82245622 56.91517155 124.18225529 52.93041992 123.54638672 C51.23630472 123.27369784 49.54288427 122.99664168 47.8503418 122.71435547 C31.85686992 120.0527804 16.31199959 119.12496549 0 118 C0 79.06 0 40.12 0 0 Z " fill="#A6D5FE" transform="translate(261,261)"/>
<path d="M0 0 C26.4 0 52.8 0 80 0 C80.99 9.57 81.98 19.14 83 29 C86.50856889 49.67549524 92.15476684 69.4620523 100.30078125 88.78515625 C101.83893131 92.47018532 102.98968395 96.13823358 104 100 C102.6875 99.70833333 101.375 99.41666667 100.0625 99.125 C98.81726563 98.85429687 98.81726563 98.85429687 97.546875 98.578125 C95.98732786 98.22411737 94.43296732 97.84459104 92.890625 97.421875 C76.96687426 93.23141428 62.35664014 96.93741477 48.44140625 104.87109375 C43.05221288 108.09932481 38.49612757 111.75580864 35 117 C31.32016355 115.77338785 31.12904879 114.94844696 29.36328125 111.609375 C28.87239014 110.68326416 28.38149902 109.75715332 27.87573242 108.80297852 C27.35986572 107.79549561 26.84399902 106.7880127 26.3125 105.75 C25.77794189 104.71093506 25.24338379 103.67187012 24.69262695 102.60131836 C12.3968892 78.23743891 4.79673367 51.98047139 1 25 C0.89397461 24.30890137 0.78794922 23.61780273 0.67871094 22.90576172 C-0.369446 15.17971297 0 7.99037716 0 0 Z " fill="#95C0E6" transform="translate(16,262)"/>
<path d="M0 0 C4.29 0 8.58 0 13 0 C13 38.94 13 77.88 13 118 C-18.68 118 -50.36 118 -83 118 C-83 96.98254729 -80.95559816 76.56773719 -76.4375 56.0625 C-76.28393036 55.35702026 -76.13036072 54.65154053 -75.97213745 53.92468262 C-74.08302531 45.35072013 -74.08302531 45.35072013 -73 42 C-71 41 -71 41 -68.9375 41.41796875 C-53.87782213 44.40186769 -38.87581124 41.4826147 -25.6953125 33.81640625 C-12.79986923 25.12599883 -6.00914184 14.02133096 0 0 Z " fill="#A6D5FE" transform="translate(238,133)"/>
<path d="M0 0 C5.52760925 12.99986779 10.95978626 25.9690981 15.0625 39.5 C15.33650635 40.39855713 15.6105127 41.29711426 15.89282227 42.22290039 C17.70567798 48.41475724 18.95582484 54.63579433 20 61 C22.31 61 24.62 61 27 61 C27 61.33 27 61.66 27 62 C26.00742187 62.01417969 25.01484375 62.02835938 23.9921875 62.04296875 C6.52881757 62.54940431 -8.64924987 68.51963406 -20.86328125 81.34765625 C-29.3978992 91.94181638 -34.04424817 103.56926128 -35.1875 117.0625 C-35.455625 120.011875 -35.72375 122.96125 -36 126 C-46.56 126 -57.12 126 -68 126 C-68 87.06 -68 48.12 -68 8 C-53.645 7.01 -53.645 7.01 -39 6 C-33.07336307 5.23596367 -27.25112681 4.44270545 -21.375 3.4375 C-19.99107056 3.21304813 -18.60695396 2.98974736 -17.22265625 2.76757812 C-0.23757816 0 -0.23757816 0 0 0 Z " fill="#A6D5FE" transform="translate(329,125)"/>
<path d="M0 0 C7.86951816 1.33668849 15.31435417 3.52641276 22.875 6.0625 C24.64967651 6.65695923 24.64967651 6.65695923 26.46020508 7.26342773 C36.97208809 10.86017755 47.01707673 15.14226735 57 20 C58.10770752 20.53222168 58.10770752 20.53222168 59.23779297 21.07519531 C67.39070377 25.00208097 75.35090638 29.14576751 83 34 C79.23892447 38.87627816 75.16799547 42.50322655 70.25 46.1875 C69.12682373 47.03332642 69.12682373 47.03332642 67.98095703 47.89624023 C30.98910344 75.43685721 -15.69937099 95.52066639 -62.4375 96.25 C-63.44683594 96.27578125 -64.45617187 96.3015625 -65.49609375 96.328125 C-66.32238281 96.21984375 -67.14867187 96.1115625 -68 96 C-68.66 95.01 -69.32 94.02 -70 93 C-69.35933594 92.443125 -68.71867187 91.88625 -68.05859375 91.3125 C-63.35212283 87.16014414 -58.92681476 82.99822384 -54.88671875 78.1953125 C-52.63073573 75.57033847 -50.25112439 73.07920318 -47.875 70.5625 C-30.367237 51.63862344 -16.62284155 29.48905284 -4.14697266 7.04296875 C-2.8123313 4.6657276 -1.42428055 2.32457829 0 0 Z " fill="#A6D5FE" transform="translate(334,400)"/>
<path d="M0 0 C8.50141342 -0.23264003 16.60134288 0.38733031 25 1.6875 C26.17916992 1.86829102 27.35833984 2.04908203 28.57324219 2.23535156 C73.85060953 9.4477843 117.50156038 29.3625848 151 61 C136.48653213 76.39756485 108.99982795 83.8230961 89.4375 90.625 C88.21893311 91.05103516 87.00036621 91.47707031 85.74487305 91.91601562 C79.79639852 93.93163158 74.27433591 95.55017122 68 96 C67.68998047 95.42894531 67.37996094 94.85789062 67.06054688 94.26953125 C55.69479954 73.45714385 43.27558898 53.20011805 28 35 C27.49984375 34.39978027 26.9996875 33.79956055 26.484375 33.18115234 C21.38024198 27.07419616 16.2635569 21.0399452 10.51953125 15.51953125 C8.84178876 13.84178876 7.33228281 12.07147667 5.8125 10.25 C3.74316389 7.78122099 1.71815938 5.77725806 -1 4 C-0.67 2.68 -0.34 1.36 0 0 Z " fill="#A6D5FE" transform="translate(266,16)"/>
<path d="M0 0 C42.24 0 84.48 0 128 0 C129.98 19.8 129.98 19.8 132 40 C135.0342162 60.84800164 139.92452175 80.06822739 146.5 100 C146.73324982 100.71082733 146.96649963 101.42165466 147.20681763 102.15402222 C149.77753488 109.95502548 152.50387358 117.55696519 156.09960938 124.9609375 C157 127 157 127 157 129 C156.40461426 129.17128418 155.80922852 129.34256836 155.19580078 129.51904297 C152.50353915 130.29764861 149.81428889 131.08619084 147.125 131.875 C145.71927734 132.27912109 145.71927734 132.27912109 144.28515625 132.69140625 C143.38925781 132.95566406 142.49335938 133.21992188 141.5703125 133.4921875 C140.74289551 133.73308105 139.91547852 133.97397461 139.06298828 134.22216797 C136.81873977 134.90647752 136.81873977 134.90647752 135 137 C134.79246094 136.39414062 134.58492187 135.78828125 134.37109375 135.1640625 C130.5502818 124.77273292 123.55330538 112.51672113 113.10546875 107.65234375 C112.08066406 107.18957031 111.05585937 106.72679687 110 106.25 C101.65959017 101.5873337 99.76222128 93.50635925 96.94873047 84.89013672 C95.98385737 81.95082439 94.95431834 79.04091016 93.91015625 76.12890625 C87.86972895 59.02671056 83.62474273 41.84838125 81.1875 23.875 C81.06334717 22.96355225 80.93919434 22.05210449 80.8112793 21.11303711 C79.96784245 14.2715505 80 8.01350548 80 1 C53.6 1 27.2 1 0 1 C0 0.67 0 0.34 0 0 Z " fill="#A6D5FE" transform="translate(16,261)"/>
<path d="M0 0 C1.4152832 1.75219727 1.4152832 1.75219727 2.55078125 4.06640625 C2.99365479 4.93265625 3.43652832 5.79890625 3.89282227 6.69140625 C4.36131592 7.63886719 4.82980957 8.58632813 5.3125 9.5625 C14.65214632 27.53350278 25.97474077 44.48103992 39 60 C39.50015625 60.60021973 40.0003125 61.20043945 40.515625 61.81884766 C45.642872 67.95345908 50.78545752 74.00842293 56.5546875 79.5546875 C58.00684231 81.00684231 59.281227 82.52139417 60.5625 84.125 C63.17227038 87.2031907 65.84328789 89.50399508 69 92 C68.34 92.99 67.68 93.98 67 95 C58.89300107 96.19763433 50.2191753 94.60329759 42.1875 93.375 C41.01678955 93.19678711 39.8460791 93.01857422 38.63989258 92.83496094 C9.9624267 88.24842895 -22.08927742 79.05631544 -46 62 C-44.66904363 58.98749388 -43.27471531 57.16359423 -40.8125 55 C-31.2824489 45.66849163 -26.08558257 33.03083696 -25.76171875 19.83984375 C-25.71215169 13.89004166 -25.8109607 7.94674026 -26 2 C-25.67 2.99 -25.34 3.98 -25 5 C-24.42032471 4.81300537 -23.84064941 4.62601074 -23.2434082 4.43334961 C-20.60347801 3.58925799 -17.95821947 2.76325742 -15.3125 1.9375 C-13.94448242 1.49567383 -13.94448242 1.49567383 -12.54882812 1.04492188 C-11.66259766 0.77099609 -10.77636719 0.49707031 -9.86328125 0.21484375 C-9.05157471 -0.04176025 -8.23986816 -0.29836426 -7.40356445 -0.56274414 C-4.53724931 -1.08418349 -2.7507923 -0.96939198 0 0 Z " fill="#95C0E6" transform="translate(179,401)"/>
<path d="M0 0 C3.02301316 3.90510818 5.57851799 8.05582647 8.18359375 12.24609375 C11.56031011 17.36563145 14.99988689 21.02009254 19.9375 24.6875 C20.95714844 25.45449219 21.97679687 26.22148437 23.02734375 27.01171875 C25.66446481 28.77557501 28.01453034 29.97185483 31 31 C30.34 31.33 29.68 31.66 29 32 C28.41061391 34.5668079 28.41061391 34.5668079 28.0625 37.6875 C27.41512891 42.35565244 26.61851789 46.90742218 25.5625 51.5 C21.22643667 71.41538635 19.90078931 91.72491406 18 112 C-24.24 112 -66.48 112 -110 112 C-110 111.67 -110 111.34 -110 111 C-83.6 111 -57.2 111 -30 111 C-29.67 105.06 -29.34 99.12 -29 93 C-25.81772693 60.64689042 -16.76485647 28.07291653 0 0 Z " fill="#A6D4FE" transform="translate(126,139)"/>
<path d="M0 0 C0 30.03 0 60.06 0 91 C-3.43673899 89.28163051 -4.86904539 88.35696569 -7.35546875 85.69140625 C-7.97301025 85.03293701 -8.59055176 84.37446777 -9.22680664 83.69604492 C-9.87383545 82.9919751 -10.52086426 82.28790527 -11.1875 81.5625 C-11.86095459 80.83458252 -12.53440918 80.10666504 -13.22827148 79.35668945 C-18.3864944 73.74425997 -23.35447287 68.04765969 -28 62 C-28.75482666 61.02135986 -28.75482666 61.02135986 -29.52490234 60.02294922 C-62 17.67936169 -62 17.67936169 -62 7 C-52.90679479 4.04395804 -43.85941415 2.38866356 -34.375 1.25 C-32.86897217 1.05893677 -32.86897217 1.05893677 -31.33251953 0.86401367 C-20.7575225 -0.31622415 -10.84491926 0 0 0 Z " fill="#A7D5FE" transform="translate(251,390)"/>
<path d="M0 0 C21.17671544 0 21.17671544 0 28.875 0.75 C30.22803223 0.87652954 30.22803223 0.87652954 31.60839844 1.00561523 C54.75190311 3.37595156 54.75190311 3.37595156 62 7 C60.45424387 12.48919082 57.86976968 17.05963053 55 21.9375 C54.26414673 23.19494019 54.26414673 23.19494019 53.51342773 24.4777832 C40.56065344 46.40892463 25.04453903 66.11290326 7.875 84.875 C7.31820557 85.48875488 6.76141113 86.10250977 6.18774414 86.73486328 C4.83346809 88.19629408 3.42154527 89.60391525 2 91 C1.34 91 0.68 91 0 91 C0 60.97 0 30.94 0 0 Z " fill="#A7D5FF" transform="translate(261,390)"/>
<path d="M0 0 C3.43673899 1.71836949 4.86904539 2.64303431 7.35546875 5.30859375 C7.97301025 5.96706299 8.59055176 6.62553223 9.22680664 7.30395508 C9.87383545 8.0080249 10.52086426 8.71209473 11.1875 9.4375 C12.19768188 10.52937622 12.19768188 10.52937622 13.22827148 11.64331055 C18.3864944 17.25574003 23.35447287 22.95234031 28 29 C28.50321777 29.65242676 29.00643555 30.30485352 29.52490234 30.97705078 C62 73.32063831 62 73.32063831 62 84 C58.5267088 85.50352301 55.30254395 86.42740995 51.5703125 87.03515625 C50.01763672 87.28894043 50.01763672 87.28894043 48.43359375 87.54785156 C47.34175781 87.71768555 46.24992187 87.88751953 45.125 88.0625 C43.99964844 88.2387793 42.87429688 88.41505859 41.71484375 88.59667969 C27.67264887 90.73371107 14.32778136 91 0 91 C0 60.97 0 30.94 0 0 Z " fill="#A7D5FF" transform="translate(261,31)"/>
<path d="M0 0 C-2.73569784 1.82379856 -5.47262966 3.17815603 -8.4453125 4.5612793 C-23.74539263 11.79670695 -33.38985339 21.91629469 -39.4375 38 C-42.01584815 45.58473715 -42.39100234 52.98263719 -42.75 60.9375 C-42.85248047 62.68836914 -42.85248047 62.68836914 -42.95703125 64.47460938 C-43.27523925 71.63428934 -43.007681 76.08600445 -38.53515625 81.90625 C-38.04917969 82.4321875 -37.56320313 82.958125 -37.0625 83.5 C-34.38713679 86.49745853 -32.23061562 89.65407657 -30 93 C-23.66246202 101.6989773 -15.15159315 106.82386073 -5.34765625 110.95703125 C-3 112 -3 112 0 114 C-2.59157669 116.59157669 -4.42981937 116.28427664 -7.96606445 116.32983398 C-25.57898143 116.20309667 -39.74585888 111.80623566 -52.78515625 99.31640625 C-65.05550003 86.4834012 -70.52951711 72.34657588 -70.35131836 54.64794922 C-69.90588638 39.95024594 -64.70645928 26.97342336 -54.47265625 16.3125 C-41.26018139 3.95580945 -18.33892411 -8.68685879 0 0 Z " fill="#567D8C" transform="translate(107,359)"/>
<path d="M0 0 C1.06541016 0.00902344 2.13082031 0.01804688 3.22851562 0.02734375 C5.84008034 0.05076586 8.45116937 0.08356548 11.0625 0.125 C11.5575 1.115 11.5575 1.115 12.0625 2.125 C10.82886719 2.54458984 10.82886719 2.54458984 9.5703125 2.97265625 C-5.80820918 8.49542789 -18.79060425 18.06625024 -25.9375 33.125 C-30.88497618 44.76708091 -35.00108815 65.00538168 -31.203125 77.55078125 C-30.86796875 78.17339844 -30.5328125 78.79601562 -30.1875 79.4375 C-29.86265625 80.07300781 -29.5378125 80.70851563 -29.203125 81.36328125 C-27.98760509 83.24687865 -27.98760509 83.24687865 -25.9375 84.59375 C-23.66093517 86.33674494 -22.90660159 87.7423791 -21.6875 90.3125 C-14.79080145 103.15033044 -1.35454876 110.52140765 12.0625 115.125 C5.37831471 119.58112353 -6.0577125 117.83481559 -13.6953125 116.4375 C-30.49800621 111.57888977 -43.6364361 101.5504784 -52.31640625 86.41015625 C-59.15008732 72.5616604 -61.370689 57.14295082 -57.03515625 42.16015625 C-50.47714938 24.02645042 -39.13684074 11.89703167 -21.9296875 3.38671875 C-14.44888775 0.2322823 -8.00929343 -0.12926234 0 0 Z " fill="#567E8D" transform="translate(351.9375,186.875)"/>
<path d="M0 0 C1.50143555 -0.01160156 1.50143555 -0.01160156 3.03320312 -0.0234375 C4.4650293 -0.01957031 4.4650293 -0.01957031 5.92578125 -0.015625 C6.79243408 -0.01336914 7.65908691 -0.01111328 8.55200195 -0.00878906 C10.6875 0.25 10.6875 0.25 12.6875 2.25 C11.87667969 2.52972656 11.06585938 2.80945312 10.23046875 3.09765625 C-5.74239259 8.88061303 -17.30773123 17.07905729 -25.3125 32.25 C-29.93910632 43.26800062 -31.52222143 52.89620451 -31.625 64.75 C-31.66850586 66.42255859 -31.66850586 66.42255859 -31.71289062 68.12890625 C-31.76222706 74.49710187 -31.64386937 78.43647448 -27.3125 83.25 C-26.3225 84.2090625 -26.3225 84.2090625 -25.3125 85.1875 C-23.19095856 87.37533961 -21.95305479 89.68589006 -20.48046875 92.33203125 C-13.22998321 104.23834698 -1.02841838 110.56044145 11.6875 115.25 C9.01799234 117.91950766 6.94866976 117.53611334 3.31469727 117.57958984 C2.46834717 117.5739502 1.62199707 117.56831055 0.75 117.5625 C-0.11375244 117.55686035 -0.97750488 117.5512207 -1.86743164 117.54541016 C-17.82054017 117.24296737 -32.02003546 110.54246454 -43.3125 99.25 C-49.88300254 91.37152806 -54.12863583 83.00058401 -57.3125 73.25 C-57.6425 72.26 -57.9725 71.27 -58.3125 70.25 C-59.24250581 58.36773272 -59.53908341 46.17337848 -54.3125 35.25 C-54.01214844 34.53328125 -53.71179688 33.8165625 -53.40234375 33.078125 C-46.52360171 17.7126233 -33.38094187 8.51504319 -18.3125 2.25 C-12.1796494 -0.01062269 -6.45184838 -0.05083531 0 0 Z " fill="#567D8C" transform="translate(181.3125,58.75)"/>
<path d="M0 0 C5.67476113 1.96434039 9.31400331 5.62800662 12 11 C12.09555417 12.45579587 12.12984691 13.9160796 12.125 15.375 C12.12886719 16.53128906 12.12886719 16.53128906 12.1328125 17.7109375 C12.00389788 19.9328189 11.61383717 21.86618508 11 24 C11.51949219 24.31453125 12.03898437 24.6290625 12.57421875 24.953125 C19.63305666 29.28498117 25.55009975 33.19158379 29 41 C29.78874586 44.93635783 29.24759413 48.24174297 28 52.0625 C23.5002196 58.67155246 18.76728375 62.10962626 11 64 C6.43407912 64.38975858 1.87441428 64.41360197 -2.70556641 64.42553711 C-4.86345965 64.43743636 -7.01848923 64.48670536 -9.17578125 64.53710938 C-17.0723375 64.63038028 -23.64168412 64.22322028 -30 59 C-34.35326992 54.69442639 -36.68337958 51.62342637 -37.4375 45.375 C-37.34600974 39.84492212 -34.55603834 36.05118292 -31 32 C-28.4669877 29.76784357 -25.80368737 27.87290857 -23 26 C-21.66164727 25.00672776 -20.32693699 24.00847211 -19 23 C-19.33 22.01 -19.66 21.02 -20 20 C-20.54225459 15.33305478 -20.4698456 11.92228952 -18.3125 7.6875 C-12.67021809 1.13025345 -8.44204537 -0.77005144 0 0 Z " fill="#A5D4FE" transform="translate(100,384)"/>
<path d="M0 0 C4.65824638 1.94529765 7.63862112 4.52029949 10.1640625 8.890625 C11.18660901 12.07355165 10.93843891 14.67078142 10.7109375 17.99609375 C10.47078092 21.32987853 10.47078092 21.32987853 10.9609375 24.37109375 C12.95218793 26.53238355 14.91004401 27.6232247 17.49609375 29 C22.32338103 31.68522636 26.03835626 35.51700006 27.75390625 40.82421875 C28.54326878 45.91990556 28.06956777 50.06364716 25.46875 54.546875 C21.78079111 59.008732 16.65224208 62.28076212 10.9609375 63.37109375 C6.18455039 63.63948736 1.41042317 63.68419353 -3.37280273 63.72119141 C-4.93317635 63.73769987 -6.49347594 63.7649226 -8.0534668 63.80322266 C-24.98775151 64.21594762 -24.98775151 64.21594762 -32.0390625 58.37109375 C-36.17186879 54.13231807 -37.77436587 50.38940555 -38.5390625 44.55859375 C-38.36768805 38.4919382 -34.36677441 34.67838713 -30.2578125 30.60546875 C-27.07503998 27.72980586 -24.20934129 25.6348146 -20.0390625 24.37109375 C-20.19761719 23.80003906 -20.35617187 23.22898438 -20.51953125 22.640625 C-21.6848137 17.55018059 -21.90418306 12.38259198 -19.5390625 7.62109375 C-15.03742053 0.79704992 -7.94400082 -2.45016117 0 0 Z " fill="#7CDFBE" transform="translate(357.0390625,213.62890625)"/>
<path d="M0 0 C3.68119727 3.16754184 6.40124133 5.76439465 6.96484375 10.78125 C7.01808323 14.80378813 6.78736152 18.4316878 5.6875 22.3125 C6.3475 22.51875 7.0075 22.725 7.6875 22.9375 C14.76317943 26.18051974 20.77591039 30.91220974 23.6875 38.3125 C24.6826565 43.94853057 23.94853616 48.52964696 20.6875 53.3125 C14.56069752 59.16700015 9.1857385 61.78109368 0.7265625 61.74609375 C-0.022836 61.7513356 -0.7722345 61.75657745 -1.54434204 61.76197815 C-3.12264778 61.76837283 -4.70100134 61.76709456 -6.27929688 61.75854492 C-8.6740555 61.7500477 -11.06641476 61.7788069 -13.4609375 61.81054688 C-22.40868015 61.8528599 -29.38711627 61.74254153 -36.37109375 55.4609375 C-36.82613281 54.87570313 -37.28117188 54.29046875 -37.75 53.6875 C-38.22308594 53.09710938 -38.69617188 52.50671875 -39.18359375 51.8984375 C-42.33124154 47.47648247 -42.04095685 42.5390011 -41.3125 37.3125 C-38.5125354 31.24763202 -33.00459865 26.64249294 -27.3125 23.3125 C-25.0703125 22.65234375 -25.0703125 22.65234375 -23.3125 22.3125 C-23.663125 21.508125 -24.01375 20.70375 -24.375 19.875 C-25.56791478 15.34192383 -25.74431846 11.80492511 -24.3125 7.3125 C-21.79684095 3.36702937 -18.84317317 0.31952182 -14.9375 -2.25 C-9.49775718 -3.1566238 -4.91043564 -2.50154268 0 0 Z " fill="#EFE386" transform="translate(190.3125,87.6875)"/>
<path d="M0 0 C0.66 0 1.32 0 2 0 C2 30.03 2 60.06 2 91 C-1.63 91 -5.26 91 -9 91 C-9.15855469 89.53949219 -9.31710938 88.07898438 -9.48046875 86.57421875 C-11.10857191 71.65119509 -11.10857191 71.65119509 -17 58 C-17.44214844 57.23042969 -17.88429687 56.46085937 -18.33984375 55.66796875 C-22.06056067 49.61793874 -26.86346291 44.85916409 -32 40 C-32.66 39.34 -33.32 38.68 -34 38 C-33.26007813 37.27941406 -32.52015625 36.55882812 -31.7578125 35.81640625 C-29.27869372 33.28461497 -27.07498878 30.71048966 -24.875 27.9375 C-20.6387774 22.69870472 -16.1675278 17.745089 -11.58984375 12.80859375 C-8.78079692 9.76228203 -6.04667665 6.66045167 -3.33984375 3.5234375 C-2.27112096 2.30827165 -1.1442894 1.1442894 0 0 Z " fill="#A7D5FE" transform="translate(249,31)"/>
<path d="M0 0 C1.4152832 1.75219727 1.4152832 1.75219727 2.55078125 4.06640625 C2.99365479 4.93265625 3.43652832 5.79890625 3.89282227 6.69140625 C4.59556274 8.11259766 4.59556274 8.11259766 5.3125 9.5625 C14.1319805 26.5326189 24.70927091 42.51912088 36.86328125 57.29296875 C38.82023441 59.7722531 40.44853679 62.25355865 42 65 C29.75563199 60.54750254 19.04061733 52.10227422 9 44 C8.11183594 43.30519531 7.22367188 42.61039062 6.30859375 41.89453125 C0.52954589 37.30402081 -4.91319013 32.40313429 -10.3125 27.375 C-10.9825708 26.75343018 -11.6526416 26.13186035 -12.34301758 25.49145508 C-24.65893487 13.89738354 -24.65893487 13.89738354 -26 6 C-25.625 3.5625 -25.625 3.5625 -25 2 C-25 2.99 -25 3.98 -25 5 C-24.13048706 4.71950806 -24.13048706 4.71950806 -23.2434082 4.43334961 C-20.60347801 3.58925799 -17.95821947 2.76325742 -15.3125 1.9375 C-14.40048828 1.64294922 -13.48847656 1.34839844 -12.54882812 1.04492188 C-11.66259766 0.77099609 -10.77636719 0.49707031 -9.86328125 0.21484375 C-9.05157471 -0.04176025 -8.23986816 -0.29836426 -7.40356445 -0.56274414 C-4.53724931 -1.08418349 -2.7507923 -0.96939198 0 0 Z " fill="#A6D4FE" transform="translate(179,401)"/>
<path d="M0 0 C28.38 0 56.76 0 86 0 C86 3.3 86 6.6 86 10 C57.29 10 28.58 10 -1 10 C-0.67 6.7 -0.34 3.4 0 0 Z " fill="#ECF1FE" transform="translate(410,251)"/>
<path d="M0 0 C5.67476113 1.96434039 9.31400331 5.62800662 12 11 C12.59057744 16.67862925 12.29370905 21.16922672 9 26 C4.57092517 30.57795129 1.3260831 31.81241265 -4.875 32.3125 C-9.23455451 32.24767391 -11.6384369 30.82676897 -15 28 C-19.3022759 23.23261319 -20.36282503 19.56252705 -20.28125 13.28125 C-19.69180611 8.50020514 -16.85179203 5.75038822 -13.375 2.6875 C-8.92314854 -0.47565762 -5.3540278 -0.48837416 0 0 Z " fill="#EAF0FD" transform="translate(100,384)"/>
<path d="M0 0 C4.81351557 2.01013853 7.6067766 4.65981482 10.1171875 9.22265625 C11.96171939 13.91938097 11.51831011 17.79187135 9.8359375 22.55859375 C7.24629298 26.44306053 4.18779709 29.25766396 -0.0390625 31.37109375 C-4.80886687 32.07773143 -9.21040767 32.43952129 -13.47265625 29.94921875 C-17.35722882 26.6134757 -20.54504771 23.47879142 -21.375 18.2578125 C-21.47360981 12.70608025 -20.79600774 8.61212717 -17.0390625 4.37109375 C-11.75955525 -0.15256214 -6.9227286 -2.13517108 0 0 Z " fill="#EAF0FD" transform="translate(357.0390625,213.62890625)"/>
<path d="M0 0 C4.79296738 2.44170037 7.6602877 5.14059753 10 10 C10.95475674 15.31808427 10.56471499 19.71091347 7.875 24.4375 C5.34966665 27.91950559 3.20407865 29.73084418 -1 31 C-6.01040253 31.64571256 -9.78050122 31.58716608 -14.375 29.375 C-19.35334926 24.87077924 -21.65455218 20.8312782 -22.08984375 14.16796875 C-21.91417463 9.92899658 -20.28945267 7.295535 -17.34375 4.3359375 C-11.62060853 -0.78093898 -7.48960984 -1.64155832 0 0 Z " fill="#EBF0FD" transform="translate(187,86)"/>
<path d="M0 0 C3.76355422 1.15242626 6.96788218 3.06056305 10.33203125 5.0546875 C17.33119462 9.10807231 24.41411425 12.62819977 31.83203125 15.8671875 C30.84203125 19.4971875 29.85203125 23.1271875 28.83203125 26.8671875 C15.83979159 21.90962237 3.68226672 15.11846095 -8.16796875 7.8671875 C-6.56982316 4.13818111 -4.54576669 -0.2784794 0 0 Z " fill="#E9F0FE" transform="translate(95.16796875,78.1328125)"/>
<path d="M0 0 C0.88880859 0.20109375 1.77761719 0.4021875 2.69335938 0.609375 C6.67589122 1.54292116 10.19346288 2.56161594 13.8125 4.5 C9.3797241 8.9327759 -7.11847317 7.76035784 -12.9296875 7.86328125 C-13.67476563 7.74339844 -14.41984375 7.62351562 -15.1875 7.5 C-15.8475 6.51 -16.5075 5.52 -17.1875 4.5 C-11.68394801 -1.90496622 -7.91267979 -2.09299392 0 0 Z " fill="#97C2E8" transform="translate(281.1875,488.5)"/>
<path d="M0 0 C6.96569734 -0.23746695 13.77372217 0.05511681 20.6875 0.875 C21.39455078 0.95347168 22.10160156 1.03194336 22.83007812 1.11279297 C24.56452029 1.33405751 26.28521305 1.65830814 28 2 C28.33 2.66 28.66 3.32 29 4 C25.4219483 4.89763903 21.83705458 5.7641069 18.25 6.625 C17.23421875 6.88023438 16.2184375 7.13546875 15.171875 7.3984375 C13.70234375 7.74648438 13.70234375 7.74648438 12.203125 8.1015625 C11.30239258 8.32150879 10.40166016 8.54145508 9.47363281 8.76806641 C5.05705744 9.18217484 2.3449993 6.62821374 -1 4 C-0.67 2.68 -0.34 1.36 0 0 Z " fill="#97C2E8" transform="translate(266,16)"/>
<path d="M0 0 C0.66 0.33 1.32 0.66 2 1 C1.64172119 1.4439209 1.28344238 1.8878418 0.91430664 2.34521484 C-0.70486989 4.35361397 -2.32121396 6.36427412 -3.9375 8.375 C-4.50146484 9.07367188 -5.06542969 9.77234375 -5.64648438 10.4921875 C-6.45375977 11.49765625 -6.45375977 11.49765625 -7.27734375 12.5234375 C-8.02359009 13.450354 -8.02359009 13.450354 -8.78491211 14.39599609 C-10.07505021 15.99709179 -10.07505021 15.99709179 -11 18 C-12.46015291 17.71758359 -13.91809793 17.42373386 -15.375 17.125 C-16.18710938 16.96257813 -16.99921875 16.80015625 -17.8359375 16.6328125 C-20 16 -20 16 -22 14 C-19.6477894 12.41369581 -17.29332921 10.83091461 -14.9375 9.25 C-13.95233398 8.58484375 -13.95233398 8.58484375 -12.94726562 7.90625 C-8.72685756 5.0787845 -4.52065875 2.32523272 0 0 Z " fill="#A6D4FD" transform="translate(219,46)"/>
<path d="M0 0 C0.99 0.66 1.98 1.32 3 2 C2.5153125 2.4125 2.030625 2.825 1.53125 3.25 C-3.54250509 7.62123516 -8.32152134 12.20953648 -13 17 C-13 13.45042562 -12.51411281 13.11575285 -10.15625 10.64453125 C-9.56972656 10.02255859 -8.98320313 9.40058594 -8.37890625 8.75976562 C-7.75886719 8.11716797 -7.13882813 7.47457031 -6.5 6.8125 C-5.87996094 6.15830078 -5.25992188 5.50410156 -4.62109375 4.83007812 C-3.0872384 3.21363056 -1.54678589 1.60406254 0 0 Z " fill="#A1CDF1" transform="translate(86,85)"/>
</svg>
