<?xml version="1.0" encoding="UTF-8"?>
<svg version="1.1" xmlns="http://www.w3.org/2000/svg" width="512" height="512">
<path d="M0 0 C0.72411072 0.00021149 1.44822144 0.00042297 2.1942749 0.00064087 C14.1829824 0.03548696 25.43699551 1.09647359 37 4.375 C38.25425781 4.70242187 39.50851562 5.02984375 40.80078125 5.3671875 C61.58819853 11.485074 79.38526643 23.66269411 95 38.375 C95.60199219 38.92414062 96.20398438 39.47328125 96.82421875 40.0390625 C115.34391584 57.56586208 126.22896147 81.93746075 132 106.375 C132 107.365 132 108.355 132 109.375 C132.93483687 109.36808655 132.93483687 109.36808655 133.88855934 109.36103344 C149.06218159 109.25054858 164.23568021 109.16784096 179.40960121 109.11593914 C186.74766116 109.09017175 194.08545239 109.05504978 201.42333984 108.99780273 C207.82004458 108.94792223 214.21655468 108.91569832 220.6134485 108.90455753 C223.99978317 108.89804642 227.38556109 108.88277563 230.77171707 108.84634972 C234.55469129 108.81009584 238.33650915 108.80505347 242.11962891 108.80737305 C243.79845657 108.78040848 243.79845657 108.78040848 245.51119995 108.75289917 C253.9852705 108.80918679 253.9852705 108.80918679 257.68002319 111.78547668 C261.05854461 115.55653162 261.12703165 117.33204483 261.14044189 122.31440735 C261.14615204 123.58046814 261.15186218 124.84652893 261.15774536 126.1509552 C261.15899078 127.5619811 261.16011587 128.97300712 261.16113281 130.3840332 C261.16576002 131.86388269 261.17078455 133.34373099 261.17617798 134.82357788 C261.18931408 138.85052579 261.19574938 142.87745701 261.20018864 146.904423 C261.20311765 149.41946593 261.20722214 151.93450428 261.21169281 154.44954491 C261.22537144 162.31602689 261.23503609 170.18249844 261.2388947 178.0489915 C261.24337536 187.13419841 261.26092203 196.21925485 261.2898953 205.304416 C261.31150395 212.3235878 261.32159856 219.34271725 261.32293582 226.36192197 C261.32398451 230.55563872 261.32990579 234.74921411 261.34775543 238.94289589 C261.36422188 242.88848263 261.36639866 246.83382155 261.35761642 250.77943039 C261.35684526 252.22702765 261.3611993 253.67463814 261.37107468 255.12220192 C261.38377287 257.09964144 261.37613341 259.07718031 261.36749268 261.05464172 C261.36895924 262.16096105 261.3704258 263.26728037 261.3719368 264.40712452 C260.94635013 267.8031 260.04848671 269.65274785 258 272.375 C252.38051649 275.67510433 247.46700844 275.7524436 241.0625 275.5625 C240.18787109 275.54896484 239.31324219 275.53542969 238.41210938 275.52148438 C236.27446914 275.48644109 234.13715016 275.43264541 232 275.375 C232.00368717 276.10368758 232.00737434 276.83237516 232.01117325 277.58314419 C232.09961769 295.33650123 232.16575498 313.08981413 232.20724869 330.84334469 C232.22784953 339.42892826 232.25592256 348.01436452 232.30175781 356.59985352 C232.34170167 364.08540036 232.36745082 371.57084049 232.37635398 379.05649096 C232.38155601 383.01793259 232.39373045 386.97906898 232.42292023 390.94041252 C232.45020899 394.67426274 232.45841811 398.40768397 232.45243073 402.14162445 C232.45404405 404.15455619 232.47549606 406.16744194 232.49768066 408.18025208 C232.45908825 416.71193323 231.40938895 423.24718158 225.88671875 429.93359375 C224.79810547 430.86365234 224.79810547 430.86365234 223.6875 431.8125 C222.96949219 432.45058594 222.25148438 433.08867187 221.51171875 433.74609375 C214.74004477 438.13767703 207.4120157 437.65291827 199.61401367 437.61450195 C198.38059738 437.61651611 197.14718109 437.61853027 195.87638855 437.62060547 C193.20432169 437.62414451 190.53250351 437.62422718 187.8604641 437.61882973 C183.62707123 437.61118428 179.39384579 437.62191588 175.16047668 437.6360321 C163.12610198 437.67366904 151.09180406 437.69197849 139.05737305 437.68041992 C132.4022728 437.67418569 125.74744438 437.68587267 119.09241086 437.71686524 C114.89257246 437.73542545 110.69350974 437.73229256 106.49368513 437.71269763 C103.25375651 437.70414281 100.01403602 437.72829616 96.77416992 437.74731445 C95.04925323 437.72966286 95.04925323 437.72966286 93.28948975 437.71165466 C84.76510349 437.80944664 77.79295732 439.67929799 71.5625 445.75 C67.15056413 453.16205226 66.58039351 458.70568676 66.62890625 467.2578125 C66.61153356 469.58203279 66.59394908 471.90625151 66.57617188 474.23046875 C66.5660782 477.87551679 66.56250954 481.52046586 66.56420898 485.16552734 C66.56064418 488.69658762 66.53333141 492.22688736 66.50390625 495.7578125 C66.51208878 496.84748322 66.5202713 497.93715393 66.52870178 499.05984497 C66.45481701 506.55546116 66.45481701 506.55546116 64.23510742 510.55517578 C61.09236016 513.11400026 59.28499938 513.20193067 55.34570312 512.96679688 C50.93412543 511.853801 48.31154583 508.8382301 45.25 505.625 C43.84957938 504.23374958 42.44852995 502.84313185 41.046875 501.453125 C40.36173828 500.75896484 39.67660156 500.06480469 38.97070312 499.34960938 C36.22737671 496.60084525 33.37391062 493.98567916 30.5 491.375 C25.54908595 486.82786188 20.64638787 482.23072172 15.75 477.625 C10.24490074 472.44892461 4.70305769 467.33349183 -1 462.375 C-4.2236849 463.7902763 -6.32117238 465.53404231 -8.8125 468 C-11.69477132 470.56082842 -12.79281859 471.33286141 -16.6875 472.125 C-21.07318006 471.13201584 -22.32487596 470.00690794 -25 466.375 C-25.71201261 462.59874233 -25.62590764 458.87932422 -25.56640625 455.046875 C-25.57485817 453.39150726 -25.57485817 453.39150726 -25.58348083 451.70269775 C-25.59993472 448.1763669 -25.58439792 444.65128726 -25.5625 441.125 C-25.54586396 437.61310863 -25.53688534 434.10205388 -25.55223083 430.59014893 C-25.5614508 428.40748817 -25.55254934 426.22465001 -25.52259827 424.04217529 C-25.54878707 416.69619631 -26.64043118 410.36609722 -31.4912262 404.60345459 C-39.23237495 397.28589744 -48.48056949 396.93799382 -58.64477539 397.00610352 C-59.88169632 397.00233704 -61.11861725 396.99857056 -62.39302063 396.99468994 C-65.0662822 396.98827668 -67.73892899 396.98711501 -70.41212654 396.99487495 C-74.64516537 397.00653553 -78.87793412 396.99423189 -83.11094666 396.97825623 C-93.62039603 396.94219734 -104.12983757 396.93583102 -114.63934326 396.93835449 C-122.81869293 396.94006843 -130.99781942 396.93287973 -139.1771068 396.89837593 C-143.37909496 396.88164588 -147.58053685 396.88331982 -151.78252232 396.89919865 C-155.01660781 396.90638578 -158.25056898 396.88774092 -161.48461914 396.87329102 C-162.63861206 396.88303452 -163.79260498 396.89277802 -164.98156738 396.90281677 C-172.62732854 396.83469974 -177.98488045 395.7590595 -183.98828125 390.69921875 C-184.42527344 390.15910156 -184.86226562 389.61898438 -185.3125 389.0625 C-185.76238281 388.53011719 -186.21226562 387.99773437 -186.67578125 387.44921875 C-190.79233536 381.00116496 -191.43614262 375.75900715 -191.38768005 368.25466919 C-191.39306559 367.25048443 -191.39845113 366.24629966 -191.40399987 365.21168506 C-191.41828051 361.85470229 -191.41117527 358.49811378 -191.40405273 355.14111328 C-191.40975625 352.73106571 -191.41672044 350.32102083 -191.42485046 347.91098022 C-191.44093602 342.04876714 -191.44288188 336.18665306 -191.43763756 330.32442965 C-191.43359124 325.55778616 -191.4350449 320.7911743 -191.44038582 316.02453232 C-191.44113424 315.34534039 -191.44188266 314.66614846 -191.44265376 313.96637496 C-191.44418529 312.58645527 -191.44572364 311.20653559 -191.44726873 309.82661591 C-191.46098798 296.89390716 -191.45556033 283.96125893 -191.44408352 271.02855156 C-191.43415351 259.20773954 -191.44708875 247.3870841 -191.47101771 235.56629623 C-191.49542511 223.41725156 -191.50501245 211.26827977 -191.49836498 199.11921108 C-191.49487617 192.3030313 -191.49708233 185.48697189 -191.51461601 178.6708107 C-191.53090202 172.26035385 -191.52613077 165.85012212 -191.50731087 159.43967056 C-191.50362454 157.08911191 -191.50673468 154.73853112 -191.51719666 152.38799286 C-191.53040471 149.17475064 -191.51885961 145.96249807 -191.50120544 142.7492981 C-191.51081045 141.82311523 -191.52041546 140.89693236 -191.53031152 139.94268334 C-191.44902071 132.7322687 -189.73307102 126.62969093 -185.03515625 121.03515625 C-184.38417969 120.50792969 -183.73320312 119.98070313 -183.0625 119.4375 C-182.41410156 118.89222656 -181.76570313 118.34695312 -181.09765625 117.78515625 C-175.54567798 114.05282077 -170.59054267 114.10650744 -164.10546875 114.1796875 C-163.15811356 114.1825174 -162.21075836 114.18534729 -161.23469543 114.18826294 C-158.21883334 114.19942813 -155.20327184 114.22452611 -152.1875 114.25 C-150.13867617 114.26003453 -148.08984768 114.26915955 -146.04101562 114.27734375 C-141.02722852 114.29935551 -136.01366517 114.33386029 -131 114.375 C-130.95029053 113.6722998 -130.90058105 112.96959961 -130.84936523 112.24560547 C-128.38786351 81.20699013 -109.89456293 51.44127857 -86.59375 31.37890625 C-71.70201591 19.05195329 -54.74524827 10.11399632 -36.25 4.5625 C-35.6017627 4.3675293 -34.95352539 4.17255859 -34.28564453 3.97167969 C-22.96429389 0.76928218 -11.71469323 -0.03167402 0 0 Z " fill="#0290CF" transform="translate(221,-0.375)"/>
<path d="M0 0 C0.94735519 0.0028299 1.89471039 0.00565979 2.87077332 0.00857544 C5.88663541 0.01974063 8.90219691 0.04483861 11.91796875 0.0703125 C13.96679258 0.08034703 16.01562107 0.08947205 18.06445312 0.09765625 C23.07824023 0.11966801 28.09180358 0.15417279 33.10546875 0.1953125 C33.08190308 1.50012573 33.08190308 1.50012573 33.05786133 2.83129883 C32.38302063 45.93852791 41.36540871 82.21880202 72.10546875 114.1953125 C97.64226299 139.36130733 132.49877779 151.45788796 167.86987305 151.37597656 C174.81356058 151.30870288 181.32810374 150.7668754 188.10546875 149.1953125 C189.41641456 148.92326149 190.72763415 148.65252783 192.0390625 148.3828125 C217.38357889 142.99376185 238.28626889 131.53380041 257.2421875 113.84765625 C259.10546875 112.1953125 259.10546875 112.1953125 260.10546875 112.1953125 C260.10957764 113.44143311 260.11368652 114.68755371 260.11791992 115.97143555 C260.13972242 120.60303888 260.1940239 125.23379404 260.25805664 129.86499023 C260.28122686 131.86783711 260.29563007 133.87080567 260.30102539 135.8737793 C260.31032208 138.75646704 260.35132781 141.63724369 260.3984375 144.51953125 C260.39253853 145.85886971 260.39253853 145.85886971 260.38652039 147.2252655 C260.40616348 148.06575943 260.42580658 148.90625336 260.44604492 149.7722168 C260.45603767 150.87475044 260.45603767 150.87475044 260.4662323 151.9995575 C261.49556124 155.53526665 263.19250076 156.99140193 266.10546875 159.1953125 C269.14384988 159.69279707 271.62487687 159.88763849 274.65942383 159.85473633 C275.5087146 159.86522003 276.35800537 159.87570374 277.23303223 159.88650513 C280.03072769 159.91522851 282.82718366 159.90896691 285.625 159.90234375 C287.56843108 159.91546044 289.51184853 159.93076458 291.45524597 159.94816589 C296.56313258 159.98803206 301.67066269 159.9982074 306.77868652 160.00219727 C311.99384385 160.01152562 317.20879144 160.04893733 322.42382812 160.08398438 C332.65103186 160.14857675 342.8780789 160.18180334 353.10546875 160.1953125 C353.22153239 173.45204306 353.31027068 186.70865191 353.36452961 199.96578789 C353.39057673 206.12223181 353.42588637 212.27832704 353.48266602 218.43457031 C353.53715872 224.380346 353.56692601 230.32578715 353.57985497 236.27179337 C353.58906379 238.5355264 353.60704646 240.799242 353.63411903 243.06283188 C353.67063773 246.24394449 353.67540444 249.42369058 353.6730957 252.60498047 C353.69107208 253.53215378 353.70904846 254.45932709 353.72756958 255.41459656 C353.66885931 262.93480165 351.49525353 269.48514829 346.34987354 275.11683464 C339.54701122 281.48521684 332.79637778 282.63777449 323.79907227 282.56420898 C322.78677551 282.56797546 321.77447876 282.57174194 320.73150635 282.57562256 C318.54244981 282.58203807 316.35336541 282.58174099 314.16430855 282.57543755 C310.69585251 282.56630482 307.22793444 282.57657651 303.75950623 282.59205627 C293.90144658 282.6320963 284.04343019 282.63335857 274.18530273 282.63110352 C268.14708754 282.63105236 262.10916321 282.65024734 256.07102776 282.68043709 C252.66089323 282.691243 249.25131819 282.6791435 245.84120178 282.66661072 C243.74121553 282.67551751 241.6412338 282.68559271 239.54125977 282.69702148 C238.12815773 282.68240623 238.12815773 282.68240623 236.68650818 282.66749573 C228.23854443 282.75898367 222.50026273 285.37684947 216.5071106 291.28488159 C216.00452728 291.80027496 215.50194397 292.31566833 214.98413086 292.84667969 C214.4284996 293.40012054 213.87286835 293.9535614 213.30039978 294.52377319 C211.48476316 296.33711782 209.68375924 298.16426249 207.8828125 299.9921875 C206.6114483 301.26848406 205.33926278 302.54396295 204.06629944 303.81866455 C201.40682778 306.48575316 198.75392554 309.15914029 196.10620117 311.83789062 C192.73021748 315.25338624 189.34361216 318.65808438 185.95267391 322.05872726 C182.69670644 325.32472359 179.44565701 328.59559647 176.1953125 331.8671875 C175.58385817 332.48203758 174.97240383 333.09688766 174.34242058 333.73036957 C165.64321927 342.47736885 165.64321927 342.47736885 157.42066956 351.66973877 C154.33897946 355.24436055 152.31378195 357.00111931 147.60546875 357.7578125 C142.99079588 357.01616865 141.86135114 355.96972998 139.10546875 352.1953125 C138.39477804 348.41868578 138.47955854 344.69980262 138.5390625 340.8671875 C138.53061058 339.21181976 138.53061058 339.21181976 138.52198792 337.52301025 C138.50553403 333.9966794 138.52107083 330.47159976 138.54296875 326.9453125 C138.55960479 323.43342113 138.56858341 319.92236638 138.55323792 316.41046143 C138.54401795 314.22780067 138.55291941 312.04496251 138.58287048 309.86248779 C138.55668168 302.51650881 137.46503757 296.18640972 132.61424255 290.42376709 C124.8730938 283.10620994 115.62489926 282.75830632 105.46069336 282.82641602 C104.22377243 282.82264954 102.9868515 282.81888306 101.71244812 282.81500244 C99.03918655 282.80858918 96.36653976 282.80742751 93.69334221 282.81518745 C89.46030338 282.82684803 85.22753463 282.81454439 80.99452209 282.79856873 C70.48507272 282.76250984 59.97563118 282.75614352 49.46612549 282.75866699 C41.28677582 282.76038093 33.10764933 282.75319223 24.92836195 282.71868843 C20.72637379 282.70195838 16.5249319 282.70363232 12.32294643 282.71951115 C9.08886094 282.72669828 5.85489977 282.70805342 2.62084961 282.69360352 C1.46685669 282.70334702 0.31286377 282.71309052 -0.87609863 282.72312927 C-8.52185979 282.65501224 -13.8794117 281.579372 -19.8828125 276.51953125 C-20.31980469 275.97941406 -20.75679687 275.43929688 -21.20703125 274.8828125 C-21.65691406 274.35042969 -22.10679688 273.81804687 -22.5703125 273.26953125 C-26.68686661 266.82147746 -27.33067387 261.57931965 -27.2822113 254.07498169 C-27.28759684 253.07079693 -27.29298238 252.06661216 -27.29853112 251.03199756 C-27.31281176 247.67501479 -27.30570652 244.31842628 -27.29858398 240.96142578 C-27.3042875 238.55137821 -27.31125169 236.14133333 -27.31938171 233.73129272 C-27.33546727 227.86907964 -27.33741313 222.00696556 -27.33216881 216.14474215 C-27.32812249 211.37809866 -27.32957615 206.6114868 -27.33491707 201.84484482 C-27.33566549 201.16565289 -27.33641391 200.48646096 -27.33718501 199.78668746 C-27.33871654 198.40676777 -27.34025489 197.02684809 -27.34179998 195.64692841 C-27.35551923 182.71421966 -27.35009158 169.78157143 -27.33861477 156.84886406 C-27.32868476 145.02805204 -27.34162 133.2073966 -27.36554896 121.38660873 C-27.38995636 109.23756406 -27.3995437 97.08859227 -27.39289623 84.93952358 C-27.38940742 78.1233438 -27.39161358 71.30728439 -27.40914726 64.4911232 C-27.42543327 58.08066635 -27.42066202 51.67043462 -27.40184212 45.25998306 C-27.39815579 42.90942441 -27.40126593 40.55884362 -27.41172791 38.20830536 C-27.42493596 34.99506314 -27.41339086 31.78281057 -27.39573669 28.5696106 C-27.4053417 27.64342773 -27.41494671 26.71724486 -27.42484277 25.76299584 C-27.34355196 18.5525812 -25.62760227 12.45000343 -20.9296875 6.85546875 C-19.95322266 6.06462891 -19.95322266 6.06462891 -18.95703125 5.2578125 C-18.30863281 4.71253906 -17.66023438 4.16726562 -16.9921875 3.60546875 C-11.44020923 -0.12686673 -6.48507392 -0.07318006 0 0 Z " fill="#FCD001" transform="translate(56.89453125,113.8046875)"/>
<path d="M0 0 C1.88636421 -0.0129007 1.88636421 -0.0129007 3.81083679 -0.02606201 C5.20719868 -0.0304971 6.60356101 -0.03479547 7.99992371 -0.03897095 C9.46844679 -0.04687336 10.93696795 -0.0551424 12.40548706 -0.06375122 C17.23016001 -0.08995231 22.05484157 -0.10527559 26.87956238 -0.11953735 C28.54081922 -0.12489756 30.20207601 -0.13027507 31.86333275 -0.13566971 C38.77330301 -0.15729441 45.68327096 -0.17603148 52.59326649 -0.1872921 C62.49505967 -0.2035348 72.39646068 -0.23672474 82.29810601 -0.29369295 C89.26126004 -0.33238902 96.22430916 -0.3519243 103.18756789 -0.35721266 C107.3462096 -0.36086622 111.50443285 -0.37288766 115.66295815 -0.4053154 C119.5758486 -0.43539105 123.48806728 -0.44171009 127.40104866 -0.42993164 C128.83534499 -0.42971087 130.26967246 -0.43801925 131.70386124 -0.45558548 C143.88836678 -0.5966746 143.88836678 -0.5966746 147.82272339 2.56536865 C151.0001781 6.36914804 151.11229491 8.19719159 151.12547302 13.0933075 C151.13118317 14.35936829 151.13689331 15.62542908 151.14277649 16.92985535 C151.14402191 18.34088125 151.14514699 19.75190726 151.14616394 21.16293335 C151.15079115 22.64278284 151.15581568 24.12263113 151.16120911 25.60247803 C151.17434521 29.62942593 151.18078051 33.65635716 151.18521976 37.68332314 C151.18814877 40.19836607 151.19225327 42.71340442 151.19672394 45.22844505 C151.21040257 53.09492704 151.22006721 60.96139859 151.22392583 68.82789165 C151.22840649 77.91309855 151.24595316 86.998155 151.27492642 96.08331615 C151.29653508 103.10248795 151.30662969 110.1216174 151.30796695 117.14082211 C151.30901564 121.33453887 151.31493692 125.52811426 151.33278656 129.72179604 C151.34925301 133.66738278 151.35142978 137.6127217 151.34264755 141.55833054 C151.34187638 143.00592779 151.34623043 144.45353829 151.3561058 145.90110207 C151.36880399 147.87854159 151.36116453 149.85608045 151.3525238 151.83354187 C151.35399036 152.93986119 151.35545692 154.04618052 151.35696793 155.18602467 C150.93138125 158.58200015 150.03351783 160.431648 147.98503113 163.15390015 C142.36554761 166.45400448 137.45203957 166.53134374 131.04753113 166.34140015 C130.17290222 166.32786499 129.29827332 166.31432983 128.3971405 166.30038452 C126.25950027 166.26534124 124.12218129 166.21154556 121.98503113 166.15390015 C121.9887183 166.88258773 121.99240547 167.61127531 121.99620438 168.36204433 C122.08464882 186.11540137 122.15078611 203.86871428 122.19227982 221.62224483 C122.21288066 230.20782841 122.24095369 238.79326466 122.28678894 247.37875366 C122.3267328 254.86430051 122.35248195 262.34974064 122.36138511 269.8353911 C122.36658713 273.79683274 122.37876158 277.75796913 122.40795135 281.71931267 C122.43524011 285.45316289 122.44344924 289.18658412 122.43746185 292.9205246 C122.43907517 294.93345634 122.46052719 296.94634209 122.48271179 298.95915222 C122.44411937 307.49083338 121.39442008 314.02608173 115.87174988 320.7124939 C115.14600769 321.33253296 114.4202655 321.95257202 113.67253113 322.59140015 C112.95452332 323.22948608 112.2365155 323.86757202 111.49674988 324.5249939 C104.7250759 328.91657718 97.39704683 328.43181841 89.5990448 328.3934021 C88.36562851 328.39541626 87.13221222 328.39743042 85.86141968 328.39950562 C83.18935282 328.40304465 80.51753464 328.40312733 77.84549522 328.39772987 C73.61210236 328.39008443 69.37887692 328.40081602 65.14550781 328.41493225 C53.1111331 328.45256918 41.07683519 328.47087864 29.04240417 328.45932007 C22.38730392 328.45308584 15.7324755 328.46477282 9.07744199 328.49576539 C4.87760359 328.5143256 0.67854087 328.5111927 -3.52128375 328.49159777 C-6.76121237 328.48304296 -10.00093285 328.50719631 -13.24079895 328.5262146 C-14.96571564 328.508563 -14.96571564 328.508563 -16.72547913 328.49055481 C-25.24986538 328.58834679 -32.22201155 330.45819814 -38.45246887 336.52890015 C-42.86440474 343.94095241 -43.43457536 349.48458691 -43.38606262 358.03671265 C-43.40343531 360.36093294 -43.42101979 362.68515166 -43.438797 365.0093689 C-43.44889067 368.65441694 -43.45245933 372.29936601 -43.45075989 375.94442749 C-43.45432469 379.47548777 -43.48163746 383.0057875 -43.51106262 386.53671265 C-43.5028801 387.62638336 -43.49469757 388.71605408 -43.48626709 389.83874512 C-43.56015187 397.3343613 -43.56015187 397.3343613 -45.77986145 401.33407593 C-48.92260871 403.8929004 -50.7299695 403.98083081 -54.66926575 403.74569702 C-59.08084345 402.63270115 -61.70342304 399.61713025 -64.76496887 396.40390015 C-66.16538949 395.01264973 -67.56643892 393.622032 -68.96809387 392.23202515 C-69.99579895 391.19078491 -69.99579895 391.19078491 -71.04426575 390.12850952 C-73.78759353 387.37974402 -76.64107801 384.76460264 -79.51496887 382.15390015 C-84.44388957 377.62639507 -89.32673974 373.05106648 -94.20246887 368.46640015 C-100.0714126 362.94956504 -105.98876601 357.49925797 -112.01496887 352.15390015 C-110.40189423 348.14110986 -107.58097324 345.42417885 -104.57478333 342.42318726 C-104.02002823 341.86171494 -103.46527313 341.30024261 -102.89370728 340.72175598 C-101.0605116 338.86958312 -99.21988195 337.02502641 -97.37825012 335.1812439 C-96.09735558 333.89392072 -94.81661129 332.60644803 -93.53601074 331.3188324 C-90.85034812 328.62119732 -88.16058557 325.92772633 -85.46833801 323.23666382 C-82.02613022 319.79465908 -78.59787558 316.33911458 -75.17304707 312.87982845 C-72.53155408 310.21605157 -69.88097311 307.56146187 -67.22778893 304.90933418 C-65.96035577 303.63954685 -64.69615065 302.36652867 -63.43531227 301.09019279 C-61.66698381 299.30217738 -59.88631729 297.52738774 -58.10212708 295.75521851 C-57.58809326 295.22994568 -57.07405945 294.70467285 -56.54444885 294.16348267 C-50.80865341 288.52494268 -45.41874533 286.82004268 -37.5916748 286.77272034 C-36.65072464 286.78201065 -35.70977448 286.79130096 -34.74031067 286.8008728 C-33.7312265 286.79871262 -32.72214233 286.79655243 -31.68247986 286.79432678 C-29.49996592 286.7912484 -27.31743454 286.79482021 -25.13493919 286.80434036 C-21.67433359 286.81812136 -18.21429873 286.81161516 -14.75369263 286.79949951 C-4.91765044 286.76859964 4.91825773 286.77338611 14.75431824 286.79354858 C20.77961426 286.80449386 26.80448113 286.79121637 32.82971764 286.7636528 C35.11851423 286.75822888 37.40735418 286.76223337 39.69611549 286.77605057 C42.90527926 286.79519782 46.1130479 286.78363875 49.32218933 286.76571655 C50.2570668 286.77905533 51.19194427 286.7923941 52.15515137 286.80613708 C59.51051105 286.71533069 65.96683123 284.63980871 71.60719776 279.74662209 C77.58172066 273.07991799 78.43046729 266.44205608 78.41740417 257.90414429 C78.42759583 256.89850433 78.43778748 255.89286438 78.44828796 254.85675049 C78.47835084 251.55079529 78.48767385 248.24513018 78.49674988 244.9390564 C78.51360149 242.63976585 78.53175238 240.34048449 78.55114746 238.04121399 C78.5986009 232.00295888 78.62844057 225.96474103 78.65458679 219.92636108 C78.68441566 213.75929408 78.73093806 207.59235534 78.77604675 201.42538452 C78.86202702 189.33495689 78.92939593 177.24450283 78.98503113 165.15390015 C77.90619156 165.1650032 76.82735199 165.17610626 75.71582031 165.18754578 C65.54861549 165.28890562 55.38151317 165.36385784 45.21391773 165.41296101 C39.98661046 165.4390543 34.75971107 165.47444783 29.53263855 165.53109741 C24.48813557 165.58542619 19.4440249 165.6153227 14.39925194 165.62828636 C12.4746807 165.63752465 10.55013092 165.6555651 8.6257267 165.68255043 C5.9296747 165.71885261 3.23524331 165.72384506 0.53898621 165.7215271 C-0.6543206 165.74849167 -0.6543206 165.74849167 -1.87173462 165.77600098 C-6.00238602 165.73757749 -7.76508867 165.36181485 -10.98709106 162.68092346 C-11.65629074 161.84700577 -12.32549042 161.01308807 -13.01496887 160.15390015 C-13.34496887 159.82390015 -13.67496887 159.49390015 -14.01496887 159.15390015 C-14.12257671 157.20606645 -14.15909518 155.25429191 -14.16886902 153.30351257 C-14.17746948 152.03185745 -14.18606995 150.76020233 -14.19493103 149.45001221 C-14.19936671 148.02749675 -14.20366502 146.60498085 -14.20783997 145.1824646 C-14.21573772 143.69453233 -14.22400646 142.206602 -14.23262024 140.71867371 C-14.25888442 135.81819499 -14.27415505 130.91770755 -14.28840637 126.0171814 C-14.29376478 124.33178387 -14.29914229 122.6463864 -14.30453873 120.960989 C-14.32617642 113.94987511 -14.34491277 106.93876356 -14.35616112 99.9276247 C-14.37239592 89.8735192 -14.40555185 79.81980049 -14.46256196 69.76584083 C-14.50125909 62.70081713 -14.52079369 55.63589687 -14.52608168 48.57076997 C-14.52973631 44.3495029 -14.54176825 40.12864796 -14.57418442 35.9074955 C-14.60426033 31.9338971 -14.61057896 27.9609602 -14.59880066 23.98727226 C-14.59857986 22.53040222 -14.60689042 21.07350155 -14.6244545 19.61673737 C-14.76551823 7.2410088 -14.76551823 7.2410088 -11.66600037 3.30274963 C-7.74183089 0.12193131 -4.90271334 0.0249357 0 0 Z " fill="#FD646F" transform="translate(331.0149688720703,108.84609985351563)"/>
<path d="M0 0 C14.19 0 28.38 0 43 0 C43.09038925 18.61983687 43.16403366 37.23949535 43.20724869 55.85949612 C43.22784994 64.50561328 43.25592375 73.15158416 43.30175781 81.79760742 C43.34170042 89.33589198 43.36745052 96.87407056 43.37635398 104.412458 C43.38155621 108.40184436 43.39373203 112.39092764 43.42292023 116.3802166 C43.45020698 120.14033086 43.45841851 123.90001913 43.45243073 127.66022301 C43.45404421 129.68746773 43.47549727 131.71466678 43.49768066 133.74179077 C43.45923448 142.29997475 42.42699892 148.85086083 36.88671875 155.55859375 C36.16097656 156.17863281 35.43523437 156.79867187 34.6875 157.4375 C33.96949219 158.07558594 33.25148438 158.71367187 32.51171875 159.37109375 C25.74004477 163.76267703 18.4120157 163.27791827 10.61401367 163.23950195 C9.38059738 163.24151611 8.14718109 163.24353027 6.87638855 163.24560547 C4.20432169 163.24914451 1.53250351 163.24922718 -1.1395359 163.24382973 C-5.37292877 163.23618428 -9.60615421 163.24691588 -13.83952332 163.2610321 C-25.87389802 163.29866904 -37.90819594 163.31697849 -49.94262695 163.30541992 C-56.5977272 163.29918569 -63.25255562 163.31087267 -69.90758914 163.34186524 C-74.10742754 163.36042545 -78.30649026 163.35729256 -82.50631487 163.33769763 C-85.74624349 163.32914281 -88.98596398 163.35329616 -92.22583008 163.37231445 C-93.37577454 163.36054672 -94.52571899 163.34877899 -95.71051025 163.33665466 C-104.23489651 163.43444664 -111.20704268 165.30429799 -117.4375 171.375 C-121.84943587 178.78705226 -122.41960649 184.33068676 -122.37109375 192.8828125 C-122.38846644 195.20703279 -122.40605092 197.53125151 -122.42382812 199.85546875 C-122.4339218 203.50051679 -122.43749046 207.14546586 -122.43579102 210.79052734 C-122.43935582 214.32158762 -122.46666859 217.85188736 -122.49609375 221.3828125 C-122.48791122 222.47248322 -122.4797287 223.56215393 -122.47129822 224.68484497 C-122.54518299 232.18046116 -122.54518299 232.18046116 -124.76489258 236.18017578 C-127.90763984 238.73900026 -129.71500062 238.82693067 -133.65429688 238.59179688 C-138.06587457 237.478801 -140.68845417 234.4632301 -143.75 231.25 C-145.15042062 229.85874958 -146.55147005 228.46813185 -147.953125 227.078125 C-148.98083008 226.03688477 -148.98083008 226.03688477 -150.02929688 224.97460938 C-152.77262466 222.22584387 -155.62610914 219.61070249 -158.5 217 C-163.4289207 212.47249492 -168.31177087 207.89716633 -173.1875 203.3125 C-179.05644373 197.79566489 -184.97379714 192.34535782 -191 187 C-189.38692536 182.98720972 -186.56600437 180.2702787 -183.55981445 177.26928711 C-183.00505936 176.70781479 -182.45030426 176.14634247 -181.8787384 175.56785583 C-180.04554272 173.71568297 -178.20491308 171.87112626 -176.36328125 170.02734375 C-175.08238671 168.74002058 -173.80164242 167.45254788 -172.52104187 166.16493225 C-169.83537925 163.46729717 -167.1456167 160.77382618 -164.45336914 158.08276367 C-161.01116134 154.64075894 -157.58290671 151.18521444 -154.15807819 147.72592831 C-151.51658521 145.06215143 -148.86600424 142.40756172 -146.21282005 139.75543404 C-144.94538689 138.48564671 -143.68118178 137.21262852 -142.4203434 135.93629265 C-140.65201493 134.14827724 -138.87134842 132.3734876 -137.0871582 130.60131836 C-136.57312439 130.07604553 -136.05909058 129.55077271 -135.52947998 129.00958252 C-129.79368454 123.37104253 -124.40377646 121.66614253 -116.57670593 121.61882019 C-115.63575577 121.6281105 -114.6948056 121.63740082 -113.7253418 121.64697266 C-112.71625763 121.64481247 -111.70717346 121.64265228 -110.66751099 121.64042664 C-108.48499705 121.63734825 -106.30246567 121.64092006 -104.11997032 121.65044022 C-100.65936472 121.66422121 -97.19932986 121.65771501 -93.73872375 121.64559937 C-83.90268157 121.61469949 -74.0667734 121.61948597 -64.23071289 121.63964844 C-58.20541687 121.65059372 -52.18054999 121.63731622 -46.15531349 121.60975266 C-43.8665169 121.60432873 -41.57767694 121.60833322 -39.28891563 121.62215042 C-36.07975187 121.64129768 -32.87198323 121.62973861 -29.6628418 121.61181641 C-28.72796432 121.62515518 -27.79308685 121.63849396 -26.82987976 121.65223694 C-19.47452008 121.56143054 -13.0181999 119.48590857 -7.37783337 114.59272194 C-1.40331046 107.92601784 -0.55456384 101.28815594 -0.56762695 92.75024414 C-0.5574353 91.74460419 -0.54724365 90.73896423 -0.53674316 89.70285034 C-0.50668028 86.39689514 -0.49735728 83.09123003 -0.48828125 79.78515625 C-0.47142964 77.4858657 -0.45327874 75.18658434 -0.43388367 72.88731384 C-0.38643023 66.84905874 -0.35659056 60.81084089 -0.33044434 54.77246094 C-0.30061547 48.60539393 -0.25409307 42.4384552 -0.20898438 36.27148438 C-0.123004 24.18104201 -0.05717871 12.09061292 0 0 Z " fill="#00C279" transform="translate(410,274)"/>
<path d="M0 0 C1.12563103 0.00212242 1.12563103 0.00212242 2.27400208 0.00428772 C4.66838585 0.00988065 7.06267578 0.02243181 9.45703125 0.03515625 C11.08137886 0.04017217 12.70572793 0.04473491 14.33007812 0.04882812 C18.30993194 0.05984777 22.28971569 0.07710752 26.26953125 0.09765625 C25.48578125 0.67515625 24.70203125 1.25265625 23.89453125 1.84765625 C20.55886107 4.70680212 19.41366826 6.50876118 19.01505566 10.90286922 C19.01300279 11.9914652 19.01094992 13.08006117 19.00883484 14.2016449 C18.99820763 16.07961761 18.99820763 16.07961761 18.98736572 17.99552917 C18.98965948 19.38040197 18.99216917 20.76527443 18.99487305 22.15014648 C18.9905252 23.61058818 18.9853418 25.0710276 18.97938538 26.53146362 C18.96599204 30.49633776 18.96541706 34.46111659 18.96794868 38.42600894 C18.96901814 41.7362034 18.96413565 45.04637855 18.95934325 48.35656887 C18.94824695 56.16586853 18.94781138 63.9751201 18.95385742 71.78442383 C18.95989852 79.84037995 18.94758307 87.89616148 18.92628735 95.95208782 C18.908674 102.86939814 18.90266956 109.78665287 18.9059251 116.7039848 C18.9077385 120.83506299 18.90509612 124.96601662 18.89121056 129.09707451 C18.87864108 132.98196727 18.88056781 136.86658774 18.89362144 140.75147629 C18.8959887 142.17649362 18.89324716 143.60153007 18.88499832 145.0265255 C18.87454289 146.97321994 18.88442748 148.91999185 18.89530945 150.86668396 C18.89505784 152.50014346 18.89505784 152.50014346 18.89480114 154.16660213 C19.49460509 158.85813291 21.81988147 161.97654454 25.26953125 165.09765625 C20.3766396 165.22155105 15.48466698 165.31213134 10.59057617 165.37231445 C8.92700286 165.39740972 7.26353929 165.43149421 5.6003418 165.47485352 C3.20463972 165.53573085 0.81039874 165.56391394 -1.5859375 165.5859375 C-2.32571335 165.61174393 -3.0654892 165.63755035 -3.8276825 165.66413879 C-7.88755214 165.66632803 -9.51892332 165.2748468 -12.67700195 162.62963867 C-13.354646 161.79408447 -14.03229004 160.95853027 -14.73046875 160.09765625 C-15.06046875 159.76765625 -15.39046875 159.43765625 -15.73046875 159.09765625 C-15.83807659 157.14982255 -15.87459505 155.19804802 -15.8843689 153.24726868 C-15.89296936 151.97561356 -15.90156982 150.70395844 -15.91043091 149.39376831 C-15.91486658 147.97125285 -15.9191649 146.54873695 -15.92333984 145.1262207 C-15.9312376 143.63828844 -15.93950634 142.1503581 -15.94812012 140.66242981 C-15.9743843 135.76195109 -15.98965493 130.86146366 -16.00390625 125.9609375 C-16.00926466 124.27553997 -16.01464216 122.59014251 -16.0200386 120.9047451 C-16.0416763 113.89363121 -16.06041265 106.88251966 -16.071661 99.87138081 C-16.0878958 89.8172753 -16.12105173 79.7635566 -16.17806184 69.70959693 C-16.21675896 62.64457323 -16.23629357 55.57965297 -16.24158156 48.51452607 C-16.24523619 44.29325901 -16.25726813 40.07240406 -16.2896843 35.8512516 C-16.31976021 31.8776532 -16.32607884 27.90471631 -16.31430054 23.93102837 C-16.31407974 22.47415832 -16.3223903 21.01725765 -16.33995438 19.56049347 C-16.48101811 7.18476491 -16.48101811 7.18476491 -13.38150024 3.24650574 C-9.07447867 -0.24464143 -5.29581191 -0.03753402 0 0 Z " fill="#FC4755" transform="translate(332.73046875,108.90234375)"/>
<path d="M0 0 C2.64027795 0.10456546 3.77467343 0.627961 5.90234375 2.22265625 C8.79989381 5.82095738 10.52306747 9.75037857 12.4375 13.9375 C13.3962254 15.98931632 14.35737583 18.04000044 15.3203125 20.08984375 C15.87364258 21.2691748 16.42697266 22.44850586 16.99707031 23.66357422 C21.43860428 33.0616493 26.0641712 42.37342419 30.6394043 51.70687866 C38.76494127 68.28903668 38.76494127 68.28903668 42.00390625 75.203125 C42.37459229 75.99364258 42.74527832 76.78416016 43.12719727 77.59863281 C44.50712582 81.26236598 44.55935208 83.88069814 43.9375 87.75 C41.74996717 90.4423481 40.35326045 90.68936827 36.9375 91.1875 C33.07238207 90.62383697 32.42672829 89.750903 29.9375 86.75 C28.19864567 83.78189256 26.68808233 80.71903458 25.1875 77.625 C24.77628906 76.80128906 24.36507812 75.97757812 23.94140625 75.12890625 C20.9375 69.03127596 20.9375 69.03127596 20.9375 66.75 C7.4075 67.08 -6.1225 67.41 -20.0625 67.75 C-23.18462218 74.19147439 -23.18462218 74.19147439 -26.28417969 80.64379883 C-26.68024414 81.44841553 -27.07630859 82.25303223 -27.484375 83.08203125 C-27.88237305 83.90421143 -28.28037109 84.7263916 -28.69042969 85.57348633 C-30.22170707 88.00255001 -31.62176968 89.25703761 -34.0625 90.75 C-37.0625 91.25 -37.0625 91.25 -40.0625 90.75 C-42.5 88.6875 -42.5 88.6875 -44.0625 85.75 C-43.83174117 79.31347691 -41.21508503 74.31521583 -38.375 68.625 C-37.8689624 67.5925415 -37.3629248 66.56008301 -36.84155273 65.49633789 C-35.64600277 63.05804746 -34.44673362 60.62181564 -33.24414062 58.18701172 C-31.1449963 53.92823218 -29.07276362 49.65661409 -27.00263977 45.38366699 C-25.04085252 41.33445421 -23.07471694 37.28736069 -21.10800171 33.24053955 C-20.12401897 31.21482495 -19.14111841 29.18858431 -18.15933228 27.1618042 C-16.75781097 24.27104224 -15.35032618 21.38325554 -13.94140625 18.49609375 C-13.52401184 17.63230606 -13.10661743 16.76851837 -12.67657471 15.8785553 C-10.73652034 11.91632618 -8.72452759 8.00517207 -6.51147461 4.18774414 C-5.95211464 3.2189608 -5.95211464 3.2189608 -5.38145447 2.23060608 C-3.67537547 0.31542932 -2.51444524 0.19504975 0 0 Z " fill="#FEFCFC" transform="translate(399.0625,146.25)"/>
<path d="M0 0 C1.28025176 -0.01041829 1.28025176 -0.01041829 2.58636719 -0.02104706 C5.44538183 -0.03933864 8.30356871 -0.02904678 11.16261292 -0.01878357 C13.21270876 -0.02584095 15.26279939 -0.0345852 17.31288147 -0.04489136 C22.88107769 -0.06741541 28.44899007 -0.06443849 34.01721454 -0.05556989 C38.66448338 -0.05046397 43.31169869 -0.05774937 47.95896202 -0.06504196 C58.92158714 -0.08205061 69.8840731 -0.07846539 80.84669495 -0.06175232 C92.15928401 -0.04482881 103.47148727 -0.06066672 114.78403419 -0.0929752 C124.49458087 -0.11965854 134.20500735 -0.12695051 143.91558701 -0.11846012 C149.71619576 -0.11352742 155.51657234 -0.1157653 161.31715202 -0.13624763 C166.77148756 -0.1545849 172.2252675 -0.14866957 177.67957306 -0.12404823 C179.68146295 -0.11903422 181.68339504 -0.12254535 183.68525124 -0.13519669 C186.41824954 -0.15110243 189.14941278 -0.13620018 191.88232422 -0.11352539 C192.67464477 -0.12536112 193.46696531 -0.13719685 194.28329557 -0.14939123 C198.28997941 -0.08184925 200.80419027 0.35054595 204.00448704 2.86251926 C206.50465393 5.5146637 206.50465393 5.5146637 207.12965393 8.5771637 C206.34398564 12.26980465 205.53464853 13.2708491 202.50465393 15.5146637 C199.53143604 15.90526364 196.92989171 16.0508962 193.95751953 16.01586914 C192.65087305 16.02417074 192.65087305 16.02417074 191.31782967 16.03264004 C188.39340635 16.04627392 185.46983244 16.03126254 182.54542542 16.01637268 C180.45120378 16.02015483 178.35698465 16.02565401 176.26277161 16.03274536 C170.57073383 16.04672988 164.8789973 16.03550944 159.18697619 16.01903415 C153.23728863 16.0052064 147.28761896 16.01164106 141.33792114 16.01516724 C131.34665559 16.01787095 121.35551007 16.00437914 111.36427307 15.98121643 C99.80235932 15.95459847 88.2406462 15.95286134 76.67871231 15.96460479 C65.56854836 15.97537199 54.45845719 15.96920429 43.34829903 15.95504951 C38.61428679 15.94928126 33.88032766 15.94937897 29.14631462 15.95411491 C23.57555918 15.95887609 18.00502436 15.94881866 12.43431091 15.92716026 C10.38601488 15.92158076 8.33769769 15.92113769 6.2894001 15.92611313 C3.50095421 15.93203858 0.71318909 15.91961379 -2.07519531 15.90234375 C-2.8925003 15.9083538 -3.70980528 15.91436384 -4.55187708 15.92055601 C-9.95732256 15.85935748 -9.95732256 15.85935748 -12.49035549 14.23652744 C-13.91708958 11.79208492 -13.96043738 9.33206417 -14.08909607 6.54981995 C-12.18295183 0.01625975 -5.73478511 -0.05947889 0 0 Z " fill="#D8AB02" transform="translate(125.49534606933594,300.48533630371094)"/>
<path d="M0 0 C3.21630141 1.52603415 5.28769299 3.09800771 7.75 5.6875 C10.4302304 8.44231937 13.14581567 11.05924859 16.0625 13.5625 C18.64953738 15.78644441 21.10946833 18.06610268 23.5 20.5 C26.44999997 23.49682537 29.52961082 26.28704933 32.71484375 29.03125 C33.46894531 29.6809375 34.22304688 30.330625 35 31 C35.99459229 31.57306885 35.99459229 31.57306885 37.00927734 32.15771484 C39.65631772 33.91554726 41.22778696 35.34027332 43 38 C43.9622429 43.11119035 43.98607463 48.02176942 43.82324219 53.20703125 C43.74994832 55.62670616 43.74120548 58.04026536 43.7421875 60.4609375 C43.72252936 62.00786515 43.69921704 63.55475159 43.671875 65.1015625 C43.66742371 65.81937897 43.66297241 66.53719543 43.65838623 67.27676392 C43.52640766 70.7819043 43.04560768 72.9242757 41.22460938 75.94775391 C38.82745142 78.15917948 37.94168119 78.72143652 34.734375 78.734375 C28.95983592 78.38969687 26.08561129 75.27564664 22.25 71.25 C20.84957938 69.85874958 19.44852995 68.46813185 18.046875 67.078125 C17.36173828 66.38396484 16.67660156 65.68980469 15.97070312 64.97460938 C13.22737534 62.22584387 10.37389086 59.61070249 7.5 57 C2.5710793 52.47249492 -2.31177087 47.89716633 -7.1875 43.3125 C-13.05644373 37.79566489 -18.97379714 32.34535782 -25 27 C-23.41568547 23.09148801 -20.73364905 20.47632644 -17.7734375 17.578125 C-17.26575836 17.07327576 -16.75807922 16.56842651 -16.23501587 16.04827881 C-14.61966158 14.44407904 -12.99747791 12.84699144 -11.375 11.25 C-10.27558302 10.16061893 -9.17661941 9.0707801 -8.078125 7.98046875 C-5.3906398 5.31498115 -2.69700979 2.65584857 0 0 Z " fill="#07B865" transform="translate(244,434)"/>
<path d="M0 0 C0.69888289 -0.00694553 1.39776578 -0.01389106 2.11782694 -0.02104706 C4.45953189 -0.0393428 6.80022667 -0.02904642 9.14196777 -0.01878357 C10.82078307 -0.02584074 12.49959201 -0.03458491 14.1783905 -0.04489136 C18.73829817 -0.06741665 23.29785927 -0.06443854 27.85780144 -0.05556989 C31.66268671 -0.05046474 35.46750658 -0.05774862 39.27238512 -0.06504196 C48.24671156 -0.08205058 57.22086799 -0.07846501 66.19519043 -0.06175232 C75.45891961 -0.04482398 84.72217783 -0.06067307 93.98585558 -0.0929752 C101.9358623 -0.11964813 109.8857222 -0.12695351 117.83576918 -0.11846012 C122.58559083 -0.1135249 127.33512896 -0.11577872 132.08491516 -0.13624763 C136.55023976 -0.15456917 141.01488527 -0.14868973 145.48017311 -0.12404823 C147.12007621 -0.11902933 148.76003073 -0.12255807 150.39989281 -0.13519669 C152.63676602 -0.15107444 154.87138834 -0.13623089 157.1081543 -0.11352539 C158.98634983 -0.11264593 158.98634983 -0.11264593 160.90248871 -0.1117487 C164.05407715 0.5146637 164.05407715 0.5146637 166.48429108 2.86251926 C168.05407715 5.5146637 168.05407715 5.5146637 168.11657715 8.5771637 C166.76773884 12.30630491 165.37134969 13.37628146 162.05407715 15.5146637 C158.8290863 16.02082157 158.8290863 16.02082157 155.10852051 16.02932739 C154.42173942 16.03627292 153.73495832 16.04321845 153.02736568 16.05037445 C150.73255102 16.0686299 148.43877189 16.05838511 146.1439209 16.04811096 C144.49613675 16.05517017 142.84835909 16.0639152 141.20059204 16.07421875 C136.72951436 16.09672107 132.25879051 16.09377131 127.78767776 16.08489728 C124.05491068 16.07978783 120.32221011 16.08707951 116.58944988 16.09436935 C107.78430557 16.11137065 98.97933456 16.10779975 90.17419434 16.09107971 C81.08939248 16.07415178 72.00507088 16.09000154 62.92032146 16.12230259 C55.11974627 16.14898729 47.31932067 16.15627772 39.51870441 16.14778751 C34.85996656 16.14285577 30.20151779 16.14508736 25.54281616 16.16557503 C21.16283147 16.18391505 16.78353854 16.17799444 12.40359116 16.15337563 C10.79635845 16.14836263 9.18907319 16.15187025 7.58188248 16.16452408 C5.38700264 16.18043779 3.19440567 16.16552458 0.99963379 16.14285278 C-0.22815292 16.14226647 -1.45593964 16.14168016 -2.72093201 16.14107609 C-6.86398506 15.33634209 -8.35757731 13.78190481 -10.94592285 10.5146637 C-11.50842285 7.4521637 -11.50842285 7.4521637 -10.94592285 4.5146637 C-7.74458352 0.21279389 -5.21625539 0.01169336 0 0 Z " fill="#D8AB02" transform="translate(143.9459228515625,336.48533630371094)"/>
<path d="M0 0 C16.5 0 33 0 50 0 C50 13.51124438 50 13.51124438 49.16015625 19.26171875 C48.98419922 20.48181641 48.80824219 21.70191406 48.62695312 22.95898438 C48.44068359 24.18939453 48.25441406 25.41980469 48.0625 26.6875 C47.88009766 27.96044922 47.69769531 29.23339844 47.50976562 30.54492188 C46.14074248 39.85925752 46.14074248 39.85925752 45 41 C43.58774954 41.0928726 42.17091066 41.11746772 40.75561523 41.11352539 C39.85475693 41.11344986 38.95389862 41.11337433 38.02574158 41.11329651 C37.04658279 41.10813522 36.06742401 41.10297394 35.05859375 41.09765625 C34.06118668 41.0962413 33.0637796 41.09482635 32.03614807 41.09336853 C28.83656876 41.08775114 25.63705831 41.07519571 22.4375 41.0625 C20.27408955 41.05748724 18.11067801 41.05292395 15.94726562 41.04882812 C10.63146226 41.03862505 5.31580861 41.01905308 0 41 C0 27.47 0 13.94 0 0 Z " fill="#01CEFA" transform="translate(229,140)"/>
<path d="M0 0 C16.5 0 33 0 50 0 C50 13.53 50 27.06 50 41 C35.15 41 20.3 41 5 41 C0 14.33333333 0 14.33333333 0 0 Z " fill="#01BEF8" transform="translate(164,140)"/>
<path d="M0 0 C14.85 0 29.7 0 45 0 C45 13.53 45 27.06 45 41 C28.5 41 12 41 -5 41 C-3.84674308 21.39463232 -3.84674308 21.39463232 -2.5 13.1875 C-2.36980469 12.34380859 -2.23960937 11.50011719 -2.10546875 10.63085938 C-1.53858246 7.02053809 -0.88811721 3.55246882 0 0 Z " fill="#01BEF8" transform="translate(169,85)"/>
<path d="M0 0 C14.85 0 29.7 0 45 0 C48.48196095 13.9278438 48.48196095 13.9278438 49.1875 20.5625 C49.26935547 21.22701172 49.35121094 21.89152344 49.43554688 22.57617188 C50.10332631 28.47395499 50 33.96148042 50 40 C33.5 40 17 40 0 40 C0 26.8 0 13.6 0 0 Z " fill="#01CFFA" transform="translate(229,85)"/>
<path d="M0 0 C1.64510941 0.00015915 3.29022379 0.00585551 4.93530273 0.01586914 C6.23164894 0.01799156 6.23164894 0.01799156 7.55418396 0.02015686 C10.32578941 0.025773 13.09731528 0.0383282 15.86889648 0.05102539 C17.74324428 0.05603831 19.61759334 0.06060158 21.49194336 0.06469727 C26.09679192 0.07574767 30.70158069 0.09302309 35.30639648 0.11352539 C35.21551758 1.27319824 35.21551758 1.27319824 35.12280273 2.45629883 C34.66178164 8.38751251 34.21749979 14.31925422 33.80639648 20.25415039 C33.72389648 21.4259082 33.64139648 22.59766602 33.55639648 23.80493164 C33.38645275 26.22397448 33.21990979 28.64325813 33.05639648 31.06274414 C32.97389648 32.2190332 32.89139648 33.37532227 32.80639648 34.56665039 C32.73420898 35.60982422 32.66202148 36.65299805 32.58764648 37.7277832 C32.30639648 40.11352539 32.30639648 40.11352539 31.30639648 41.11352539 C29.89414603 41.206398 28.47730714 41.23099311 27.06201172 41.22705078 C26.16115341 41.22697525 25.2602951 41.22689972 24.33213806 41.2268219 C23.35297928 41.22166061 22.3738205 41.21649933 21.36499023 41.21118164 C20.36758316 41.20976669 19.37017609 41.20835175 18.34254456 41.20689392 C15.14296525 41.20127653 11.9434548 41.1887211 8.74389648 41.17602539 C6.58048603 41.17101263 4.41707449 41.16644934 2.25366211 41.16235352 C-3.06211677 41.15130146 -8.37785522 41.13454643 -13.69360352 41.11352539 C-13.24347687 33.74349905 -12.68668671 26.59599713 -10.88110352 19.42602539 C-10.62043091 18.35384766 -10.62043091 18.35384766 -10.35449219 17.26000977 C-6.05316725 0.18604817 -6.05316725 0.18604817 0 0 Z " fill="#5FD8F9" transform="translate(117.693603515625,84.886474609375)"/>
<path d="M0 0 C14.85 0 29.7 0 45 0 C46.375 13.75 46.375 13.75 46.79443359 18.00683594 C46.91125488 19.15442383 47.02807617 20.30201172 47.1484375 21.484375 C47.32125244 23.21252441 47.32125244 23.21252441 47.49755859 24.97558594 C48.16731545 30.34014961 49.11122438 35.66734629 50 41 C36.8 41 23.6 41 10 41 C4.29901707 27.31764097 4.29901707 27.31764097 2.75 21.0625 C2.43546875 19.83660156 2.1209375 18.61070312 1.796875 17.34765625 C0.74878937 11.62942434 0.44587429 5.79636574 0 0 Z " fill="#60D8F9" transform="translate(104,140)"/>
<path d="M0 0 C18.90050257 6.30016752 27.91518987 22.55366904 36.4921875 39.35546875 C38.44476665 44.07504478 39.65611737 49.07243035 41 54 C27.47 54 13.94 54 0 54 C0 36.18 0 18.36 0 0 Z " fill="#01CFFA" transform="translate(229,16)"/>
<path d="M0 0 C13.53 0 27.06 0 41 0 C35.1588715 17.52338549 35.1588715 17.52338549 31.6875 23.8125 C31.10838867 24.8787561 31.10838867 24.8787561 30.51757812 25.96655273 C23.83530316 37.96539221 14.86958517 48.5812273 2 54 C1.34 54 0.68 54 0 54 C0 36.18 0 18.36 0 0 Z " fill="#01CFFA" transform="translate(229,196)"/>
<path d="M0 0 C0 17.49 0 34.98 0 53 C-13.53 53 -27.06 53 -41 53 C-36.31916093 38.95748279 -36.31916093 38.95748279 -33.1875 32.875 C-32.84275635 32.19759766 -32.4980127 31.52019531 -32.14282227 30.82226562 C-29.21803303 25.19400805 -25.91669906 19.99716776 -22 15 C-21.47019531 14.29488281 -20.94039062 13.58976562 -20.39453125 12.86328125 C-15.39810028 6.63257754 -8.2795159 0 0 0 Z " fill="#01BFF9" transform="translate(214,17)"/>
<path d="M0 0 C13.2 0 26.4 0 40 0 C40 17.82 40 35.64 40 54 C22.72472388 47.52177146 13.26549856 34.0058359 5.6953125 17.82421875 C0 5.19424834 0 5.19424834 0 0 Z " fill="#01BFF9" transform="translate(174,196)"/>
<path d="M0 0 C13.2 0 26.4 0 40 0 C43.26377049 8.48580328 45.82587012 15.25536103 47 24 C46.19175781 24.03738281 45.38351562 24.07476562 44.55078125 24.11328125 C43.48214844 24.17902344 42.41351563 24.24476562 41.3125 24.3125 C40.25675781 24.37050781 39.20101562 24.42851563 38.11328125 24.48828125 C34.70936595 25.04777047 32.7630657 25.96278343 30 28 C27.22919044 31.65850618 27.22919044 31.65850618 27 40 C19.41 40 11.82 40 4 40 C3.79503906 37.86660156 3.59007812 35.73320313 3.37890625 33.53515625 C3.17715984 31.44000753 2.97518706 29.34488075 2.77319336 27.24975586 C2.63428546 25.80772128 2.49560824 24.36566447 2.35717773 22.92358398 C2.15671326 20.83571395 1.95538433 18.74792869 1.75390625 16.66015625 C1.63345947 15.40855713 1.5130127 14.15695801 1.38891602 12.86743164 C0.9572635 8.57502271 0.47640803 4.28767229 0 0 Z " fill="#98E5FB" transform="translate(290,85)"/>
<path d="M0 0 C0.66 0.33 1.32 0.66 2 1 C1.18208984 2.18529297 1.18208984 2.18529297 0.34765625 3.39453125 C-4.24572862 10.20392367 -8.26730468 17.14941047 -11.8125 24.5625 C-12.3528186 25.67492065 -12.3528186 25.67492065 -12.90405273 26.80981445 C-16.01740109 33.48189394 -17.77715187 39.77574357 -20 47 C-31.88 47 -43.76 47 -56 47 C-42.2104254 26.3156381 -23.93099535 8.44191554 0 0 Z " fill="#60D9FA" transform="translate(178,23)"/>
<path d="M0 0 C11.88 0 23.76 0 36 0 C36.825 2.475 37.65 4.95 38.5 7.5 C42.59040655 19.33115625 48.13416276 30.37637179 54.7734375 40.984375 C55.96643416 42.94484085 57.00403122 44.93359749 58 47 C34.53397303 40.71445706 12.71301029 21.33292018 0 1 C0 0.67 0 0.34 0 0 Z " fill="#61D9FA" transform="translate(122,196)"/>
<path d="M0 0 C23.07726849 10.25452842 46.3129641 24.62592821 58 48 C46.45 48 34.9 48 23 48 C21.865625 44.885625 20.73125 41.77125 19.5625 38.5625 C14.62507952 25.39398684 8.79014703 13.04403089 0 2 C0 1.34 0 0.68 0 0 Z " fill="#97E4FB" transform="translate(263,22)"/>
<path d="M0 0 C1.29349365 0.00523682 2.5869873 0.01047363 3.91967773 0.01586914 C4.9496714 0.01799156 4.9496714 0.01799156 6.00047302 0.02015686 C8.20144949 0.0257706 10.40232557 0.03832532 12.60327148 0.05102539 C14.09220231 0.05603863 15.58113473 0.06060184 17.07006836 0.06469727 C20.72700223 0.07574446 24.38387707 0.09301826 28.04077148 0.11352539 C28.27358882 6.2032522 27.31258069 9.00272125 23.22827148 13.42602539 C22.4794873 14.26677612 22.4794873 14.26677612 21.71557617 15.12451172 C9.51479829 28.59636373 -5.81386103 40.55376463 -22.95922852 47.11352539 C-23.94922852 46.78352539 -24.93922852 46.45352539 -25.95922852 46.11352539 C-25.34047852 45.29174805 -25.34047852 45.29174805 -24.70922852 44.45336914 C-15.25399332 31.47352619 -9.47962446 18.03218761 -4.58837891 2.82495117 C-3.52210418 -0.07554778 -3.28679287 0.1260918 0 0 Z " fill="#96E4FB" transform="translate(288.959228515625,195.886474609375)"/>
<path d="M0 0 C7.59 0 15.18 0 23 0 C23 13.53 23 27.06 23 41 C14.09 41 5.18 41 -4 41 C-3.38456358 35.46107218 -2.7367296 29.95721633 -2 24.4375 C-0.94495005 16.30245807 -0.43880387 8.19100559 0 0 Z " fill="#96E3FA" transform="translate(294,140)"/>
<path d="M0 0 C6.93 0 13.86 0 21 0 C21 13.2 21 26.4 21 40 C12.42 40 3.84 40 -5 40 C-4.62492207 30.022927 -4.08131572 20.29763662 -2.5 10.4375 C-2.36940186 9.6230542 -2.23880371 8.8086084 -2.10424805 7.96948242 C-1.14718158 2.29436316 -1.14718158 2.29436316 0 0 Z " fill="#01CFFA" transform="translate(193,85)"/>
<path d="M0 0 C8.58 0 17.16 0 26 0 C26 13.2 26 26.4 26 40 C20.8334375 40.0309375 20.8334375 40.0309375 15.5625 40.0625 C14.47525635 40.071604 13.3880127 40.08070801 12.26782227 40.09008789 C11.41760498 40.09258545 10.5673877 40.09508301 9.69140625 40.09765625 C8.81685791 40.10289307 7.94230957 40.10812988 7.04125977 40.11352539 C5 40 5 40 4 39 C3.33783619 35.88375659 2.94671256 32.71594343 2.5 29.5625 C2.3661792 28.62704346 2.2323584 27.69158691 2.09448242 26.7277832 C0.87651949 17.8168685 0.36523442 8.9847668 0 0 Z " fill="#01CFFA" transform="translate(188,141)"/>
<path d="M0 0 C5.94 0 11.88 0 18 0 C17.78537109 2.77470703 17.78537109 2.77470703 17.56640625 5.60546875 C17.00989171 12.8401578 16.47162259 20.07612808 15.9375 27.3125 C15.84662109 28.54162109 15.75574219 29.77074219 15.66210938 31.03710938 C15.44123493 34.02472692 15.22059265 37.01236163 15 40 C7.08 40 -0.84 40 -9 40 C-8.4541071 25.67031126 -5.71720855 13.27209127 0 0 Z " fill="#97E5FB" transform="translate(135,85)"/>
<path d="M0 0 C7.59 0 15.18 0 23 0 C23.48028836 4.43738114 23.95926217 8.87489778 24.4375 13.3125 C24.57220703 14.55580078 24.70691406 15.79910156 24.84570312 17.08007812 C25.63145887 24.38185715 26.35760576 31.6841899 27 39 C21.06 39 15.12 39 9 39 C3.44821171 26.31019819 0.62778336 13.81123401 0 0 Z " fill="#98E5FB" transform="translate(126,141)"/>
<path d="M0 0 C0.33 0 0.66 0 1 0 C1 12.21 1 24.42 1 37 C-4.61 37 -10.22 37 -16 37 C-14.54408696 31.17634785 -13.07746474 26.19436016 -10.8125 20.75 C-10.51005371 20.0185376 -10.20760742 19.2870752 -9.89599609 18.53344727 C-7.14492764 12.04594829 -3.97980249 5.83479518 0 0 Z " fill="#01CFFA" transform="translate(213,33)"/>
<path d="M0 0 C5.61 0 11.22 0 17 0 C17 12.21 17 24.42 17 37 C13.75506378 32.94382972 11.33671679 29.21420416 9.0625 24.625 C8.71767578 23.93398193 8.37285156 23.24296387 8.01757812 22.53100586 C0 6.0181668 0 6.0181668 0 0 Z " fill="#01CFFA" transform="translate(197,196)"/>
<path d="M0 0 C2.8291637 1.41458185 3.24923311 3.21918587 4.6015625 6.05859375 C5.09140625 7.08404297 5.58125 8.10949219 6.0859375 9.16601562 C6.59382813 10.24560547 7.10171875 11.32519531 7.625 12.4375 C8.140625 13.51322266 8.65625 14.58894531 9.1875 15.69726562 C13 23.73074777 13 23.73074777 13 26 C4.42 26 -4.16 26 -13 26 C-11.5975 23.009375 -10.195 20.01875 -8.75 16.9375 C-8.31655273 16.00929443 -7.88310547 15.08108887 -7.43652344 14.12475586 C-5.15328364 9.28141016 -2.72651245 4.6088066 0 0 Z " fill="#FE6671" transform="translate(399,172)"/>
<path d="M0 0 C4.95 0 9.9 0 15 0 C15.54527344 1.61455078 15.54527344 1.61455078 16.1015625 3.26171875 C18.96940037 11.62872948 22.03929299 19.63507545 25.99609375 27.55859375 C26.32738281 28.36425781 26.65867188 29.16992188 27 30 C26.67 30.66 26.34 31.32 26 32 C19.07514059 26.35186818 13.36217162 20.2864624 7.9375 13.1875 C7.37780518 12.45861572 6.81811035 11.72973145 6.24145508 10.97875977 C3.45807201 7.25974263 1.76994998 4.42487496 0 0 Z " fill="#94E4FB" transform="translate(143,196)"/>
<path d="M0 0 C1.20196988 3.60590963 0.4308352 4.66158283 -1.19897461 7.93920898 C-1.52518799 8.57802002 -1.85140137 9.21683105 -2.1875 9.875 C-5.58916353 16.79966352 -7.90755055 23.55087995 -10 31 C-14.95 31 -19.9 31 -25 31 C-21.3587591 21.89689775 -14.68567657 14.56154865 -8.125 7.375 C-7.66101807 6.86638428 -7.19703613 6.35776855 -6.71899414 5.83374023 C-4.57923248 3.53524603 -2.62956545 1.75304363 0 0 Z " fill="#95E4FB" transform="translate(168,39)"/>
</svg>
