<?xml version="1.0" encoding="UTF-8"?>
<svg version="1.1" xmlns="http://www.w3.org/2000/svg" width="512" height="512">
<path d="M0 0 C0.7270209 -0.00235223 1.45404181 -0.00470446 2.20309365 -0.00712797 C4.65227419 -0.01381323 7.10140162 -0.01335989 9.55059052 -0.01294994 C11.3191554 -0.01624887 13.08771954 -0.0199745 14.85628271 -0.02409142 C19.72675582 -0.0341164 24.59721661 -0.03782902 29.46769857 -0.04048073 C34.71671924 -0.04438235 39.96573013 -0.05396084 45.21474457 -0.0626936 C57.89696734 -0.08246281 70.57919092 -0.09252513 83.26142526 -0.10142139 C89.23307361 -0.10580384 95.20472107 -0.11117079 101.17636871 -0.11641026 C121.02682816 -0.13342355 140.87728706 -0.14791759 160.72775269 -0.155159 C165.87992097 -0.15706891 171.03208924 -0.15898924 176.18425751 -0.16094494 C177.46481213 -0.16142868 178.74536675 -0.16191242 180.06472605 -0.16241082 C200.80747599 -0.17071057 221.55016824 -0.19604613 242.29289299 -0.22852562 C263.58703241 -0.26159675 284.88114252 -0.27960784 306.17530775 -0.28280324 C318.13194574 -0.28496836 330.08849964 -0.29371733 342.04511261 -0.31926441 C352.22840493 -0.34097217 362.41159273 -0.34902144 372.59490556 -0.33929763 C377.78928519 -0.33475309 382.98344917 -0.33664827 388.17779922 -0.35605907 C392.93767828 -0.3736924 397.6971844 -0.37269151 402.45706743 -0.35716178 C404.17451659 -0.35478598 405.89199159 -0.35910783 407.60940129 -0.37099043 C423.79493551 -0.47599559 437.77779124 3.00331298 449.97820282 14.18500233 C458.23775589 22.89856889 464.06787433 34.67040213 464.08312798 46.74046326 C464.08957687 48.03585657 464.09602576 49.33124989 464.10267007 50.66589755 C464.09972821 52.09122678 464.09659281 53.51655562 464.09328461 54.94188404 C464.09702316 56.46555154 464.10162549 57.98921712 464.10701525 59.51287967 C464.11923556 63.69250124 464.11898592 67.87204271 464.1166265 72.05167806 C464.11621809 76.56240499 464.1272599 81.07310632 464.13674164 85.5838213 C464.15334771 94.41885396 464.15885102 103.25385994 464.15996639 112.08890691 C464.16091713 119.27208914 464.16502871 126.45526258 464.17136765 133.63844204 C464.18897961 154.01118702 464.19820668 174.38391094 464.1967067 194.75666358 C464.19658683 196.40378037 464.19658683 196.40378037 464.19646454 198.08417225 C464.19638278 199.18359348 464.19630102 200.28301471 464.19621678 201.41575173 C464.19540407 219.22898319 464.21453802 237.04213005 464.24274127 254.85533705 C464.2714822 273.15278342 464.28528087 291.45018856 464.28355372 309.74765807 C464.2828902 320.01745031 464.28836584 330.28715389 464.30990982 340.55692577 C464.32813759 349.3018631 464.33245589 358.04667157 464.31889097 366.79161968 C464.31236917 371.25085693 464.31221555 375.70984709 464.32959747 380.16906071 C464.34536838 384.25714446 464.34242388 388.34478605 464.32502921 392.43285928 C464.3219681 393.9059379 464.32555797 395.37904984 464.33674936 396.85208913 C464.43054983 410.08240392 461.96062216 420.57330058 453.82585907 431.13422108 C453.36308563 431.76070545 452.90031219 432.38718983 452.42351532 433.03265858 C448.60817853 437.87316897 444.04580635 440.9377365 438.82585907 444.13422108 C437.61929657 444.96953358 437.61929657 444.96953358 436.38835907 445.82172108 C426.73184485 450.76774056 416.87557567 450.56225753 406.30367279 450.52190113 C404.52167738 450.5260778 402.73968464 450.53155715 400.9576968 450.53822094 C396.07792445 450.55265051 391.19832137 450.54843859 386.31853986 450.54105413 C381.04916383 450.53631861 375.77982421 450.54883572 370.5104599 450.55907154 C360.19391724 450.57625734 349.87743549 450.57709999 339.56088223 450.57185864 C331.17448919 450.56781529 322.78811413 450.56926246 314.40172195 450.5746069 C312.61051723 450.57572953 312.61051723 450.57572953 310.78312656 450.57687484 C308.35714667 450.57840634 305.93116678 450.57994468 303.5051869 450.58148981 C280.76078623 450.59521407 258.01641997 450.58977768 235.27202009 450.5783046 C214.47144626 450.56837239 193.67096139 450.58131284 172.87040128 450.60523879 C151.50374302 450.62963042 130.13712619 450.63923749 108.77045429 450.63258606 C96.77814515 450.62909398 84.78590441 450.63132524 72.7936058 450.64883709 C62.58482885 450.66355983 52.37616849 450.66419349 42.16739382 450.64676618 C36.96082958 450.63825447 31.7544736 450.63611096 26.54792023 450.65141773 C21.77716472 450.66526944 17.00679581 450.66049529 12.23606263 450.6411785 C10.51476082 450.63741969 8.793428 450.64033699 7.07215382 450.65079015 C-6.76119839 450.72879268 -17.96972152 448.75967355 -29.17414093 440.13422108 C-30.09646515 439.45746326 -30.09646515 439.45746326 -31.03742218 438.76703358 C-39.98262156 431.74574626 -45.89366651 421.22019455 -48.17414093 410.13422108 C-48.26784701 408.05681918 -48.3050291 405.97663396 -48.30836201 403.89712238 C-48.31281985 402.60770221 -48.31727769 401.31828204 -48.32187063 399.98978853 C-48.32178133 398.5556329 -48.32159148 397.12147727 -48.32131195 395.68732166 C-48.32461141 394.16624466 -48.32833715 392.64516854 -48.33245343 391.12409353 C-48.34247246 386.93771466 -48.34619008 382.75135012 -48.34884274 378.56496096 C-48.35274614 374.05214262 -48.36232453 369.53933563 -48.3710556 365.02652454 C-48.39082011 354.12407329 -48.40088669 343.2216211 -48.40978339 332.31915641 C-48.41416675 327.18431427 -48.41953347 322.04947317 -48.42477226 316.91463184 C-48.44178533 299.84356113 -48.45627897 282.77249105 -48.463521 265.70141315 C-48.46543089 261.27113818 -48.46735122 256.84086322 -48.46930695 252.41058826 C-48.46979069 251.30947053 -48.47027443 250.2083528 -48.47077283 249.07386786 C-48.47907108 231.24105031 -48.5044042 213.40829988 -48.53688762 195.57551163 C-48.56996983 177.26460477 -48.58797086 158.95373199 -48.59116524 140.64279509 C-48.59332938 130.36289178 -48.6020638 120.08308633 -48.62762642 109.80321217 C-48.64934934 101.04722956 -48.65737602 92.29136857 -48.64765964 83.53536206 C-48.64311942 79.07006499 -48.64498488 74.60501876 -48.66442108 70.1397562 C-48.68208576 66.04600957 -48.68102847 61.95269617 -48.66552379 57.85894471 C-48.6631527 56.3837543 -48.66744526 54.90853363 -48.67935244 53.43338937 C-48.7795349 40.19419058 -46.31445813 29.70235217 -38.17414093 19.13422108 C-37.71136749 18.5077367 -37.24859406 17.88125233 -36.77179718 17.23578358 C-28.13246038 6.27507373 -13.75228545 0.01894674 0 0 Z " fill="#E38D65" transform="translate(48.17414093017578,30.865778923034668)"/>
<path d="M0 0 C0.7270209 -0.00235223 1.45404181 -0.00470446 2.20309365 -0.00712797 C4.65227419 -0.01381323 7.10140162 -0.01335989 9.55059052 -0.01294994 C11.3191554 -0.01624887 13.08771954 -0.0199745 14.85628271 -0.02409142 C19.72675582 -0.0341164 24.59721661 -0.03782902 29.46769857 -0.04048073 C34.71671924 -0.04438235 39.96573013 -0.05396084 45.21474457 -0.0626936 C57.89696734 -0.08246281 70.57919092 -0.09252513 83.26142526 -0.10142139 C89.23307361 -0.10580384 95.20472107 -0.11117079 101.17636871 -0.11641026 C121.02682816 -0.13342355 140.87728706 -0.14791759 160.72775269 -0.155159 C165.87992097 -0.15706891 171.03208924 -0.15898924 176.18425751 -0.16094494 C177.46481213 -0.16142868 178.74536675 -0.16191242 180.06472605 -0.16241082 C200.80747599 -0.17071057 221.55016824 -0.19604613 242.29289299 -0.22852562 C263.58703241 -0.26159675 284.88114252 -0.27960784 306.17530775 -0.28280324 C318.13194574 -0.28496836 330.08849964 -0.29371733 342.04511261 -0.31926441 C352.22840493 -0.34097217 362.41159273 -0.34902144 372.59490556 -0.33929763 C377.78928519 -0.33475309 382.98344917 -0.33664827 388.17779922 -0.35605907 C392.93767828 -0.3736924 397.6971844 -0.37269151 402.45706743 -0.35716178 C404.17451659 -0.35478598 405.89199159 -0.35910783 407.60940129 -0.37099043 C423.79493551 -0.47599559 437.77779124 3.00331298 449.97820282 14.18500233 C476.65183796 42.32484152 463.82585907 91.02098145 463.82585907 123.13422108 C294.86585907 123.13422108 125.90585907 123.13422108 -48.17414093 123.13422108 C-48.17414093 32.11667722 -48.17414093 32.11667722 -38.17414093 19.13422108 C-37.71136749 18.5077367 -37.24859406 17.88125233 -36.77179718 17.23578358 C-28.13246038 6.27507373 -13.75228545 0.01894674 0 0 Z " fill="#F7EB7C" transform="translate(48.17414093017578,30.865778923034668)"/>
<path d="M0 0 C9.1181063 6.69218811 16.0947042 16.00294692 18.1875 27.3125 C19.10371393 41.30238199 16.58057232 52.39222025 7.5234375 63.3203125 C-0.65975173 71.95189566 -10.12518596 76.21971345 -21.97094727 76.76806641 C-33.64847938 77.00215726 -42.76772716 73.74757088 -51.83203125 66.21875 C-54.92110133 63.24544389 -57.64017362 60.01823324 -59.8125 56.3125 C-59.8125 55.6525 -59.8125 54.9925 -59.8125 54.3125 C-72.31769236 60.98566085 -84.80380947 67.67897468 -97.125 74.6875 C-105.55062392 79.47861445 -114.00025554 84.22346214 -122.48080444 88.91656494 C-123.77390561 89.63256347 -125.066418 90.34962649 -126.35830688 91.06781006 C-128.16693961 92.07290392 -129.97768624 93.07407966 -131.7890625 94.07421875 C-132.83143066 94.65131592 -133.87379883 95.22841309 -134.94775391 95.82299805 C-137.52899047 97.16509147 -140.09128287 98.29040108 -142.8125 99.3125 C-142.48894531 100.28316406 -142.16539062 101.25382812 -141.83203125 102.25390625 C-140.59482761 106.6043562 -140.48101304 110.75008956 -140.5 115.25 C-140.48388672 116.00990234 -140.46777344 116.76980469 -140.45117188 117.55273438 C-140.44643174 123.10342752 -141.61541 127.21687438 -143.8125 132.3125 C-143.10883301 132.57337402 -142.40516602 132.83424805 -141.68017578 133.10302734 C-138.59035599 134.40619159 -135.81799972 135.96018255 -132.9296875 137.6640625 C-132.36644775 137.99508972 -131.80320801 138.32611694 -131.22290039 138.66717529 C-129.3757767 139.75394466 -127.53164166 140.84567939 -125.6875 141.9375 C-124.39095487 142.70161826 -123.09424006 143.46544867 -121.79736328 144.22900391 C-113.08324234 149.36350026 -104.38639887 154.52727395 -95.6875 159.6875 C-83.73402744 166.77592614 -83.73402744 166.77592614 -71.75 173.8125 C-70.96415527 174.27575684 -70.17831055 174.73901367 -69.36865234 175.21630859 C-65.82550977 177.49992634 -65.82550977 177.49992634 -61.8125 178.3125 C-60.89764127 176.84872604 -60.0566948 175.33855511 -59.25 173.8125 C-53.83262399 164.53868682 -45.33954181 157.73580199 -34.91308594 154.77270508 C-22.55023867 152.06420123 -10.23537851 154.3701498 0.55078125 160.69921875 C10.00740459 167.19953423 15.4753215 177.38299769 18.1875 188.3125 C19.49886704 200.70836946 17.22577081 211.24512864 9.75 221.3125 C1.4224727 231.10538618 -8.92549126 236.42973136 -21.65625 237.56640625 C-34.66729866 238.08617752 -45.11732086 232.71379555 -54.5625 224.0625 C-60.46117189 217.87642183 -64.57239919 208.95486905 -64.9375 200.375 C-64.89625 199.694375 -64.855 199.01375 -64.8125 198.3125 C-65.86256226 197.9244519 -65.86256226 197.9244519 -66.93383789 197.52856445 C-70.08860771 196.19586083 -72.92160407 194.59634063 -75.87109375 192.85546875 C-76.44755142 192.51651077 -77.02400909 192.1775528 -77.61793518 191.82832336 C-79.49725755 190.7221826 -81.37362575 189.61113306 -83.25 188.5 C-84.56687724 187.72365284 -85.88393654 186.94761443 -87.20117188 186.171875 C-90.47903308 184.24036164 -93.75453445 182.30489219 -97.0289917 180.36761475 C-99.55122309 178.87547505 -102.07447894 177.38507072 -104.59765625 175.89453125 C-107.19323708 174.36058278 -109.78875776 172.82653258 -112.38427734 171.29248047 C-114.17910092 170.23176725 -115.97402634 169.17122634 -117.76904297 168.11083984 C-120.01064689 166.78630475 -122.25180469 165.46102752 -124.49267578 164.13525391 C-127.79656461 162.18113491 -131.10282865 160.23108118 -134.41040039 158.28320312 C-135.70834165 157.51801941 -137.005557 156.75160289 -138.30200195 155.98388672 C-140.11738155 154.90913672 -141.93532823 153.83885786 -143.75390625 152.76953125 C-145.32700562 151.8410437 -145.32700562 151.8410437 -146.93188477 150.89379883 C-149.5357136 149.46444046 -151.98306343 148.21586326 -154.8125 147.3125 C-157.0839829 148.26824558 -157.0839829 148.26824558 -159.125 150 C-167.91643039 156.41774418 -177.07510972 158.17599642 -187.8125 157.3125 C-199.92890806 155.05326477 -210.1153385 148.95287989 -217.30859375 138.84765625 C-224.16821279 127.28429844 -225.60191794 115.69260615 -222.5625 102.6484375 C-218.67137449 90.52920285 -209.86105061 82.12752663 -198.8125 76.3125 C-189.58304656 72.35701995 -175.98802084 72.75588959 -166.5625 75.9375 C-162.37077514 77.75084806 -159.00172702 80.23352687 -155.6640625 83.3359375 C-155.05304688 83.65820312 -154.44203125 83.98046875 -153.8125 84.3125 C-150.15930826 83.08864165 -146.83159735 81.3340269 -143.4453125 79.51171875 C-142.40721436 78.95371582 -141.36911621 78.39571289 -140.29956055 77.82080078 C-139.19008057 77.21993652 -138.08060059 76.61907227 -136.9375 76 C-135.19690308 75.06003174 -135.19690308 75.06003174 -133.42114258 74.10107422 C-125.14323582 69.62038213 -116.93079646 65.02958136 -108.75097656 60.37231445 C-99.34844253 55.02509042 -89.87456054 49.80991089 -80.39331055 44.60400391 C-79.79323685 44.27410461 -79.19316315 43.94420532 -78.5749054 43.60430908 C-76.94282367 42.70719042 -75.31005862 41.8113152 -73.67724609 40.91552734 C-72.73187988 40.38652832 -71.78651367 39.8575293 -70.8125 39.3125 C-69.87422363 38.7956665 -68.93594727 38.27883301 -67.96923828 37.74633789 C-65.58599313 36.51708096 -65.58599313 36.51708096 -65.28125 34.03515625 C-65.29671875 32.71837891 -65.29671875 32.71837891 -65.3125 31.375 C-64.63207231 18.48089534 -57.99637635 10.03290046 -48.875 1.5 C-34.91861259 -10.13032284 -14.96900365 -9.21761974 0 0 Z " fill="#AF593C" transform="translate(358.8125,215.6875)"/>
<path d="M0 0 C4.72610042 2.65901872 7.5829614 6.35434973 9.6875 11.3125 C10.63171563 18.38313795 9.93630971 24.47728407 5.6875 30.3125 C1.42859285 34.4622044 -2.65905803 36.37078585 -8.5625 36.75 C-13.98089231 36.61431405 -18.05765328 34.58677082 -22.3125 31.3125 C-26.94416967 26.20873176 -27.72675557 20.83465135 -27.65625 14.171875 C-27.11606359 9.67850622 -25.32221953 6.63573198 -22.3125 3.3125 C-15.48612497 -2.01207253 -8.05007474 -3.73861149 0 0 Z " fill="#E48F66" transform="translate(149.3125,75.6875)"/>
<path d="M0 0 C4.65013373 1.73118501 8.10683725 5.34448524 10.33203125 9.78515625 C12.06466789 15.53021459 12.33307817 21.91543227 9.9296875 27.4765625 C6.65497804 32.25441728 2.57560588 35.39565159 -3 37 C-8.67135758 38.04448266 -12.90677786 37.48582808 -17.875 34.5 C-22.78315929 30.79064775 -25.42916767 26.84979945 -26.3359375 20.734375 C-26.56535701 15.54596463 -25.65492575 11.5390666 -23 7 C-15.92776194 -0.2523182 -10.08581104 -0.98040845 0 0 Z " fill="#E48F66" transform="translate(233,75)"/>
<path d="M0 0 C4.38118201 2.48326106 7.42338864 5.84677729 9.6875 10.375 C10.18884255 16.81532357 10.66698918 22.98343401 6.6875 28.375 C1.67619648 33.38630352 -1.89753716 35.51476818 -9.125 35.6875 C-15.28319789 35.62072436 -18.39533169 34.35593155 -22.7421875 29.9140625 C-27.22207519 24.92797281 -27.74428951 20.4810077 -27.6484375 13.97265625 C-26.97301895 8.74994301 -24.37657712 5.25601042 -20.55078125 1.76953125 C-14.16992666 -2.85108759 -7.15199831 -3.19213484 0 0 Z " fill="#E48E66" transform="translate(64.3125,75.625)"/>
</svg>
